<svg width="1080" height="1080" viewBox="0 0 1080 1080" fill="none" xmlns="http://www.w3.org/2000/svg">
<path fill-rule="evenodd" clip-rule="evenodd" d="M83.0688 396.941C74.1603 395.661 74.16 395.663 74.1596 395.666L74.1323 395.858C74.1144 395.983 74.0883 396.168 74.0542 396.411C73.9861 396.896 73.8865 397.612 73.759 398.545C73.5039 400.411 73.1373 403.144 72.6883 406.631C71.7905 413.604 70.5628 423.597 69.2392 435.704C66.5938 459.902 63.5582 492.614 62.0155 526.571C60.476 560.459 60.4065 595.909 63.7912 625.472C65.4825 640.244 68.0692 653.86 71.913 665.203C75.6973 676.371 81.0387 686.364 88.9241 692.714C95.9306 698.356 109.538 705.283 127.429 713.154C145.677 721.183 169.394 730.617 197.449 741.162C253.575 762.259 327.455 787.951 410.49 815.966C514.309 850.995 632.642 889.723 748.704 927.708C818.265 950.474 887.011 972.973 951.328 994.249L951.83 994.415L952.349 994.521C965.864 997.288 980.775 993.831 992.641 987.63C1004.25 981.566 1015.28 971.597 1018.27 959.152L1018.51 958.118V654.643L1017.31 652.554L1009.51 657.055C1017.31 652.554 1017.31 652.552 1017.3 652.548L1017.1 652.195C1016.96 651.959 1016.76 651.608 1016.49 651.144C1015.96 650.216 1015.16 648.84 1014.11 647.044C1012.03 643.452 1008.95 638.178 1005.01 631.444C997.135 617.977 985.781 598.672 971.879 575.309C944.076 528.588 906.068 465.618 865.26 400.648C824.465 335.699 780.813 268.656 741.732 213.828C722.195 186.419 703.732 161.967 687.291 142.317C670.983 122.826 656.212 107.505 644.062 98.8579C630.885 89.48 612.627 85.1174 591.838 84.1912C570.882 83.2575 546.367 85.7743 519.773 91.0793C466.566 101.693 403.938 123.694 342.717 153.176C281.485 182.663 221.279 219.817 173.037 260.956C124.982 301.937 87.8872 347.646 74.4197 394.453L74.2484 395.048L74.1603 395.661L83.0688 396.941ZM90.5422 408.92C90.5418 408.923 90.5414 408.926 90.541 408.93C89.6556 415.806 88.4419 425.683 87.1326 437.66C84.5124 461.628 81.5168 493.935 79.997 527.388C78.474 560.91 78.4497 595.259 81.6744 623.425C83.2879 637.517 85.6816 649.749 88.9609 659.426C92.2997 669.28 96.2238 675.482 100.213 678.694C105.082 682.615 116.509 688.684 134.678 696.678C152.49 704.515 175.859 713.817 203.782 724.313C259.612 745.298 333.256 770.911 416.245 798.911C520.005 833.92 638.17 872.593 754.161 910.554L754.167 910.556C754.176 910.559 754.185 910.562 754.194 910.565C819.525 931.947 884.166 953.102 945.154 973.25V692.207C610.244 581.418 268.053 468.081 90.5422 408.92ZM963.154 693.512V977.47C969.993 977.289 977.517 975.224 984.304 971.677C993.315 966.968 998.885 960.823 1000.51 955.831V679.699C991.367 686.059 979.257 690.805 963.154 693.512ZM955.057 676.523C617.605 564.895 272.045 450.443 94.356 391.217C108.247 352.017 140.796 312.107 184.717 274.652C231.523 234.737 290.343 198.375 350.527 169.393C410.721 140.406 471.898 118.985 523.295 108.731C549.004 103.603 571.99 101.325 591.037 102.173C610.25 103.029 624.496 107.026 633.625 113.523C643.782 120.751 657.324 134.551 673.486 153.867C689.514 173.024 707.678 197.065 727.074 224.276C765.859 278.688 809.298 345.393 850.017 410.222C890.724 475.031 928.654 537.87 956.41 584.514C970.287 607.834 981.619 627.1 989.479 640.534C993.409 647.251 996.471 652.51 998.55 656.088C998.675 656.303 998.797 656.512 998.914 656.714C992.133 665.494 979.993 673.267 955.057 676.523Z" fill="white"/>
<path fill-rule="evenodd" clip-rule="evenodd" d="M83.0688 396.941C134.069 219.691 549.619 42.6905 638.844 106.191C728.069 169.691 1009.51 657.055 1009.51 657.055C1001.42 670.861 986.313 681.911 954.154 685.704C610.67 572.081 258.423 455.413 83.0688 396.941ZM94.356 391.217C272.045 450.443 617.605 564.895 955.057 676.523C979.993 673.267 992.133 665.494 998.914 656.714L998.55 656.088C996.471 652.51 993.409 647.251 989.479 640.534C981.619 627.1 970.287 607.834 956.41 584.514C928.654 537.87 890.724 475.031 850.017 410.222C809.298 345.393 765.859 278.688 727.074 224.276C707.678 197.065 689.514 173.024 673.486 153.867C657.324 134.551 643.782 120.751 633.625 113.523C624.496 107.026 610.25 103.029 591.037 102.173C571.99 101.325 549.004 103.603 523.295 108.731C471.898 118.985 410.721 140.406 350.527 169.393C290.343 198.375 231.523 234.737 184.717 274.652C140.796 312.107 108.247 352.017 94.356 391.217Z" fill="white"/>
<path fill-rule="evenodd" clip-rule="evenodd" d="M83.0688 396.941C258.423 455.413 610.67 572.081 954.154 685.704V985.704C889.776 964.408 821.004 941.9 751.432 919.131C449.807 820.415 133.166 716.784 94.5688 685.704C47.0688 647.455 83.0688 396.941 83.0688 396.941ZM90.5422 408.92L90.541 408.93C89.6556 415.806 88.4419 425.683 87.1326 437.66C84.5124 461.628 81.5168 493.935 79.997 527.388C78.474 560.91 78.4497 595.259 81.6744 623.425C83.2879 637.517 85.6816 649.749 88.9609 659.426C92.2997 669.28 96.2238 675.482 100.213 678.694C105.082 682.615 116.509 688.684 134.678 696.678C152.49 704.515 175.859 713.817 203.782 724.313C259.612 745.298 333.256 770.911 416.245 798.911C520.005 833.92 638.17 872.593 754.161 910.554L754.167 910.556L754.194 910.565C819.525 931.947 884.166 953.102 945.154 973.25V692.207C610.244 581.418 268.053 468.081 90.5422 408.92Z" fill="white"/>
<path fill-rule="evenodd" clip-rule="evenodd" d="M954.154 685.704C986.313 681.911 1001.42 670.861 1009.51 657.055V957.055C1005.3 974.633 976.069 990.191 954.154 985.704V685.704ZM963.154 693.512V977.47C969.993 977.289 977.517 975.224 984.304 971.677C993.315 966.968 998.885 960.823 1000.51 955.831V679.699C991.367 686.059 979.257 690.805 963.154 693.512Z" fill="white"/>
<path d="M83.0688 396.941C134.069 219.691 549.619 42.6905 638.844 106.191C728.069 169.691 1009.51 657.055 1009.51 657.055M83.0688 396.941C258.423 455.413 610.67 572.081 954.154 685.704M83.0688 396.941C83.0688 396.941 47.0688 647.455 94.5688 685.704C133.166 716.784 449.807 820.415 751.432 919.131C821.004 941.9 889.776 964.408 954.154 985.704M83.0688 396.941C74.1603 395.661 74.16 395.663 74.1596 395.666L74.1323 395.858C74.1144 395.983 74.0883 396.168 74.0542 396.411C73.9861 396.896 73.8865 397.612 73.759 398.545C73.5039 400.411 73.1373 403.144 72.6883 406.631C71.7905 413.604 70.5628 423.597 69.2392 435.704C66.5938 459.902 63.5582 492.614 62.0155 526.571C60.476 560.459 60.4065 595.909 63.7912 625.472C65.4825 640.244 68.0692 653.86 71.913 665.203C75.6973 676.371 81.0387 686.364 88.9241 692.714C95.9306 698.356 109.538 705.283 127.429 713.154C145.677 721.183 169.394 730.617 197.449 741.162C253.575 762.259 327.455 787.951 410.49 815.966C514.309 850.995 632.642 889.723 748.704 927.708C818.265 950.474 887.011 972.973 951.328 994.249L951.83 994.415L952.349 994.521C965.864 997.288 980.775 993.831 992.641 987.63C1004.25 981.566 1015.28 971.597 1018.27 959.152L1018.51 958.118V654.643L1017.31 652.554L1009.51 657.055M83.0688 396.941L74.1603 395.661L74.2484 395.048L74.4197 394.453C87.8872 347.646 124.982 301.937 173.037 260.956C221.279 219.817 281.485 182.663 342.717 153.176C403.938 123.694 466.566 101.693 519.773 91.0793C546.367 85.7743 570.882 83.2575 591.838 84.1912C612.627 85.1174 630.885 89.48 644.062 98.8579C656.212 107.505 670.983 122.826 687.291 142.317C703.732 161.967 722.195 186.419 741.732 213.828C780.813 268.656 824.465 335.699 865.26 400.648C906.068 465.618 944.076 528.588 971.879 575.309C985.781 598.672 997.135 617.977 1005.01 631.444C1008.95 638.178 1012.03 643.452 1014.11 647.044C1015.16 648.84 1015.96 650.216 1016.49 651.144C1016.76 651.608 1016.96 651.959 1017.1 652.195L1017.3 652.548C1017.31 652.552 1017.31 652.554 1009.51 657.055M1009.51 657.055C1001.42 670.861 986.313 681.911 954.154 685.704M1009.51 657.055V957.055C1005.3 974.633 976.069 990.191 954.154 985.704M954.154 685.704V985.704M90.541 408.93C90.5414 408.926 90.5418 408.923 90.5422 408.92M90.541 408.93C89.6556 415.806 88.4419 425.683 87.1326 437.66C84.5124 461.628 81.5168 493.935 79.997 527.388C78.474 560.91 78.4497 595.259 81.6744 623.425C83.2879 637.517 85.6816 649.749 88.9609 659.426C92.2997 669.28 96.2238 675.482 100.213 678.694C105.082 682.615 116.509 688.684 134.678 696.678C152.49 704.515 175.859 713.817 203.782 724.313C259.612 745.298 333.256 770.911 416.245 798.911C520.005 833.92 638.17 872.593 754.161 910.554M90.541 408.93L90.5422 408.92M90.5422 408.92C268.053 468.081 610.244 581.418 945.154 692.207V973.25C884.166 953.102 819.525 931.947 754.194 910.565M754.161 910.554L754.167 910.556M754.161 910.554L754.167 910.556M998.55 656.088C996.471 652.51 993.409 647.251 989.479 640.534C981.619 627.1 970.287 607.834 956.41 584.514C928.654 537.87 890.724 475.031 850.017 410.222C809.298 345.393 765.859 278.688 727.074 224.276C707.678 197.065 689.514 173.024 673.486 153.867C657.324 134.551 643.782 120.751 633.625 113.523C624.496 107.026 610.25 103.029 591.037 102.173C571.99 101.325 549.004 103.603 523.295 108.731C471.898 118.985 410.721 140.406 350.527 169.393C290.343 198.375 231.523 234.737 184.717 274.652C140.796 312.107 108.247 352.017 94.356 391.217C272.045 450.443 617.605 564.895 955.057 676.523C979.993 673.267 992.133 665.494 998.914 656.714M998.55 656.088C998.675 656.303 998.797 656.512 998.914 656.714M998.55 656.088L998.914 656.714M754.167 910.556L754.194 910.565M754.167 910.556C754.176 910.559 754.185 910.562 754.194 910.565M963.154 977.47V693.512C979.257 690.805 991.367 686.059 1000.51 679.699V955.831C998.885 960.823 993.315 966.968 984.304 971.677C977.517 975.224 969.993 977.289 963.154 977.47Z" stroke="white" stroke-width="10"/>
<path fill-rule="evenodd" clip-rule="evenodd" d="M294.974 522.786C291.364 521.965 287.724 521.626 284.031 521.93C276.686 522.8 269.897 525.313 264.41 529.935C260.378 537.419 258.876 546.212 259.882 554.654C261.254 566.174 267.122 577.205 276.294 584.403C279.204 586.686 282.458 588.513 285.838 590.003C293.904 593.559 302.475 596.451 310.968 599.317L310.97 599.317C314.645 600.558 318.307 601.793 321.906 603.075C324.541 604.014 327.202 605.047 329.881 606.086C335.843 608.4 341.892 610.748 347.933 612.165C353.138 613.386 357.999 613.634 363.314 613.225C370.52 611.608 376.834 608.865 382.025 604.366C386.785 595.634 387.981 585.001 385.78 575.35C383.203 564.051 376.151 553.537 366.291 547.342C358.064 542.172 343.027 537.711 330.491 533.992C326.457 532.796 322.681 531.675 319.475 530.633C316.944 529.81 314.401 528.916 311.847 528.018C306.269 526.056 300.64 524.076 294.974 522.786Z" fill="white"/>
<path fill-rule="evenodd" clip-rule="evenodd" d="M363.314 613.225C370.52 611.608 376.834 608.865 382.025 604.366C386.785 595.634 387.981 585.001 385.78 575.35C383.203 564.051 376.151 553.537 366.291 547.342C358.064 542.172 343.027 537.711 330.491 533.992C326.457 532.796 322.681 531.675 319.475 530.633C316.944 529.81 314.401 528.916 311.847 528.018C306.269 526.056 300.64 524.076 294.974 522.786C291.364 521.965 287.724 521.626 284.031 521.93C276.686 522.8 269.897 525.313 264.41 529.935C260.378 537.419 258.876 546.212 259.882 554.654C261.254 566.174 267.122 577.205 276.294 584.403C279.204 586.686 282.458 588.513 285.838 590.003C293.904 593.559 302.475 596.451 310.968 599.317L310.97 599.317C314.645 600.558 318.307 601.793 321.906 603.075C324.541 604.014 327.202 605.047 329.881 606.086C335.843 608.4 341.892 610.748 347.933 612.165C353.138 613.386 357.999 613.634 363.314 613.225Z" fill="white"/>
<path fill-rule="evenodd" clip-rule="evenodd" d="M152.485 477.06C150.973 476.906 149.458 476.861 147.94 476.924C141.508 477.709 135.825 479.751 131.083 483.607C127.258 490.945 125.933 499.655 126.922 507.78C128.283 518.952 133.791 529.884 142.799 536.822C145.324 538.767 148.178 540.314 151.092 541.59C157.445 544.372 164.147 546.619 170.812 548.852C174.033 549.932 177.245 551.008 180.404 552.141C182.996 553.07 185.599 554.08 188.214 555.094C194.344 557.471 200.542 559.873 206.823 561.335C210.279 562.138 213.635 562.371 217.178 562.076C223.59 560.961 229.245 558.699 233.941 554.808C238.185 546.801 239.439 537.317 237.85 528.407C235.85 517.192 229.603 506.427 220.174 499.87C213.247 495.053 199.611 491.077 188.525 487.844C185.005 486.818 181.743 485.867 179.034 484.987C176.635 484.208 174.231 483.363 171.82 482.514C166.904 480.785 161.958 479.045 156.964 477.842C155.489 477.474 153.996 477.214 152.485 477.06Z" fill="white"/>
<path fill-rule="evenodd" clip-rule="evenodd" d="M217.178 562.076C223.59 560.961 229.245 558.699 233.941 554.808C238.185 546.801 239.439 537.317 237.85 528.407C235.85 517.192 229.603 506.427 220.174 499.87C213.247 495.053 199.611 491.077 188.525 487.844C185.005 486.818 181.743 485.867 179.034 484.987C176.635 484.208 174.231 483.363 171.82 482.514C166.904 480.785 161.958 479.045 156.964 477.842C155.489 477.474 153.996 477.214 152.485 477.06C150.973 476.906 149.458 476.861 147.94 476.924C141.508 477.709 135.825 479.751 131.083 483.607C127.258 490.945 125.933 499.655 126.922 507.78C128.283 518.952 133.791 529.884 142.799 536.822C145.324 538.767 148.178 540.314 151.092 541.59C157.445 544.372 164.147 546.619 170.812 548.852C174.033 549.932 177.245 551.008 180.404 552.141C182.996 553.07 185.599 554.08 188.214 555.094C194.344 557.471 200.542 559.873 206.823 561.335C210.279 562.138 213.635 562.371 217.178 562.076Z" fill="white"/>
<path fill-rule="evenodd" clip-rule="evenodd" d="M459.058 588.034C454.324 596.678 452.796 607.074 454.061 616.765C455.639 628.848 461.964 641.008 471.758 648.434C474.564 650.561 477.669 652.248 480.896 653.641C488.701 657.012 496.961 659.706 505.168 662.383C508.928 663.61 512.677 664.833 516.366 666.116C519.092 667.064 521.832 668.112 524.586 669.166C530.176 671.305 535.818 673.465 541.499 674.839C545.271 675.751 549.353 676.305 553.228 675.765L553.572 675.714C554.126 675.659 554.678 675.59 555.229 675.507C555.78 675.424 556.328 675.328 556.874 675.219C557.42 675.109 557.963 674.986 558.503 674.849C559.042 674.713 559.578 674.563 560.111 674.4C560.643 674.237 561.171 674.06 561.695 673.871C562.218 673.682 562.737 673.48 563.251 673.265C563.764 673.05 564.272 672.822 564.775 672.582C565.278 672.342 565.774 672.09 566.263 671.825C566.753 671.56 567.236 671.284 567.713 670.995C568.189 670.706 568.658 670.406 569.119 670.094C569.58 669.783 570.034 669.46 570.479 669.125C570.924 668.791 571.361 668.446 571.789 668.09C571.978 667.933 572.165 667.774 572.351 667.612C576.94 659.307 578.396 649.524 577.443 640.037C576.218 627.845 570.113 615.58 560.547 607.804C559.066 606.617 557.513 605.534 555.887 604.555C554.26 603.576 552.576 602.711 550.833 601.96C543.968 598.931 536.582 596.654 529.274 594.401C526.091 593.42 522.923 592.443 519.819 591.411C516.631 590.351 513.432 589.21 510.223 588.066C502.833 585.431 495.381 582.774 487.849 581.023C484.717 580.295 481.354 579.906 478.138 580.107C470.825 581.061 464.382 583.493 459.058 588.034Z" fill="white"/>
<path fill-rule="evenodd" clip-rule="evenodd" d="M487.849 581.023C484.717 580.295 481.354 579.906 478.138 580.107C470.825 581.061 464.382 583.493 459.058 588.034C454.324 596.678 452.796 607.074 454.061 616.765C455.639 628.848 461.964 641.008 471.758 648.434C474.564 650.561 477.669 652.248 480.896 653.641C488.701 657.012 496.961 659.706 505.168 662.383C508.928 663.61 512.677 664.833 516.366 666.116C519.092 667.064 521.832 668.112 524.586 669.166C530.176 671.305 535.818 673.465 541.499 674.839C545.271 675.751 549.353 676.305 553.228 675.765L553.572 675.714C554.126 675.659 554.678 675.59 555.229 675.507C555.78 675.424 556.328 675.328 556.874 675.219C557.42 675.109 557.963 674.986 558.503 674.849C559.042 674.713 559.578 674.563 560.111 674.4C560.643 674.237 561.171 674.06 561.695 673.871C562.218 673.682 562.737 673.48 563.251 673.265C563.764 673.05 564.272 672.822 564.775 672.582C565.278 672.342 565.774 672.09 566.263 671.825C566.753 671.56 567.236 671.284 567.713 670.995C568.189 670.706 568.658 670.406 569.119 670.094C569.58 669.783 570.034 669.46 570.479 669.125C570.924 668.791 571.361 668.446 571.789 668.09C571.978 667.933 572.165 667.774 572.351 667.612C576.94 659.307 578.396 649.524 577.443 640.037C576.218 627.845 570.113 615.58 560.547 607.804C559.066 606.617 557.513 605.534 555.887 604.555C554.26 603.576 552.576 602.711 550.833 601.96C543.968 598.931 536.582 596.654 529.274 594.401C526.091 593.42 522.923 592.443 519.819 591.411C516.631 590.351 513.432 589.21 510.223 588.066C502.833 585.431 495.381 582.774 487.849 581.023Z" fill="white"/>
<path fill-rule="evenodd" clip-rule="evenodd" d="M605.614 638.889C599.715 649.523 598.525 662.38 601.709 674.075C604.895 685.778 612.513 696.952 623.197 702.969C630.958 707.339 643.741 711.478 654.744 715.04L654.746 715.041C658.611 716.292 662.256 717.473 665.387 718.567C668.236 719.563 671.119 720.661 674.024 721.767L674.026 721.768C680.421 724.203 686.919 726.677 693.376 728.188C698.066 729.286 702.339 729.652 707.133 729.03C714.749 727.992 721.589 724.958 727.155 720.023C732.056 711.22 733.631 700.576 732.246 690.67C730.469 677.951 723.672 665.943 713.335 658.253C711.869 657.163 710.341 656.167 708.752 655.266C707.163 654.364 705.525 653.564 703.837 652.865C696.55 649.809 688.765 647.386 681.052 644.985C677.448 643.863 673.86 642.746 670.346 641.572C667.161 640.508 663.944 639.347 660.707 638.179C653.281 635.5 645.748 632.783 638.244 631.1C633.336 630 628.749 629.731 623.747 630.12C616.605 632.009 610.587 634.613 605.614 638.889Z" fill="white"/>
<path fill-rule="evenodd" clip-rule="evenodd" d="M638.244 631.1C633.336 630 628.749 629.731 623.747 630.12C616.605 632.009 610.587 634.613 605.614 638.889C599.715 649.523 598.525 662.38 601.709 674.075C604.895 685.778 612.513 696.952 623.197 702.969C630.958 707.339 643.741 711.478 654.744 715.04L654.746 715.041C658.611 716.292 662.256 717.473 665.387 718.567C668.236 719.563 671.119 720.661 674.024 721.767L674.026 721.768C680.421 724.203 686.919 726.677 693.376 728.188C698.066 729.286 702.339 729.652 707.133 729.03C714.749 727.992 721.589 724.958 727.155 720.023C732.056 711.22 733.631 700.576 732.246 690.67C730.469 677.951 723.672 665.943 713.335 658.253C711.869 657.163 710.341 656.167 708.752 655.266C707.163 654.364 705.525 653.564 703.837 652.865C696.55 649.809 688.765 647.386 681.052 644.985C677.448 643.863 673.86 642.746 670.346 641.572C667.161 640.508 663.944 639.347 660.707 638.179C653.281 635.5 645.748 632.783 638.244 631.1Z" fill="white"/>
<path fill-rule="evenodd" clip-rule="evenodd" d="M604.364 766.3C599.552 775.08 598.084 785.51 599.716 795.388C601.7 807.404 608.398 819.081 618.405 826.167C625.109 830.914 634.996 834.52 643.311 833.292C650.877 833.067 658.329 829.912 664.072 824.963C667.781 818.159 669.528 810.18 669.294 802.553C669.273 801.764 669.232 800.976 669.171 800.189C669.111 799.402 669.032 798.618 668.933 797.835C668.834 797.052 668.717 796.272 668.58 795.495C668.443 794.718 668.287 793.944 668.112 793.175C667.937 792.405 667.744 791.64 667.531 790.88C667.319 790.12 667.088 789.366 666.839 788.617C666.59 787.868 666.322 787.126 666.036 786.391C665.75 785.655 665.446 784.927 665.125 784.206C664.804 783.485 664.465 782.773 664.108 782.069C663.751 781.365 663.378 780.67 662.988 779.984C662.597 779.299 662.19 778.623 661.766 777.957C661.343 777.291 660.903 776.636 660.447 775.992C659.991 775.348 659.52 774.715 659.033 774.094C658.546 773.473 658.045 772.864 657.528 772.268C657.011 771.671 656.48 771.088 655.935 770.517C655.39 769.947 654.831 769.39 654.258 768.847C646.534 761.586 636.52 757.465 625.866 757.851C625.079 757.876 624.294 757.922 623.51 757.988C616.265 759.14 609.704 761.748 604.364 766.3Z" fill="white"/>
<path fill-rule="evenodd" clip-rule="evenodd" d="M625.866 757.851C625.079 757.876 624.294 757.922 623.51 757.988C616.265 759.14 609.704 761.748 604.364 766.3C599.552 775.08 598.084 785.51 599.716 795.388C601.7 807.404 608.398 819.081 618.405 826.167C625.109 830.914 634.996 834.52 643.311 833.292C650.877 833.067 658.329 829.912 664.072 824.963C667.781 818.159 669.528 810.18 669.294 802.553C669.273 801.764 669.232 800.976 669.171 800.189C669.111 799.402 669.032 798.618 668.933 797.835C668.834 797.052 668.717 796.272 668.58 795.495C668.443 794.718 668.287 793.944 668.112 793.175C667.937 792.405 667.744 791.64 667.531 790.88C667.319 790.12 667.088 789.366 666.839 788.617C666.59 787.868 666.322 787.126 666.036 786.391C665.75 785.655 665.446 784.927 665.125 784.206C664.804 783.485 664.465 782.773 664.108 782.069C663.751 781.365 663.378 780.67 662.988 779.984C662.597 779.299 662.19 778.623 661.766 777.957C661.343 777.291 660.903 776.636 660.447 775.992C659.991 775.348 659.52 774.715 659.033 774.094C658.546 773.473 658.045 772.864 657.528 772.268C657.011 771.671 656.48 771.088 655.935 770.517C655.39 769.947 654.831 769.39 654.258 768.847C646.534 761.586 636.52 757.465 625.866 757.851Z" fill="white"/>
<path fill-rule="evenodd" clip-rule="evenodd" d="M723.216 789.268C722.526 789.252 721.836 789.253 721.147 789.27C712.088 790.003 703.83 792.892 697.184 798.748C692.954 806.359 691.178 815.367 691.888 823.999C691.952 824.796 692.036 825.59 692.139 826.383C692.242 827.176 692.365 827.965 692.508 828.751C692.651 829.538 692.813 830.32 692.994 831.098C693.175 831.877 693.376 832.65 693.596 833.418C693.815 834.187 694.054 834.949 694.311 835.706C694.569 836.463 694.845 837.212 695.139 837.955C695.434 838.698 695.747 839.434 696.078 840.161C696.409 840.888 696.758 841.607 697.125 842.317C697.492 843.028 697.876 843.728 698.277 844.419C698.678 845.11 699.097 845.791 699.532 846.461C699.967 847.132 700.419 847.791 700.886 848.439C701.354 849.087 701.838 849.723 702.337 850.347C702.836 850.971 703.351 851.582 703.881 852.181C704.41 852.78 704.954 853.365 705.513 853.936C706.072 854.507 706.644 855.065 707.231 855.608C707.817 856.151 708.416 856.68 709.029 857.193C716.703 863.626 727.035 867.871 737.162 867.37C746.586 867.017 755.189 864.021 762.115 857.84C766.066 850.762 767.709 842.646 767.353 834.326C767.315 833.528 767.258 832.732 767.181 831.937C767.104 831.142 767.008 830.349 766.892 829.558C766.776 828.768 766.641 827.981 766.486 827.197C766.331 826.414 766.158 825.634 765.965 824.859C765.772 824.084 765.56 823.314 765.329 822.549C765.098 821.784 764.849 821.026 764.581 820.273C764.313 819.521 764.027 818.776 763.722 818.037C763.418 817.298 763.096 816.568 762.755 815.846C762.414 815.123 762.056 814.409 761.68 813.704C761.305 812.999 760.912 812.304 760.502 811.618C760.093 810.933 759.666 810.258 759.223 809.593C758.78 808.928 758.321 808.275 757.846 807.632C757.371 806.99 756.88 806.36 756.374 805.742C755.868 805.124 755.347 804.519 754.811 803.926C754.276 803.334 753.726 802.755 753.161 802.19C752.597 801.625 752.019 801.073 751.428 800.536C750.917 800.073 750.396 799.621 749.864 799.182C749.331 798.743 748.789 798.318 748.237 797.905C747.684 797.492 747.122 797.092 746.551 796.706C745.979 796.319 745.399 795.947 744.81 795.588C744.221 795.23 743.623 794.886 743.017 794.555C742.412 794.225 741.799 793.91 741.178 793.609C740.557 793.308 739.93 793.022 739.295 792.751C738.661 792.48 738.021 792.224 737.374 791.984C736.727 791.743 736.075 791.518 735.418 791.309C734.761 791.099 734.099 790.905 733.433 790.727C732.766 790.549 732.096 790.387 731.422 790.241C730.748 790.095 730.071 789.965 729.39 789.852C728.71 789.738 728.027 789.64 727.342 789.559C726.657 789.478 725.971 789.413 725.282 789.364C724.594 789.316 723.905 789.284 723.216 789.268Z" fill="white"/>
<path fill-rule="evenodd" clip-rule="evenodd" d="M737.162 867.37C746.586 867.017 755.189 864.021 762.115 857.84C766.066 850.762 767.709 842.646 767.353 834.326C767.315 833.528 767.258 832.732 767.181 831.937C767.104 831.142 767.008 830.349 766.892 829.558C766.776 828.768 766.641 827.981 766.486 827.197C766.331 826.414 766.158 825.634 765.965 824.859C765.772 824.084 765.56 823.314 765.329 822.549C765.098 821.784 764.849 821.026 764.581 820.273C764.313 819.521 764.027 818.776 763.722 818.037C763.418 817.298 763.096 816.568 762.755 815.846C762.414 815.123 762.056 814.409 761.68 813.704C761.305 812.999 760.912 812.304 760.502 811.618C760.093 810.933 759.666 810.258 759.223 809.593C758.78 808.928 758.321 808.275 757.846 807.632C757.371 806.99 756.88 806.36 756.374 805.742C755.868 805.124 755.347 804.519 754.811 803.926C754.276 803.334 753.726 802.755 753.161 802.19C752.597 801.625 752.019 801.073 751.428 800.536C750.917 800.073 750.396 799.621 749.864 799.182C749.331 798.743 748.789 798.318 748.237 797.905C747.684 797.492 747.122 797.092 746.551 796.706C745.979 796.319 745.399 795.947 744.81 795.588C744.221 795.23 743.623 794.886 743.017 794.555C742.412 794.225 741.799 793.91 741.178 793.609C740.557 793.308 739.93 793.022 739.295 792.751C738.661 792.48 738.021 792.224 737.374 791.984C736.727 791.743 736.075 791.518 735.418 791.309C734.761 791.099 734.099 790.905 733.433 790.727C732.766 790.549 732.096 790.387 731.422 790.241C730.748 790.095 730.071 789.965 729.39 789.852C728.71 789.738 728.027 789.64 727.342 789.559C726.657 789.478 725.971 789.413 725.282 789.364C724.594 789.316 723.905 789.284 723.216 789.268C722.526 789.252 721.836 789.253 721.147 789.27C712.088 790.003 703.83 792.892 697.184 798.748C692.954 806.359 691.178 815.367 691.888 823.999C691.952 824.796 692.036 825.59 692.139 826.383C692.242 827.176 692.365 827.965 692.508 828.751C692.651 829.538 692.813 830.32 692.994 831.098C693.175 831.877 693.376 832.65 693.596 833.418C693.815 834.187 694.054 834.949 694.311 835.706C694.569 836.463 694.845 837.212 695.139 837.955C695.434 838.698 695.747 839.434 696.078 840.161C696.409 840.888 696.758 841.607 697.125 842.317C697.492 843.028 697.876 843.728 698.277 844.419C698.678 845.11 699.097 845.791 699.532 846.461C699.967 847.132 700.419 847.791 700.886 848.439C701.354 849.087 701.838 849.723 702.337 850.347C702.836 850.971 703.351 851.582 703.881 852.181C704.41 852.78 704.954 853.365 705.513 853.936C706.072 854.507 706.644 855.065 707.231 855.608C707.817 856.151 708.416 856.68 709.029 857.193C716.703 863.626 727.035 867.871 737.162 867.37Z" fill="white"/>
<path fill-rule="evenodd" clip-rule="evenodd" d="M784.778 682.972C783.341 683.078 781.905 683.205 780.471 683.353C773.126 685.285 766.692 688.117 761.428 692.685C761.194 693.113 760.967 693.544 760.746 693.979C760.391 694.678 760.053 695.386 759.732 696.103C759.411 696.82 759.109 697.544 758.824 698.276C758.54 699.007 758.274 699.745 758.026 700.49C757.778 701.235 757.549 701.985 757.338 702.742C757.127 703.498 756.936 704.259 756.763 705.025C756.59 705.79 756.437 706.56 756.302 707.333C756.167 708.106 756.052 708.883 755.956 709.662C755.859 710.441 755.782 711.222 755.725 712.005C755.668 712.788 755.63 713.571 755.611 714.356C755.593 715.141 755.594 715.925 755.614 716.71C755.635 717.495 755.675 718.278 755.734 719.061C755.793 719.844 755.872 720.625 755.97 721.404C756.068 722.183 756.185 722.958 756.322 723.731C756.459 724.504 756.614 725.274 756.789 726.039C756.964 726.804 757.157 727.565 757.37 728.32C760.685 740.567 768.285 751.354 779.361 757.655C787.778 762.443 799.847 766.384 810.641 769.908C814.321 771.11 817.853 772.263 821.042 773.385C824.239 774.509 827.466 775.719 830.712 776.936L830.714 776.937C838.605 779.896 846.611 782.898 854.58 784.819C859.083 785.904 865.508 787.122 870.102 785.965C870.397 785.891 870.49 785.833 870.679 785.715C870.71 785.696 870.742 785.675 870.779 785.653C878.3 785.177 886.162 781.195 891.957 775.995C896.378 768.231 898.278 759.175 897.68 750.172C897.619 749.337 897.538 748.505 897.437 747.674C897.336 746.843 897.215 746.016 897.073 745.191C896.932 744.366 896.77 743.546 896.588 742.729C896.406 741.912 896.204 741.1 895.983 740.293C895.762 739.486 895.521 738.684 895.26 737.889C894.999 737.094 894.72 736.306 894.421 735.524C894.122 734.743 893.803 733.969 893.466 733.203C893.129 732.437 892.774 731.68 892.4 730.931C892.026 730.182 891.634 729.443 891.224 728.714C890.814 727.985 890.386 727.266 889.941 726.557C889.496 725.848 889.033 725.151 888.554 724.465C888.075 723.779 887.579 723.105 887.066 722.444C886.554 721.782 886.026 721.133 885.482 720.497C884.938 719.862 884.379 719.24 883.805 718.631C883.23 718.022 882.641 717.428 882.038 716.848C881.435 716.268 880.817 715.703 880.186 715.154C878.572 713.739 876.861 712.453 875.053 711.296C873.245 710.139 871.36 709.123 869.399 708.25C860.842 704.383 851.441 701.498 842.192 698.659L842.191 698.659L842.19 698.658C838.338 697.476 834.513 696.302 830.786 695.069C827.311 693.919 823.811 692.665 820.293 691.406L820.291 691.405C812.732 688.699 805.091 685.963 797.452 684.158C793.29 683.174 789.051 682.667 784.778 682.972Z" fill="white"/>
<path fill-rule="evenodd" clip-rule="evenodd" d="M870.779 785.653C878.3 785.177 886.162 781.195 891.957 775.995C896.378 768.231 898.278 759.175 897.68 750.172C897.619 749.337 897.538 748.505 897.437 747.674C897.336 746.843 897.215 746.016 897.073 745.191C896.932 744.366 896.77 743.546 896.588 742.729C896.406 741.912 896.204 741.1 895.983 740.293C895.762 739.486 895.521 738.684 895.26 737.889C894.999 737.094 894.72 736.306 894.421 735.524C894.122 734.743 893.803 733.969 893.466 733.203C893.129 732.437 892.774 731.68 892.4 730.931C892.026 730.182 891.634 729.443 891.224 728.714C890.814 727.985 890.386 727.266 889.941 726.557C889.496 725.848 889.033 725.151 888.554 724.465C888.075 723.779 887.579 723.105 887.066 722.444C886.554 721.782 886.026 721.133 885.482 720.497C884.938 719.862 884.379 719.24 883.805 718.631C883.23 718.022 882.641 717.428 882.038 716.848C881.435 716.268 880.817 715.703 880.186 715.154C878.572 713.739 876.861 712.453 875.053 711.296C873.245 710.139 871.36 709.123 869.399 708.25C860.842 704.383 851.441 701.498 842.192 698.659L842.191 698.659L842.19 698.658C838.338 697.476 834.513 696.302 830.786 695.069C827.311 693.919 823.811 692.665 820.293 691.406L820.291 691.405C812.732 688.699 805.091 685.963 797.452 684.158C793.29 683.174 789.051 682.667 784.778 682.972C783.341 683.078 781.905 683.205 780.471 683.353C773.126 685.285 766.692 688.117 761.428 692.685C761.194 693.113 760.967 693.544 760.746 693.979C760.391 694.678 760.053 695.386 759.732 696.103C759.411 696.82 759.109 697.544 758.824 698.276C758.54 699.007 758.274 699.745 758.026 700.49C757.778 701.235 757.549 701.985 757.338 702.742C757.127 703.498 756.936 704.259 756.763 705.025C756.59 705.79 756.437 706.56 756.302 707.333C756.167 708.106 756.052 708.883 755.956 709.662C755.859 710.441 755.782 711.222 755.725 712.005C755.668 712.788 755.63 713.571 755.611 714.356C755.593 715.141 755.594 715.925 755.614 716.71C755.635 717.495 755.675 718.278 755.734 719.061C755.793 719.844 755.872 720.625 755.97 721.404C756.068 722.183 756.185 722.958 756.322 723.731C756.459 724.504 756.614 725.274 756.789 726.039C756.964 726.804 757.157 727.565 757.37 728.32C760.685 740.567 768.285 751.354 779.361 757.655C787.778 762.443 799.847 766.384 810.641 769.908C814.321 771.11 817.853 772.263 821.042 773.385C824.239 774.509 827.466 775.719 830.712 776.936L830.714 776.937C838.605 779.896 846.611 782.898 854.58 784.819C859.083 785.904 865.508 787.122 870.102 785.965C870.397 785.891 870.49 785.833 870.679 785.715C870.71 785.696 870.742 785.675 870.779 785.653Z" fill="white"/>
<path fill-rule="evenodd" clip-rule="evenodd" d="M124.932 610.674C120.562 619.163 119.591 629.309 121.544 638.594C123.779 649.216 129.698 658.92 138.873 664.91C145.308 669.112 152.702 670.964 160.35 670.073C165.998 668.789 170.829 666.675 174.889 663.344C179.368 654.794 180.17 644.681 178.045 635.295C175.689 624.891 169.405 614.816 160.253 609.117C153.91 605.167 146.796 603.554 139.374 604.298C133.88 605.391 129.009 607.412 124.932 610.674Z" fill="white"/>
<path fill-rule="evenodd" clip-rule="evenodd" d="M160.253 609.117C153.91 605.167 146.796 603.554 139.374 604.298C133.88 605.391 129.009 607.412 124.932 610.674C120.562 619.163 119.591 629.309 121.544 638.594C123.779 649.216 129.698 658.92 138.873 664.91C145.308 669.112 152.702 670.964 160.35 670.073C165.998 668.789 170.829 666.675 174.889 663.344C179.368 654.794 180.17 644.681 178.045 635.295C175.689 624.891 169.405 614.816 160.253 609.117Z" fill="white"/>
<path fill-rule="evenodd" clip-rule="evenodd" d="M231.496 631.953C227.632 631.081 223.966 630.772 220.005 631.065C213.75 632.354 208.402 634.441 203.921 638.096C199.48 646.595 198.505 656.807 200.427 666.132C202.537 676.366 208.736 686.673 217.587 692.442C224.085 696.678 273.136 714.093 281.485 715.891C286.113 716.889 290.275 717.072 294.954 716.331C300.627 714.911 305.538 712.639 309.655 709.203C314.425 700.261 315.392 689.727 312.942 679.902C310.314 669.365 303.654 659.261 294.234 653.636C286.829 649.214 276.544 646.169 267.117 643.378C263.669 642.357 260.336 641.371 257.3 640.363C254.668 639.49 252.018 638.536 249.354 637.577C243.452 635.452 237.483 633.303 231.496 631.953Z" fill="white"/>
<path fill-rule="evenodd" clip-rule="evenodd" d="M294.954 716.331C300.627 714.911 305.538 712.639 309.655 709.203C314.425 700.261 315.392 689.727 312.942 679.902C310.314 669.365 303.654 659.261 294.234 653.636C286.829 649.214 276.544 646.169 267.117 643.378C263.669 642.357 260.336 641.371 257.3 640.363C254.668 639.49 252.018 638.536 249.354 637.577C243.452 635.452 237.483 633.303 231.496 631.953C227.632 631.081 223.966 630.772 220.005 631.065C213.75 632.354 208.402 634.441 203.921 638.096C199.48 646.595 198.505 656.807 200.427 666.132C202.537 676.366 208.736 686.673 217.587 692.442C224.085 696.678 273.136 714.093 281.485 715.891C286.113 716.889 290.275 717.072 294.954 716.331Z" fill="white"/>
<path fill-rule="evenodd" clip-rule="evenodd" d="M339.923 685.187C335.433 693.511 334.199 703.402 336.007 712.678C338.175 723.801 344.403 733.934 353.864 740.306C361.507 745.454 375.681 750.016 387.3 753.755L387.304 753.756C391.014 754.95 394.464 756.06 397.357 757.079C399.952 757.992 402.561 758.989 405.183 759.992C411.235 762.305 417.359 764.645 423.542 766.047C427.604 766.969 431.452 767.136 435.588 766.686C436.167 766.621 436.745 766.542 437.321 766.448C437.896 766.355 438.469 766.247 439.039 766.125C439.61 766.002 440.177 765.866 440.74 765.716C441.303 765.565 441.862 765.401 442.417 765.222C442.972 765.043 443.523 764.851 444.068 764.645C444.614 764.44 445.154 764.22 445.689 763.987C446.224 763.754 446.752 763.508 447.274 763.249C447.796 762.99 448.312 762.717 448.821 762.432C449.33 762.147 449.831 761.849 450.324 761.539C450.818 761.229 451.304 760.907 451.782 760.573C452.259 760.238 452.728 759.892 453.189 759.534C453.65 759.176 454.101 758.807 454.543 758.427C454.576 758.398 454.609 758.37 454.642 758.341C458.703 750.844 460.081 742.082 458.994 733.569C458.905 732.852 458.798 732.138 458.674 731.427C458.55 730.716 458.408 730.009 458.249 729.304C458.09 728.6 457.914 727.9 457.721 727.204C457.528 726.509 457.317 725.818 457.09 725.133C456.863 724.448 456.619 723.768 456.358 723.095C456.097 722.422 455.82 721.755 455.526 721.095C455.233 720.436 454.923 719.784 454.598 719.139C454.273 718.494 453.932 717.858 453.575 717.231C453.218 716.603 452.846 715.984 452.459 715.375C452.072 714.766 451.67 714.166 451.253 713.576C450.836 712.987 450.406 712.408 449.961 711.839C449.516 711.27 449.057 710.713 448.584 710.167C448.112 709.621 447.627 709.087 447.128 708.565C446.629 708.043 446.118 707.533 445.594 707.036C445.071 706.539 444.535 706.056 443.987 705.585C443.44 705.114 442.881 704.657 442.311 704.214C440.853 703.097 439.329 702.079 437.738 701.16C436.148 700.241 434.505 699.428 432.809 698.722C426.073 695.855 418.885 693.658 411.754 691.479C408.311 690.426 404.881 689.378 401.521 688.26C398.338 687.201 395.128 686.037 391.901 684.867C384.781 682.285 377.572 679.672 370.359 678.076C366.33 677.184 362.384 676.837 358.258 677.174C351.109 678.536 345.005 680.889 339.923 685.187Z" fill="white"/>
<path fill-rule="evenodd" clip-rule="evenodd" d="M370.359 678.076C366.33 677.184 362.384 676.837 358.258 677.174C351.109 678.536 345.005 680.889 339.923 685.187C335.433 693.511 334.199 703.402 336.007 712.678C338.175 723.801 344.403 733.934 353.864 740.306C361.507 745.454 375.681 750.016 387.3 753.755L387.304 753.756C391.014 754.95 394.464 756.06 397.357 757.079C399.952 757.992 402.561 758.989 405.183 759.992C411.235 762.305 417.359 764.645 423.542 766.047C427.604 766.969 431.452 767.136 435.588 766.686C436.167 766.621 436.745 766.542 437.321 766.448C437.896 766.355 438.469 766.247 439.039 766.125C439.61 766.002 440.177 765.866 440.74 765.716C441.303 765.565 441.862 765.401 442.417 765.222C442.972 765.043 443.523 764.851 444.068 764.645C444.614 764.44 445.154 764.22 445.689 763.987C446.224 763.754 446.752 763.508 447.274 763.249C447.796 762.99 448.312 762.717 448.821 762.432C449.33 762.147 449.831 761.849 450.324 761.539C450.818 761.229 451.304 760.907 451.782 760.573C452.259 760.238 452.728 759.892 453.189 759.534C453.65 759.176 454.101 758.807 454.543 758.427L454.642 758.341C458.703 750.844 460.081 742.082 458.994 733.569C458.905 732.852 458.798 732.138 458.674 731.427C458.55 730.716 458.408 730.009 458.249 729.304C458.09 728.6 457.914 727.9 457.721 727.204C457.528 726.509 457.317 725.818 457.09 725.133C456.863 724.448 456.619 723.768 456.358 723.095C456.097 722.422 455.82 721.755 455.526 721.095C455.233 720.436 454.923 719.784 454.598 719.139C454.273 718.494 453.932 717.858 453.575 717.231C453.218 716.603 452.846 715.984 452.459 715.375C452.072 714.766 451.67 714.166 451.253 713.576C450.836 712.987 450.406 712.408 449.961 711.839C449.516 711.27 449.057 710.713 448.584 710.167C448.112 709.621 447.627 709.087 447.128 708.565C446.629 708.043 446.118 707.533 445.594 707.036C445.071 706.539 444.535 706.056 443.987 705.585C443.44 705.114 442.881 704.657 442.311 704.214C440.853 703.097 439.329 702.079 437.738 701.16C436.148 700.241 434.505 699.428 432.809 698.722C426.073 695.855 418.885 693.658 411.754 691.479C408.311 690.426 404.881 689.378 401.521 688.26C398.338 687.201 395.128 686.037 391.901 684.867C384.781 682.285 377.572 679.672 370.359 678.076Z" fill="white"/>
<path fill-rule="evenodd" clip-rule="evenodd" d="M561.806 737.798C554.165 731.004 545.398 728.198 535.278 728.353C528.184 729.592 522.14 731.783 517.093 736.003C512.288 744.859 510.946 755.426 512.697 765.327C514.772 777.06 521.201 788.212 531.086 795.033C537.349 799.355 544.571 801.753 552.207 801.568C559.829 801.147 566.667 798.665 572.303 793.847C576.142 786.737 577.72 778.391 577.261 770.369C576.565 758.205 570.948 745.925 561.806 737.798Z" fill="white"/>
<path fill-rule="evenodd" clip-rule="evenodd" d="M552.207 801.568C559.829 801.147 566.667 798.665 572.303 793.847C576.142 786.737 577.72 778.391 577.261 770.369C576.565 758.205 570.948 745.925 561.806 737.798C554.165 731.004 545.398 728.198 535.278 728.353C528.184 729.592 522.14 731.783 517.093 736.003C512.288 744.859 510.946 755.426 512.697 765.327C514.772 777.06 521.201 788.212 531.086 795.033C537.349 799.355 544.571 801.753 552.207 801.568Z" fill="white"/>
<path fill-rule="evenodd" clip-rule="evenodd" d="M831.087 842.596C825.764 851.977 823.996 863.205 825.603 873.862C827.6 887.108 834.774 899.74 845.62 907.726C852.921 913.102 863.279 916.934 872.445 915.844C881.338 915.249 889.469 911.977 895.984 906.143C900.41 898.281 902.409 888.848 901.832 880.02C901.779 879.164 901.706 878.31 901.611 877.457C901.516 876.604 901.401 875.754 901.265 874.907C901.129 874.06 900.972 873.216 900.795 872.377C900.618 871.538 900.42 870.703 900.203 869.873C899.985 869.044 899.747 868.22 899.488 867.401C899.23 866.583 898.952 865.772 898.655 864.967C898.357 864.162 898.04 863.366 897.704 862.577C897.367 861.788 897.012 861.007 896.637 860.235C896.262 859.463 895.869 858.701 895.457 857.948C895.046 857.196 894.616 856.454 894.168 855.722C893.72 854.991 893.254 854.27 892.771 853.561C892.288 852.852 891.788 852.156 891.271 851.471C890.754 850.786 890.22 850.115 889.67 849.456C889.12 848.797 888.554 848.153 887.973 847.522C887.392 846.891 886.795 846.275 886.184 845.673C885.573 845.071 884.947 844.484 884.307 843.913C875.406 836.121 864.832 832.725 853.103 833.174C844.646 834.46 837.173 837.242 831.087 842.596Z" fill="white"/>
<path fill-rule="evenodd" clip-rule="evenodd" d="M884.307 843.913C875.406 836.121 864.832 832.725 853.103 833.174C844.646 834.46 837.173 837.242 831.087 842.596C825.764 851.977 823.996 863.205 825.603 873.862C827.6 887.108 834.774 899.74 845.62 907.726C852.921 913.102 863.279 916.934 872.445 915.844C881.338 915.249 889.469 911.977 895.984 906.143C900.41 898.281 902.409 888.848 901.832 880.02C901.779 879.164 901.706 878.31 901.611 877.457C901.516 876.604 901.401 875.754 901.265 874.907C901.129 874.06 900.972 873.216 900.795 872.377C900.618 871.538 900.42 870.703 900.203 869.873C899.985 869.044 899.747 868.22 899.488 867.401C899.23 866.583 898.952 865.772 898.655 864.967C898.357 864.162 898.04 863.366 897.704 862.577C897.367 861.788 897.012 861.007 896.637 860.235C896.262 859.463 895.869 858.701 895.457 857.948C895.046 857.196 894.616 856.454 894.168 855.722C893.72 854.991 893.254 854.27 892.771 853.561C892.288 852.852 891.788 852.156 891.271 851.471C890.754 850.786 890.22 850.115 889.67 849.456C889.12 848.797 888.554 848.153 887.973 847.522C887.392 846.891 886.795 846.275 886.184 845.673C885.573 845.071 884.947 844.484 884.307 843.913Z" fill="white"/>
</svg>
