<svg width="16" height="16" viewBox="0 0 16 16" fill="none" xmlns="http://www.w3.org/2000/svg">
<path d="M14.1356 10.1586C9.04697 8.47528 3.8285 6.74687 1.23066 5.88062C1.23066 5.88062 0.697325 9.59193 1.40103 10.1586C2.10474 10.7252 9.04697 12.9197 14.1356 14.603V10.1586Z" fill="#FBB630"/>
<path d="M14.9557 9.73413C14.8359 9.93866 14.612 10.1024 14.1356 10.1586V14.603C14.4603 14.6695 14.8933 14.439 14.9557 14.1786V9.73413Z" fill="#FF9820"/>
<path d="M9.46436 1.57323C8.14251 0.632478 1.98621 3.25471 1.23065 5.88063C3.82849 6.74689 9.04697 8.4753 14.1356 10.1586C14.612 10.1024 14.8359 9.93871 14.9557 9.73417C14.9557 9.73417 10.7862 2.51397 9.46436 1.57323Z" fill="#FFE320"/>
<mask id="mask0_43_439" style="mask-type:alpha" maskUnits="userSpaceOnUse" x="1" y="6" width="13" height="8">
<path d="M2.27799 8.797C2.39679 8.81115 2.49746 8.84476 2.58921 8.92433C2.59743 8.93158 2.60546 8.93903 2.6133 8.94667C2.62115 8.95432 2.62881 8.96214 2.63628 8.97015C2.64374 8.97818 2.651 8.98638 2.65805 8.99475C2.66512 9.00313 2.67198 9.01168 2.67862 9.02039C2.68525 9.0291 2.69168 9.03797 2.69788 9.047C2.70408 9.05603 2.71005 9.06522 2.71582 9.07454C2.72157 9.08386 2.72709 9.09332 2.73237 9.10292C2.73765 9.11251 2.74271 9.12223 2.74754 9.13206C2.75234 9.14192 2.7569 9.15187 2.76122 9.16195C2.76554 9.172 2.76961 9.18218 2.77343 9.19243C2.77725 9.20272 2.78082 9.21307 2.78414 9.22352C2.78745 9.23396 2.7905 9.24448 2.7933 9.25507C2.7961 9.26566 2.79862 9.27633 2.8009 9.28704C2.80317 9.29775 2.80517 9.30852 2.80691 9.31935C2.80865 9.33017 2.81013 9.34103 2.81133 9.3519C2.81254 9.36281 2.81348 9.37371 2.81414 9.38464C2.82425 9.53811 2.78211 9.70064 2.67909 9.81735C2.58782 9.92073 2.47115 9.96713 2.33595 9.9756C2.20731 9.97398 2.07977 9.91663 1.98635 9.82965C1.85884 9.71097 1.78734 9.53512 1.78238 9.36229C1.77797 9.20995 1.82654 9.04802 1.93288 8.93602C2.02799 8.83586 2.14432 8.80098 2.27799 8.797Z" fill="#D9D8D8"/>
<path d="M7.43955 10.6583C7.44132 10.6581 7.44312 10.6579 7.44491 10.6577C7.56769 10.645 7.69826 10.6926 7.79312 10.7691C7.92916 10.8789 8.0142 11.0487 8.03175 11.2217C8.04765 11.3783 8.00916 11.5462 7.90778 11.6693C7.82746 11.7667 7.71852 11.823 7.59309 11.8353C7.58884 11.8359 7.58458 11.8365 7.58032 11.8369C7.45867 11.8501 7.33174 11.7994 7.23836 11.724C7.10386 11.6154 7.01863 11.4482 7.00081 11.277C6.98439 11.1193 7.02255 10.9486 7.12395 10.8242C7.20381 10.7262 7.31515 10.6713 7.43955 10.6583Z" fill="#D9D8D8"/>
<path d="M8.686 11.09L8.69184 11.0895C8.84105 11.0761 8.98934 11.1286 9.10248 11.2254C9.23728 11.3407 9.32145 11.514 9.33417 11.6905C9.34547 11.8472 9.30097 12.0136 9.19655 12.1333C9.10551 12.2376 8.98332 12.2937 8.84627 12.303C8.74658 12.3237 8.60064 12.2664 8.51839 12.2125C8.37431 12.118 8.27436 11.9552 8.24025 11.7877C8.20765 11.6276 8.23237 11.4515 8.32421 11.3143C8.41224 11.1827 8.53425 11.1201 8.686 11.09Z" fill="#D9D8D8"/>
<path d="M9.99696 11.5542C10.1717 11.5398 10.3288 11.5729 10.468 11.6845C10.4768 11.6917 10.4854 11.6991 10.4938 11.7067C10.5022 11.7143 10.5104 11.7221 10.5184 11.73C10.5265 11.738 10.5343 11.7462 10.5419 11.7546C10.5496 11.7629 10.557 11.7715 10.5642 11.7802C10.5714 11.789 10.5784 11.7979 10.5852 11.8069C10.592 11.816 10.5985 11.8253 10.6049 11.8346C10.6112 11.844 10.6173 11.8536 10.6232 11.8633C10.629 11.873 10.6347 11.8828 10.6401 11.8927C10.6454 11.9027 10.6506 11.9128 10.6555 11.923C10.6604 11.9332 10.665 11.9436 10.6694 11.954C10.6738 11.9645 10.6779 11.975 10.6818 11.9857C10.6857 11.9963 10.6893 12.007 10.6927 12.0179C10.696 12.0287 10.6991 12.0396 10.7019 12.0505C10.7047 12.0615 10.7073 12.0725 10.7096 12.0837C10.7119 12.0947 10.7139 12.1059 10.7156 12.1171C10.7173 12.1283 10.7188 12.1395 10.72 12.1508C10.7366 12.3104 10.6959 12.4768 10.5934 12.6021C10.5881 12.6087 10.5825 12.6153 10.5769 12.6217C10.5712 12.628 10.5654 12.6343 10.5594 12.6404C10.5534 12.6465 10.5473 12.6524 10.541 12.6582C10.5347 12.664 10.5283 12.6697 10.5217 12.6752C10.5152 12.6807 10.5085 12.686 10.5016 12.6911C10.4948 12.6963 10.4879 12.7013 10.4808 12.7061C10.4738 12.7109 10.4666 12.7155 10.4593 12.72C10.452 12.7245 10.4446 12.7287 10.4371 12.7328C10.4296 12.7369 10.422 12.7408 10.4143 12.7446C10.4066 12.7483 10.3988 12.7518 10.391 12.7551C10.3831 12.7585 10.3751 12.7616 10.3671 12.7646C10.3591 12.7675 10.351 12.7703 10.3428 12.7728C10.3347 12.7754 10.3265 12.7777 10.3182 12.7799C10.3099 12.782 10.3016 12.784 10.2932 12.7857C10.2849 12.7875 10.2765 12.789 10.268 12.7903C10.2596 12.7916 10.2511 12.7927 10.2426 12.7937C10.2395 12.7948 10.2351 12.7966 10.2316 12.7974C10.1205 12.8224 9.96904 12.774 9.87336 12.719C9.86375 12.7134 9.85428 12.7076 9.84495 12.7015C9.83563 12.6954 9.82646 12.6891 9.81744 12.6826C9.80843 12.6761 9.79959 12.6694 9.7909 12.6624C9.78221 12.6555 9.7737 12.6483 9.76538 12.6409C9.75705 12.6336 9.7489 12.626 9.74096 12.6182C9.73301 12.6104 9.72524 12.6025 9.71767 12.5943C9.7101 12.5861 9.70276 12.5778 9.6956 12.5693C9.68846 12.5608 9.68151 12.5521 9.67479 12.5432C9.66807 12.5343 9.66157 12.5253 9.6553 12.5161C9.64902 12.507 9.64298 12.4976 9.63714 12.4881C9.63133 12.4787 9.62575 12.469 9.62042 12.4593C9.61507 12.4495 9.60997 12.4396 9.60511 12.4296C9.60027 12.4196 9.59566 12.4095 9.5913 12.3993C9.58695 12.389 9.58284 12.3787 9.57899 12.3682C9.57516 12.3578 9.57157 12.3473 9.56825 12.3366C9.56492 12.326 9.56185 12.3153 9.55905 12.3046C9.51569 12.1409 9.53434 11.9601 9.62098 11.8133C9.70858 11.665 9.83458 11.596 9.99696 11.5542Z" fill="#D9D8D8"/>
<path d="M5.60669 9.98104C5.7571 9.97098 5.89085 9.99498 6.01892 10.0781C6.16834 10.175 6.27664 10.3388 6.31274 10.5127C6.34608 10.6733 6.32034 10.848 6.22866 10.9856C6.13806 11.1216 6.00509 11.1935 5.84797 11.225C5.8395 11.2259 5.83101 11.2267 5.82251 11.2273C5.814 11.2279 5.8055 11.2284 5.79697 11.2286C5.78845 11.2288 5.77993 11.2289 5.77141 11.2288C5.76288 11.2287 5.75436 11.2284 5.74584 11.228C5.73734 11.2275 5.72885 11.2269 5.72036 11.2261C5.71187 11.2253 5.7034 11.2243 5.69495 11.2231C5.68651 11.222 5.67809 11.2206 5.66971 11.2191C5.66132 11.2176 5.65295 11.2159 5.64464 11.2141C5.63632 11.2122 5.62805 11.2102 5.61981 11.208C5.61157 11.2058 5.60338 11.2034 5.59523 11.2009C5.5871 11.1984 5.57901 11.1957 5.571 11.1928C5.56297 11.1899 5.555 11.1869 5.5471 11.1837C5.53919 11.1805 5.53135 11.1771 5.52359 11.1736C5.51583 11.1701 5.50815 11.1664 5.50054 11.1626C5.49292 11.1587 5.4854 11.1547 5.47796 11.1506C5.47051 11.1464 5.46314 11.1421 5.45589 11.1377C5.44643 11.1318 5.43714 11.1257 5.42799 11.1194C5.41885 11.1131 5.40986 11.1065 5.40103 11.0998C5.3922 11.093 5.38354 11.0861 5.37506 11.0789C5.36658 11.0717 5.35827 11.0643 5.35015 11.0567C5.34202 11.0491 5.33409 11.0413 5.32634 11.0334C5.31861 11.0254 5.31106 11.0172 5.30372 11.0089C5.29637 11.0005 5.28923 10.992 5.28232 10.9833C5.2754 10.9746 5.26869 10.9657 5.2622 10.9567C5.25571 10.9477 5.24944 10.9385 5.24341 10.9292C5.23737 10.9199 5.23156 10.9104 5.22597 10.9008C5.2204 10.8911 5.21507 10.8814 5.20996 10.8715C5.20486 10.8616 5.20002 10.8516 5.19541 10.8415C5.1908 10.8314 5.18645 10.8212 5.18234 10.8108C5.17824 10.8005 5.17439 10.7901 5.17079 10.7795C5.16719 10.769 5.16386 10.7584 5.16077 10.7477C5.15771 10.7371 5.15489 10.7263 5.15234 10.7155C5.11329 10.5509 5.1343 10.3746 5.22458 10.23C5.31495 10.0853 5.44457 10.0181 5.60669 9.98104Z" fill="#D9D8D8"/>
<path d="M11.9996 12.163C12.1625 12.1506 12.3165 12.1965 12.4419 12.3025C12.4509 12.3102 12.4597 12.3181 12.4683 12.3263C12.4769 12.3344 12.4852 12.3427 12.4934 12.3513C12.5016 12.3598 12.5096 12.3686 12.5173 12.3775C12.5251 12.3864 12.5326 12.3956 12.5399 12.4049C12.5472 12.4142 12.5543 12.4237 12.5611 12.4333C12.568 12.443 12.5745 12.4528 12.5809 12.4628C12.5873 12.4728 12.5934 12.4829 12.5992 12.4932C12.6051 12.5034 12.6107 12.5139 12.616 12.5244C12.6214 12.535 12.6265 12.5456 12.6313 12.5564C12.6361 12.5672 12.6407 12.5782 12.645 12.5892C12.6493 12.6002 12.6533 12.6113 12.6571 12.6226C12.6608 12.6338 12.6643 12.6451 12.6674 12.6565C12.6706 12.6679 12.6735 12.6793 12.6762 12.6909C12.6788 12.7024 12.6811 12.714 12.6832 12.7257C12.6853 12.7373 12.687 12.749 12.6885 12.7607C12.69 12.7725 12.6912 12.7843 12.6921 12.796C12.7056 12.9606 12.6604 13.1354 12.5523 13.2623C12.4557 13.3755 12.3286 13.4364 12.1815 13.4486C12.0682 13.4658 11.931 13.418 11.8362 13.3581C11.6831 13.2612 11.5763 13.0953 11.5368 12.9198C11.4974 12.7452 11.5229 12.5582 11.6199 12.4062C11.7108 12.2638 11.8385 12.1985 11.9996 12.163Z" fill="#D9D8D8"/>
<path d="M2.35261 6.97533C2.3995 6.97188 2.44433 6.97684 2.48989 6.98771C2.60375 7.01488 2.71655 7.06327 2.82765 7.10097C2.98624 7.15479 3.33328 7.24755 3.4602 7.33746C3.60097 7.43718 3.6963 7.59973 3.72602 7.76854C3.75384 7.92648 3.72396 8.10168 3.63054 8.23398C3.54658 8.35293 3.4307 8.41562 3.28892 8.44011C3.22592 8.44546 3.16984 8.44002 3.10882 8.42502C2.99274 8.3965 2.87775 8.34263 2.76512 8.30161C2.60033 8.24159 2.42637 8.18914 2.26716 8.11682C2.21814 8.09454 2.17197 8.06774 2.12996 8.03391C1.99914 7.92856 1.92014 7.75948 1.90316 7.5942C1.88686 7.43558 1.92614 7.26795 2.028 7.14297C2.1123 7.03953 2.22194 6.98862 2.35261 6.97533Z" fill="#D9D8D8"/>
<path d="M3.44668 9.23097C3.50697 9.22702 3.56206 9.22942 3.62111 9.24279C3.78326 9.27944 3.94636 9.34701 4.10396 9.40108C4.26485 9.45627 4.44783 9.50171 4.59682 9.58252C4.74766 9.6643 4.85637 9.81042 4.90423 9.9744C4.95113 10.1351 4.9407 10.3115 4.8588 10.4591C4.77691 10.6068 4.65535 10.6802 4.49701 10.7259C4.4256 10.7314 4.3602 10.7315 4.28996 10.7156C4.16082 10.6862 4.03328 10.6265 3.90849 10.5811C3.74131 10.5204 3.44103 10.433 3.29762 10.3412C3.15569 10.2503 3.05774 10.0979 3.02208 9.93434C2.9866 9.77162 3.00946 9.59357 3.10068 9.45228C3.18399 9.32322 3.29978 9.2622 3.44668 9.23097Z" fill="#D9D8D8"/>
<path d="M7.27288 8.64732C7.32953 8.64181 7.38648 8.64855 7.44153 8.66169C7.57493 8.69351 7.70741 8.75129 7.83751 8.79597C8.00148 8.85231 8.17633 8.90049 8.33462 8.97034C8.3849 8.99252 8.43443 9.02115 8.47689 9.05615C8.61965 9.17382 8.70473 9.35961 8.72125 9.54191C8.73605 9.70529 8.69132 9.87918 8.58513 10.0063C8.50616 10.1008 8.38925 10.1698 8.26568 10.1807C8.2624 10.1818 8.25815 10.1833 8.25462 10.184C8.20418 10.1938 8.14048 10.1835 8.09122 10.1714C7.95808 10.1388 7.82545 10.0788 7.69653 10.0319C7.52893 9.97095 7.23653 9.89169 7.09631 9.79353C6.9515 9.69213 6.85565 9.51847 6.82728 9.34612C6.79895 9.17394 6.83139 8.98575 6.93532 8.8431C7.01892 8.72836 7.13456 8.66878 7.27288 8.64732Z" fill="#D9D8D8"/>
<path d="M4.41271 7.68896C4.47068 7.68441 4.52785 7.68984 4.58435 7.70298C4.71863 7.73422 4.85086 7.79033 4.98163 7.83462C5.165 7.89673 5.51192 7.98872 5.66546 8.09378C5.80969 8.19246 5.91078 8.35892 5.94274 8.52972C5.97324 8.69286 5.94376 8.86427 5.84823 9.00163C5.75798 9.13141 5.62853 9.2045 5.47484 9.23231C5.40659 9.24244 5.33209 9.23539 5.26534 9.21917C5.13029 9.18635 4.99838 9.12443 4.86777 9.07628C4.68551 9.00905 4.36333 8.91684 4.21229 8.81342C4.06826 8.71478 3.97275 8.55567 3.94121 8.38504C3.91121 8.22268 3.94259 8.04587 4.03694 7.90905C4.12977 7.77446 4.25609 7.71718 4.41271 7.68896Z" fill="#D9D8D8"/>
<path d="M9.41412 9.38938C9.47806 9.38631 9.53773 9.39338 9.59975 9.40844C9.76179 9.44778 9.92239 9.51609 10.0803 9.57084C10.2346 9.62434 10.3983 9.66932 10.5476 9.73486C10.5718 9.7452 10.5953 9.757 10.618 9.77026C10.6407 9.78351 10.6625 9.7981 10.6835 9.81404C10.8304 9.92711 10.9264 10.1042 10.9494 10.2875C10.9707 10.4573 10.9313 10.637 10.8251 10.7734C10.7304 10.895 10.6041 10.9599 10.4527 10.979C10.395 10.9889 10.33 10.9803 10.2735 10.9664C10.1521 10.9364 10.0343 10.8822 9.9167 10.8397C9.72772 10.7713 9.37083 10.6664 9.2212 10.5663C9.07212 10.4666 8.97298 10.302 8.93846 10.1275C8.90372 9.95166 8.9339 9.76583 9.03462 9.6162C9.12729 9.47852 9.25511 9.41985 9.41412 9.38938Z" fill="#D9D8D8"/>
<path d="M11.677 10.1808C11.749 10.1755 11.8174 10.1816 11.8876 10.1983C12.0401 10.2346 12.1926 10.3017 12.3413 10.3527C12.5344 10.4189 12.7416 10.475 12.9272 10.5587C12.9796 10.5824 13.0261 10.6121 13.0698 10.6495C13.0791 10.6573 13.0882 10.6653 13.097 10.6736C13.1059 10.6819 13.1145 10.6904 13.1229 10.6991C13.1314 10.7078 13.1396 10.7167 13.1476 10.7257C13.1556 10.7348 13.1634 10.7441 13.1709 10.7536C13.1785 10.7631 13.1858 10.7728 13.1929 10.7826C13.1999 10.7924 13.2068 10.8024 13.2134 10.8126C13.2199 10.8228 13.2263 10.8331 13.2324 10.8436C13.2384 10.8541 13.2442 10.8647 13.2498 10.8755C13.2554 10.8862 13.2606 10.8971 13.2657 10.9081C13.2707 10.9192 13.2755 10.9303 13.2799 10.9416C13.2844 10.9528 13.2886 10.9642 13.2925 10.9757C13.2965 10.9871 13.3001 10.9987 13.3035 11.0103C13.3068 11.022 13.3099 11.0337 13.3127 11.0455C13.3154 11.0573 13.3179 11.0691 13.3201 11.0811C13.3223 11.093 13.3242 11.1049 13.3259 11.1169C13.3275 11.1289 13.3288 11.141 13.3298 11.1531C13.3433 11.3261 13.2929 11.5009 13.1787 11.633C13.1726 11.64 13.1664 11.6468 13.1599 11.6535C13.1535 11.6602 13.1469 11.6668 13.1401 11.6731C13.1333 11.6795 13.1264 11.6857 13.1194 11.6918C13.1123 11.6978 13.1051 11.7036 13.0977 11.7093C13.0903 11.715 13.0828 11.7205 13.0752 11.7258C13.0676 11.7311 13.0598 11.7362 13.0519 11.7411C13.044 11.746 13.036 11.7507 13.0279 11.7553C13.0198 11.7598 13.0116 11.7641 13.0032 11.7682C12.9949 11.7723 12.9865 11.7762 12.978 11.7799C12.9694 11.7836 12.9608 11.7871 12.9521 11.7904C12.9434 11.7936 12.9346 11.7967 12.9258 11.7995C12.9169 11.8024 12.908 11.805 12.899 11.8074C12.8901 11.8098 12.881 11.812 12.872 11.8139C12.8629 11.8158 12.8537 11.8176 12.8446 11.8191C12.8354 11.8205 12.8262 11.8218 12.817 11.8229C12.8077 11.8239 12.7985 11.8247 12.7892 11.8253C12.7273 11.8363 12.6559 11.8259 12.5953 11.8108C12.4664 11.7789 12.3381 11.7208 12.213 11.6757C12.0194 11.6059 11.6295 11.4898 11.4744 11.386C11.3203 11.2828 11.2148 11.1143 11.1792 10.9333C11.1451 10.7601 11.1755 10.5715 11.2756 10.4244C11.3738 10.28 11.5091 10.2127 11.677 10.1808Z" fill="#D9D8D8"/>
</mask>
<g mask="url(#mask0_43_439)">
<path d="M2.27799 8.797C2.39679 8.81115 2.49746 8.84476 2.58921 8.92433C2.59743 8.93158 2.60546 8.93903 2.6133 8.94667C2.62115 8.95432 2.62881 8.96214 2.63628 8.97015C2.64374 8.97818 2.651 8.98638 2.65805 8.99475C2.66512 9.00313 2.67198 9.01168 2.67862 9.02039C2.68525 9.0291 2.69168 9.03797 2.69788 9.047C2.70408 9.05603 2.71005 9.06522 2.71582 9.07454C2.72157 9.08386 2.72709 9.09332 2.73237 9.10292C2.73765 9.11251 2.74271 9.12223 2.74754 9.13206C2.75234 9.14192 2.7569 9.15187 2.76122 9.16195C2.76554 9.172 2.76961 9.18218 2.77343 9.19243C2.77725 9.20272 2.78082 9.21307 2.78414 9.22352C2.78745 9.23396 2.7905 9.24448 2.7933 9.25507C2.7961 9.26566 2.79862 9.27633 2.8009 9.28704C2.80317 9.29775 2.80517 9.30852 2.80691 9.31935C2.80865 9.33017 2.81013 9.34103 2.81133 9.3519C2.81254 9.36281 2.81348 9.37371 2.81414 9.38464C2.82425 9.53811 2.78211 9.70064 2.67909 9.81735C2.58782 9.92073 2.47115 9.96713 2.33595 9.9756C2.20731 9.97398 2.07977 9.91663 1.98635 9.82965C1.85884 9.71097 1.78734 9.53512 1.78238 9.36229C1.77797 9.20995 1.82654 9.04802 1.93288 8.93602C2.02799 8.83586 2.14432 8.80098 2.27799 8.797Z" fill="#FFCA64"/>
<path d="M7.43955 10.6582C7.44132 10.658 7.44312 10.6577 7.44491 10.6575C7.56769 10.6449 7.69826 10.6924 7.79312 10.769C7.92916 10.8788 8.0142 11.0486 8.03175 11.2215C8.04765 11.3782 8.00916 11.5461 7.90778 11.6691C7.82746 11.7666 7.71852 11.8229 7.59309 11.8351C7.58884 11.8358 7.58458 11.8363 7.58032 11.8368C7.45867 11.85 7.33174 11.7993 7.23836 11.7239C7.10386 11.6153 7.01863 11.448 7.00081 11.2768C6.98439 11.1192 7.02255 10.9485 7.12395 10.8241C7.20381 10.7261 7.31515 10.6712 7.43955 10.6582Z" fill="#FFCA64"/>
<path d="M8.686 11.09L8.69184 11.0895C8.84105 11.0761 8.98934 11.1286 9.10248 11.2254C9.23728 11.3407 9.32145 11.514 9.33417 11.6905C9.34547 11.8472 9.30097 12.0136 9.19655 12.1333C9.10551 12.2376 8.98332 12.2937 8.84627 12.303C8.74658 12.3237 8.60064 12.2664 8.51839 12.2125C8.37431 12.118 8.27436 11.9552 8.24025 11.7877C8.20765 11.6276 8.23237 11.4515 8.32421 11.3143C8.41224 11.1827 8.53425 11.1201 8.686 11.09Z" fill="#FFCA64"/>
<path d="M9.99696 11.5542C10.1717 11.5398 10.3288 11.5729 10.468 11.6845C10.4768 11.6917 10.4854 11.6991 10.4938 11.7067C10.5022 11.7143 10.5104 11.7221 10.5184 11.73C10.5265 11.738 10.5343 11.7462 10.5419 11.7546C10.5496 11.7629 10.557 11.7715 10.5642 11.7802C10.5714 11.789 10.5784 11.7979 10.5852 11.8069C10.592 11.816 10.5985 11.8253 10.6049 11.8346C10.6112 11.844 10.6173 11.8536 10.6232 11.8633C10.629 11.873 10.6347 11.8828 10.6401 11.8927C10.6454 11.9027 10.6506 11.9128 10.6555 11.923C10.6604 11.9332 10.665 11.9436 10.6694 11.954C10.6738 11.9645 10.6779 11.975 10.6818 11.9857C10.6857 11.9963 10.6893 12.007 10.6927 12.0179C10.696 12.0287 10.6991 12.0396 10.7019 12.0505C10.7047 12.0615 10.7073 12.0725 10.7096 12.0837C10.7119 12.0947 10.7139 12.1059 10.7156 12.1171C10.7173 12.1283 10.7188 12.1395 10.72 12.1508C10.7366 12.3104 10.6959 12.4768 10.5934 12.6021C10.5881 12.6087 10.5825 12.6153 10.5769 12.6217C10.5712 12.628 10.5654 12.6343 10.5594 12.6404C10.5534 12.6465 10.5473 12.6524 10.541 12.6582C10.5347 12.664 10.5283 12.6697 10.5217 12.6752C10.5152 12.6807 10.5085 12.686 10.5016 12.6911C10.4948 12.6963 10.4879 12.7013 10.4808 12.7061C10.4738 12.7109 10.4666 12.7155 10.4593 12.72C10.452 12.7245 10.4446 12.7287 10.4371 12.7328C10.4296 12.7369 10.422 12.7408 10.4143 12.7446C10.4066 12.7483 10.3988 12.7518 10.391 12.7551C10.3831 12.7585 10.3751 12.7616 10.3671 12.7646C10.3591 12.7675 10.351 12.7703 10.3428 12.7728C10.3347 12.7754 10.3265 12.7777 10.3182 12.7799C10.3099 12.782 10.3016 12.784 10.2932 12.7857C10.2849 12.7875 10.2765 12.789 10.268 12.7903C10.2596 12.7916 10.2511 12.7927 10.2426 12.7937C10.2395 12.7948 10.2351 12.7966 10.2316 12.7974C10.1205 12.8224 9.96904 12.774 9.87336 12.719C9.86375 12.7134 9.85428 12.7076 9.84495 12.7015C9.83563 12.6954 9.82646 12.6891 9.81744 12.6826C9.80843 12.6761 9.79959 12.6694 9.7909 12.6624C9.78221 12.6555 9.7737 12.6483 9.76538 12.6409C9.75705 12.6336 9.7489 12.626 9.74096 12.6182C9.73301 12.6104 9.72524 12.6025 9.71767 12.5943C9.7101 12.5861 9.70276 12.5778 9.6956 12.5693C9.68846 12.5608 9.68151 12.5521 9.67479 12.5432C9.66807 12.5343 9.66157 12.5253 9.6553 12.5161C9.64902 12.507 9.64298 12.4976 9.63714 12.4881C9.63133 12.4787 9.62575 12.469 9.62042 12.4593C9.61507 12.4495 9.60997 12.4396 9.60511 12.4296C9.60027 12.4196 9.59566 12.4095 9.5913 12.3993C9.58695 12.389 9.58284 12.3787 9.57899 12.3682C9.57516 12.3578 9.57157 12.3473 9.56825 12.3366C9.56492 12.326 9.56185 12.3153 9.55905 12.3046C9.51569 12.1409 9.53434 11.9601 9.62098 11.8133C9.70858 11.665 9.83458 11.596 9.99696 11.5542Z" fill="#FFCA64"/>
<path d="M5.60669 9.98104C5.7571 9.97098 5.89085 9.99498 6.01892 10.0781C6.16834 10.175 6.27664 10.3388 6.31274 10.5127C6.34608 10.6733 6.32034 10.848 6.22866 10.9856C6.13806 11.1216 6.00509 11.1935 5.84797 11.225C5.8395 11.2259 5.83101 11.2267 5.82251 11.2273C5.814 11.2279 5.8055 11.2284 5.79697 11.2286C5.78845 11.2288 5.77993 11.2289 5.77141 11.2288C5.76288 11.2287 5.75436 11.2284 5.74584 11.228C5.73734 11.2275 5.72885 11.2269 5.72036 11.2261C5.71187 11.2253 5.7034 11.2243 5.69495 11.2231C5.68651 11.222 5.67809 11.2206 5.66971 11.2191C5.66132 11.2176 5.65295 11.2159 5.64464 11.2141C5.63632 11.2122 5.62805 11.2102 5.61981 11.208C5.61157 11.2058 5.60338 11.2034 5.59523 11.2009C5.5871 11.1984 5.57901 11.1957 5.571 11.1928C5.56297 11.1899 5.555 11.1869 5.5471 11.1837C5.53919 11.1805 5.53135 11.1771 5.52359 11.1736C5.51583 11.1701 5.50815 11.1664 5.50054 11.1626C5.49292 11.1587 5.4854 11.1547 5.47796 11.1506C5.47051 11.1464 5.46314 11.1421 5.45589 11.1377C5.44643 11.1318 5.43714 11.1257 5.42799 11.1194C5.41885 11.1131 5.40986 11.1065 5.40103 11.0998C5.3922 11.093 5.38354 11.0861 5.37506 11.0789C5.36658 11.0717 5.35827 11.0643 5.35015 11.0567C5.34202 11.0491 5.33409 11.0413 5.32634 11.0334C5.31861 11.0254 5.31106 11.0172 5.30372 11.0089C5.29637 11.0005 5.28923 10.992 5.28232 10.9833C5.2754 10.9746 5.26869 10.9657 5.2622 10.9567C5.25571 10.9477 5.24944 10.9385 5.24341 10.9292C5.23737 10.9199 5.23156 10.9104 5.22597 10.9008C5.2204 10.8911 5.21507 10.8814 5.20996 10.8715C5.20486 10.8616 5.20002 10.8516 5.19541 10.8415C5.1908 10.8314 5.18645 10.8212 5.18234 10.8108C5.17824 10.8005 5.17439 10.7901 5.17079 10.7795C5.16719 10.769 5.16386 10.7584 5.16077 10.7477C5.15771 10.7371 5.15489 10.7263 5.15234 10.7155C5.11329 10.5509 5.1343 10.3746 5.22458 10.23C5.31495 10.0853 5.44457 10.0181 5.60669 9.98104Z" fill="#FFCA64"/>
<path d="M11.9996 12.163C12.1625 12.1506 12.3165 12.1965 12.4419 12.3025C12.4509 12.3102 12.4597 12.3181 12.4683 12.3263C12.4769 12.3344 12.4852 12.3427 12.4934 12.3513C12.5016 12.3598 12.5096 12.3686 12.5173 12.3775C12.5251 12.3864 12.5326 12.3956 12.5399 12.4049C12.5472 12.4142 12.5543 12.4237 12.5611 12.4333C12.568 12.443 12.5745 12.4528 12.5809 12.4628C12.5873 12.4728 12.5934 12.4829 12.5992 12.4932C12.6051 12.5034 12.6107 12.5139 12.616 12.5244C12.6214 12.535 12.6265 12.5456 12.6313 12.5564C12.6361 12.5672 12.6407 12.5782 12.645 12.5892C12.6493 12.6002 12.6533 12.6113 12.6571 12.6226C12.6608 12.6338 12.6643 12.6451 12.6674 12.6565C12.6706 12.6679 12.6735 12.6793 12.6762 12.6909C12.6788 12.7024 12.6811 12.714 12.6832 12.7257C12.6853 12.7373 12.687 12.749 12.6885 12.7607C12.69 12.7725 12.6912 12.7843 12.6921 12.796C12.7056 12.9606 12.6604 13.1354 12.5523 13.2623C12.4557 13.3755 12.3286 13.4364 12.1815 13.4486C12.0682 13.4658 11.931 13.418 11.8362 13.3581C11.6831 13.2612 11.5763 13.0953 11.5368 12.9198C11.4974 12.7452 11.5229 12.5582 11.6199 12.4062C11.7108 12.2638 11.8385 12.1985 11.9996 12.163Z" fill="#FFCA64"/>
<path d="M2.35261 6.97533C2.3995 6.97188 2.44433 6.97684 2.48989 6.98771C2.60375 7.01488 2.71655 7.06327 2.82765 7.10097C2.98624 7.15479 3.33328 7.24755 3.4602 7.33746C3.60097 7.43718 3.6963 7.59973 3.72602 7.76854C3.75384 7.92648 3.72396 8.10168 3.63054 8.23398C3.54658 8.35293 3.4307 8.41562 3.28892 8.44011C3.22592 8.44546 3.16984 8.44002 3.10882 8.42502C2.99274 8.3965 2.87775 8.34263 2.76512 8.30161C2.60033 8.24159 2.42637 8.18914 2.26716 8.11682C2.21814 8.09454 2.17197 8.06774 2.12996 8.03391C1.99914 7.92856 1.92014 7.75948 1.90316 7.5942C1.88686 7.43558 1.92614 7.26795 2.028 7.14297C2.1123 7.03953 2.22194 6.98862 2.35261 6.97533Z" fill="#FFCA64"/>
<path d="M3.44668 9.23097C3.50697 9.22702 3.56206 9.22942 3.62111 9.24279C3.78326 9.27944 3.94636 9.34701 4.10396 9.40108C4.26485 9.45627 4.44783 9.50171 4.59682 9.58252C4.74766 9.6643 4.85637 9.81042 4.90423 9.9744C4.95113 10.1351 4.9407 10.3115 4.8588 10.4591C4.77691 10.6068 4.65535 10.6802 4.49701 10.7259C4.4256 10.7314 4.3602 10.7315 4.28996 10.7156C4.16082 10.6862 4.03328 10.6265 3.90849 10.5811C3.74131 10.5204 3.44103 10.433 3.29762 10.3412C3.15569 10.2503 3.05774 10.0979 3.02208 9.93434C2.9866 9.77162 3.00946 9.59357 3.10068 9.45228C3.18399 9.32322 3.29978 9.2622 3.44668 9.23097Z" fill="#FFCA64"/>
<path d="M7.27288 8.6472C7.32953 8.64168 7.38648 8.64842 7.44153 8.66157C7.57493 8.69339 7.70741 8.75117 7.83751 8.79585C8.00148 8.85219 8.17633 8.90037 8.33462 8.97022C8.3849 8.9924 8.43443 9.02103 8.47689 9.05603C8.61965 9.1737 8.70473 9.35949 8.72125 9.54179C8.73605 9.70517 8.69132 9.87906 8.58513 10.0062C8.50616 10.1007 8.38925 10.1697 8.26568 10.1806C8.2624 10.1817 8.25815 10.1832 8.25462 10.1839C8.20418 10.1937 8.14048 10.1833 8.09122 10.1713C7.95808 10.1387 7.82545 10.0786 7.69653 10.0318C7.52893 9.97082 7.23653 9.89157 7.09631 9.7934C6.9515 9.69201 6.85565 9.51835 6.82728 9.346C6.79895 9.17382 6.83139 8.98563 6.93532 8.84297C7.01892 8.72823 7.13456 8.66866 7.27288 8.6472Z" fill="#FFCA64"/>
<path d="M4.41271 7.68884C4.47068 7.68429 4.52785 7.68971 4.58435 7.70286C4.71863 7.7341 4.85086 7.7902 4.98163 7.8345C5.165 7.8966 5.51192 7.9886 5.66546 8.09365C5.80969 8.19234 5.91078 8.3588 5.94274 8.5296C5.97324 8.69274 5.94376 8.86414 5.84823 9.00151C5.75798 9.13128 5.62853 9.20438 5.47484 9.23219C5.40659 9.24232 5.33209 9.23527 5.26534 9.21905C5.13029 9.18623 4.99838 9.12431 4.86777 9.07616C4.68551 9.00893 4.36333 8.91672 4.21229 8.8133C4.06826 8.71466 3.97275 8.55555 3.94121 8.38491C3.91121 8.22256 3.94259 8.04574 4.03694 7.90893C4.12977 7.77434 4.25609 7.71706 4.41271 7.68884Z" fill="#FFCA64"/>
<path d="M9.41412 9.38938C9.47806 9.38631 9.53773 9.39338 9.59975 9.40844C9.76179 9.44778 9.92239 9.51609 10.0803 9.57084C10.2346 9.62434 10.3983 9.66932 10.5476 9.73486C10.5718 9.7452 10.5953 9.757 10.618 9.77026C10.6407 9.78351 10.6625 9.7981 10.6835 9.81404C10.8304 9.92711 10.9264 10.1042 10.9494 10.2875C10.9707 10.4573 10.9313 10.637 10.8251 10.7734C10.7304 10.895 10.6041 10.9599 10.4527 10.979C10.395 10.9889 10.33 10.9803 10.2735 10.9664C10.1521 10.9364 10.0343 10.8822 9.9167 10.8397C9.72772 10.7713 9.37083 10.6664 9.2212 10.5663C9.07212 10.4666 8.97298 10.302 8.93846 10.1275C8.90372 9.95166 8.9339 9.76583 9.03462 9.6162C9.12729 9.47852 9.25511 9.41985 9.41412 9.38938Z" fill="#FFCA64"/>
<path d="M11.677 10.1808C11.749 10.1755 11.8174 10.1816 11.8876 10.1983C12.0401 10.2346 12.1926 10.3017 12.3413 10.3527C12.5344 10.4189 12.7416 10.475 12.9272 10.5587C12.9796 10.5824 13.0261 10.6121 13.0698 10.6495C13.0791 10.6573 13.0882 10.6653 13.097 10.6736C13.1059 10.6819 13.1145 10.6904 13.1229 10.6991C13.1314 10.7078 13.1396 10.7167 13.1476 10.7257C13.1556 10.7348 13.1634 10.7441 13.1709 10.7536C13.1785 10.7631 13.1858 10.7728 13.1929 10.7826C13.1999 10.7924 13.2068 10.8024 13.2134 10.8126C13.2199 10.8228 13.2263 10.8331 13.2324 10.8436C13.2384 10.8541 13.2442 10.8647 13.2498 10.8755C13.2554 10.8862 13.2606 10.8971 13.2657 10.9081C13.2707 10.9192 13.2755 10.9303 13.2799 10.9416C13.2844 10.9528 13.2886 10.9642 13.2925 10.9757C13.2965 10.9871 13.3001 10.9987 13.3035 11.0103C13.3068 11.022 13.3099 11.0337 13.3127 11.0455C13.3154 11.0573 13.3179 11.0691 13.3201 11.0811C13.3223 11.093 13.3242 11.1049 13.3259 11.1169C13.3275 11.1289 13.3288 11.141 13.3298 11.1531C13.3433 11.3261 13.2929 11.5009 13.1787 11.633C13.1726 11.64 13.1664 11.6468 13.1599 11.6535C13.1535 11.6602 13.1469 11.6668 13.1401 11.6731C13.1333 11.6795 13.1264 11.6857 13.1194 11.6918C13.1123 11.6978 13.1051 11.7036 13.0977 11.7093C13.0903 11.715 13.0828 11.7205 13.0752 11.7258C13.0676 11.7311 13.0598 11.7362 13.0519 11.7411C13.044 11.746 13.036 11.7507 13.0279 11.7553C13.0198 11.7598 13.0116 11.7641 13.0032 11.7682C12.9949 11.7723 12.9865 11.7762 12.978 11.7799C12.9694 11.7836 12.9608 11.7871 12.9521 11.7904C12.9434 11.7936 12.9346 11.7967 12.9258 11.7995C12.9169 11.8024 12.908 11.805 12.899 11.8074C12.8901 11.8098 12.881 11.812 12.872 11.8139C12.8629 11.8158 12.8537 11.8176 12.8446 11.8191C12.8354 11.8205 12.8262 11.8218 12.817 11.8229C12.8077 11.8239 12.7985 11.8247 12.7892 11.8253C12.7273 11.8363 12.6559 11.8259 12.5953 11.8108C12.4664 11.7789 12.3381 11.7208 12.213 11.6757C12.0194 11.6059 11.6295 11.4898 11.4744 11.386C11.3203 11.2828 11.2148 11.1143 11.1792 10.9333C11.1451 10.7601 11.1755 10.5715 11.2756 10.4244C11.3738 10.28 11.5091 10.2127 11.677 10.1808Z" fill="#FFCA64"/>
<path d="M2.42954 8.65234C2.54834 8.66649 2.64902 8.70011 2.74077 8.77968C2.74898 8.78692 2.75702 8.79437 2.76486 8.80202C2.77271 8.80966 2.78037 8.81749 2.78782 8.8255C2.79529 8.83353 2.80255 8.84172 2.80962 8.85009C2.81668 8.85848 2.82353 8.86703 2.83018 8.87574C2.83682 8.88445 2.84323 8.89332 2.84944 8.90234C2.85563 8.91138 2.86162 8.92057 2.86738 8.92988C2.87313 8.9392 2.87864 8.94867 2.88393 8.95827C2.88922 8.96786 2.89427 8.97757 2.89908 8.98741C2.9039 8.99726 2.90846 9.00722 2.91277 9.01729C2.9171 9.02735 2.92116 9.03753 2.92498 9.0478C2.92882 9.05806 2.93239 9.06842 2.93569 9.07886C2.93901 9.08931 2.94206 9.09983 2.94486 9.11042C2.94765 9.12101 2.95018 9.13168 2.95245 9.14239C2.95471 9.1531 2.95673 9.16388 2.95846 9.1747C2.96021 9.18551 2.96168 9.19637 2.96289 9.20725C2.96409 9.21815 2.96504 9.22907 2.96571 9.23999C2.9758 9.39346 2.93368 9.55599 2.83064 9.6727C2.73938 9.77608 2.6227 9.82248 2.4875 9.83095C2.35888 9.82932 2.23134 9.77197 2.13791 9.685C2.01039 9.56631 1.93891 9.39046 1.93393 9.21763C1.92953 9.06529 1.97811 8.90337 2.08443 8.79137C2.17954 8.6912 2.29588 8.65633 2.42954 8.65234Z" fill="#D87500"/>
<path d="M7.59108 10.5137C7.59287 10.5134 7.59465 10.5132 7.59646 10.513C7.71924 10.5004 7.84979 10.5479 7.94467 10.6245C8.08071 10.7343 8.16575 10.9041 8.18329 11.077C8.1992 11.2337 8.16071 11.4015 8.05932 11.5246C7.97901 11.6221 7.87007 11.6784 7.74464 11.6906C7.74039 11.6912 7.73613 11.6918 7.73187 11.6923C7.61022 11.7055 7.48329 11.6547 7.3899 11.5793C7.25541 11.4707 7.17016 11.3035 7.15236 11.1323C7.13594 10.9746 7.1741 10.804 7.27548 10.6796C7.35536 10.5816 7.4667 10.5266 7.59108 10.5137Z" fill="#D87500"/>
<path d="M8.83755 10.9453L8.84339 10.9448C8.9926 10.9315 9.14087 10.984 9.25401 11.0807C9.38881 11.196 9.473 11.3693 9.48572 11.5458C9.497 11.7026 9.4525 11.8689 9.34809 11.9886C9.25705 12.093 9.13486 12.1491 8.99781 12.1584C8.89812 12.1791 8.75219 12.1217 8.66992 12.0678C8.52586 11.9734 8.42591 11.8105 8.3918 11.6431C8.3592 11.4829 8.38392 11.3068 8.47575 11.1696C8.56379 11.038 8.68579 10.9755 8.83755 10.9453Z" fill="#D87500"/>
<path d="M10.1485 11.4096C10.3233 11.3951 10.4803 11.4282 10.6196 11.5399C10.6283 11.5471 10.6369 11.5544 10.6453 11.562C10.6537 11.5696 10.662 11.5774 10.67 11.5854C10.678 11.5934 10.6859 11.6015 10.6935 11.6099C10.7011 11.6183 10.7085 11.6268 10.7158 11.6356C10.723 11.6443 10.73 11.6532 10.7368 11.6623C10.7435 11.6714 10.7501 11.6806 10.7564 11.69C10.7628 11.6994 10.7688 11.7089 10.7747 11.7186C10.7806 11.7283 10.7862 11.7381 10.7916 11.7481C10.797 11.7581 10.8021 11.7682 10.807 11.7784C10.8119 11.7886 10.8166 11.7989 10.8209 11.8094C10.8253 11.8198 10.8295 11.8304 10.8333 11.841C10.8372 11.8516 10.8408 11.8624 10.8442 11.8732C10.8476 11.884 10.8506 11.8949 10.8535 11.9059C10.8563 11.9169 10.8588 11.9279 10.8611 11.939C10.8634 11.9501 10.8654 11.9612 10.8672 11.9724C10.8689 11.9836 10.8704 11.9949 10.8716 12.0061C10.8882 12.1657 10.8474 12.3321 10.745 12.4574C10.7396 12.4641 10.7341 12.4706 10.7284 12.477C10.7227 12.4834 10.7169 12.4896 10.7109 12.4957C10.7049 12.5018 10.6988 12.5078 10.6925 12.5136C10.6863 12.5194 10.6798 12.525 10.6733 12.5305C10.6667 12.536 10.66 12.5413 10.6532 12.5465C10.6464 12.5516 10.6394 12.5566 10.6324 12.5614C10.6253 12.5662 10.6181 12.5709 10.6108 12.5754C10.6036 12.5798 10.5961 12.5841 10.5887 12.5882C10.5811 12.5923 10.5735 12.5962 10.5659 12.5999C10.5582 12.6036 10.5504 12.6072 10.5425 12.6105C10.5346 12.6138 10.5267 12.617 10.5187 12.6199C10.5107 12.6229 10.5026 12.6256 10.4944 12.6282C10.4862 12.6307 10.478 12.6331 10.4697 12.6352C10.4615 12.6374 10.4531 12.6393 10.4448 12.6411C10.4364 12.6428 10.428 12.6443 10.4196 12.6456C10.4111 12.647 10.4027 12.6481 10.3941 12.649C10.391 12.6502 10.3866 12.6519 10.3831 12.6527C10.2721 12.6777 10.1206 12.6294 10.0249 12.5743C10.0153 12.5687 10.0058 12.5629 9.99649 12.5569C9.98717 12.5508 9.978 12.5445 9.96899 12.538C9.95997 12.5315 9.95112 12.5247 9.94244 12.5178C9.93376 12.5108 9.92526 12.5037 9.91693 12.4963C9.90859 12.4889 9.90046 12.4813 9.8925 12.4736C9.88455 12.4658 9.87678 12.4578 9.86923 12.4497C9.86166 12.4415 9.8543 12.4332 9.84715 12.4246C9.84 12.4161 9.83307 12.4074 9.82634 12.3986C9.81961 12.3897 9.81312 12.3807 9.80684 12.3715C9.80056 12.3623 9.79452 12.353 9.78869 12.3435C9.78289 12.334 9.7773 12.3244 9.77195 12.3146C9.76662 12.3049 9.76152 12.295 9.75667 12.285C9.75181 12.275 9.74721 12.2648 9.74286 12.2546C9.73849 12.2444 9.73438 12.234 9.73055 12.2236C9.72671 12.2131 9.72312 12.2026 9.71979 12.192C9.71647 12.1814 9.71341 12.1707 9.71061 12.1599C9.66724 11.9962 9.68588 11.8154 9.77253 11.6687C9.86012 11.5203 9.98613 11.4513 10.1485 11.4096Z" fill="#D87500"/>
<path d="M5.75831 9.83638C5.90871 9.82632 6.04247 9.85032 6.17054 9.9334C6.31995 10.0303 6.42825 10.1941 6.46437 10.368C6.49768 10.5286 6.47197 10.7034 6.38026 10.841C6.28968 10.9769 6.15669 11.0488 5.9996 11.0803C5.99112 11.0813 5.98263 11.0821 5.97411 11.0827C5.96563 11.0833 5.95711 11.0837 5.94859 11.0839C5.94007 11.0842 5.93154 11.0843 5.92302 11.0842C5.9145 11.0841 5.90598 11.0838 5.89746 11.0833C5.88896 11.0829 5.88045 11.0822 5.87198 11.0814C5.86349 11.0806 5.85502 11.0796 5.84657 11.0785C5.83813 11.0773 5.82971 11.076 5.82133 11.0745C5.81293 11.073 5.80457 11.0713 5.79625 11.0694C5.78794 11.0676 5.77965 11.0655 5.77142 11.0634C5.76318 11.0612 5.75499 11.0588 5.74685 11.0563C5.73872 11.0537 5.73063 11.051 5.7226 11.0481C5.71457 11.0453 5.7066 11.0422 5.69871 11.039C5.69081 11.0358 5.68297 11.0325 5.67521 11.029C5.66745 11.0254 5.65976 11.0218 5.65216 11.0179C5.64454 11.0141 5.63702 11.0101 5.62957 11.0059C5.62213 11.0018 5.61477 10.9975 5.60749 10.993C5.59805 10.9871 5.58875 10.9811 5.57961 10.9748C5.57045 10.9684 5.56146 10.9619 5.55263 10.9551C5.54382 10.9484 5.53517 10.9414 5.52668 10.9342C5.51819 10.927 5.50989 10.9197 5.50176 10.9121C5.49364 10.9045 5.4857 10.8967 5.47797 10.8887C5.47022 10.8807 5.46268 10.8726 5.45533 10.8642C5.448 10.8559 5.44085 10.8474 5.43392 10.8387C5.427 10.83 5.42031 10.8211 5.41382 10.8121C5.40733 10.803 5.40106 10.7939 5.39502 10.7845C5.38897 10.7752 5.38317 10.7657 5.3776 10.7561C5.37203 10.7465 5.36668 10.7367 5.36158 10.7269C5.35648 10.717 5.35164 10.707 5.34703 10.6969C5.34243 10.6867 5.33805 10.6765 5.33395 10.6662C5.32985 10.6558 5.326 10.6454 5.32241 10.6349C5.31881 10.6244 5.31546 10.6138 5.3124 10.6031C5.30931 10.5924 5.30651 10.5816 5.30397 10.5708C5.2649 10.4062 5.28591 10.23 5.3762 10.0853C5.46656 9.94065 5.59619 9.87346 5.75831 9.83638Z" fill="#D87500"/>
<path d="M12.1511 12.0183C12.3141 12.0059 12.468 12.0519 12.5935 12.1578C12.6024 12.1656 12.6112 12.1735 12.6198 12.1816C12.6284 12.1897 12.6368 12.1981 12.645 12.2066C12.6531 12.2152 12.6611 12.2239 12.6689 12.2329C12.6766 12.2418 12.6842 12.2509 12.6914 12.2602C12.6987 12.2695 12.7058 12.279 12.7127 12.2887C12.7195 12.2983 12.7261 12.3081 12.7325 12.3181C12.7388 12.3281 12.7449 12.3382 12.7508 12.3485C12.7566 12.3588 12.7622 12.3692 12.7676 12.3797C12.773 12.3903 12.778 12.401 12.7829 12.4118C12.7877 12.4226 12.7923 12.4335 12.7965 12.4445C12.8008 12.4556 12.8048 12.4667 12.8086 12.4779C12.8123 12.4891 12.8158 12.5004 12.819 12.5118C12.8222 12.5232 12.8251 12.5347 12.8277 12.5462C12.8304 12.5578 12.8327 12.5693 12.8348 12.581C12.8368 12.5927 12.8386 12.6044 12.8401 12.6161C12.8416 12.6278 12.8428 12.6396 12.8437 12.6514C12.8572 12.8159 12.8119 12.9907 12.7038 13.1176C12.6073 13.2309 12.4802 13.2917 12.333 13.304C12.2198 13.3212 12.0826 13.2734 11.9878 13.2134C11.8347 13.1166 11.7278 12.9507 11.6883 12.7752C11.649 12.6005 11.6745 12.4136 11.7714 12.2616C11.8623 12.1191 11.9901 12.0539 12.1511 12.0183Z" fill="#D87500"/>
<path d="M2.50423 6.83067C2.5511 6.82722 2.59593 6.83219 2.6415 6.84306C2.75537 6.87023 2.86817 6.91862 2.97927 6.95632C3.13786 7.01014 3.48489 7.1029 3.61181 7.19281C3.75258 7.29253 3.8479 7.45507 3.87764 7.62389C3.90546 7.78183 3.87558 7.95703 3.78215 8.08933C3.69818 8.20827 3.58232 8.27097 3.44054 8.29546C3.37753 8.30081 3.32146 8.29537 3.26042 8.28036C3.14435 8.25184 3.02935 8.19798 2.91673 8.15696C2.75195 8.09694 2.57799 8.04448 2.41878 7.97217C2.36974 7.94989 2.32359 7.92309 2.28158 7.88925C2.15076 7.78392 2.07175 7.61482 2.05478 7.44956C2.03847 7.29093 2.07774 7.12331 2.17962 6.99832C2.26392 6.8949 2.37356 6.84396 2.50423 6.83067Z" fill="#D87500"/>
<path d="M3.59831 9.08631C3.65858 9.08237 3.71367 9.08478 3.77273 9.09813C3.93487 9.13478 4.09797 9.20235 4.25558 9.25643C4.41647 9.31161 4.59944 9.35705 4.74844 9.43787C4.89929 9.51964 5.00798 9.66576 5.05585 9.82975C5.10276 9.99041 5.09233 10.1668 5.01041 10.3145C4.92852 10.4621 4.80696 10.5355 4.64864 10.5812C4.57723 10.5867 4.51181 10.5868 4.44157 10.5709C4.31243 10.5416 4.18489 10.4819 4.06012 10.4365C3.89293 10.3757 3.59264 10.2884 3.44923 10.1965C3.3073 10.1056 3.20935 9.95324 3.17369 9.78969C3.13821 9.62696 3.16107 9.44892 3.2523 9.30763C3.33561 9.17856 3.45141 9.11754 3.59831 9.08631Z" fill="#D87500"/>
<path d="M7.42444 8.50266C7.48109 8.49715 7.53804 8.50389 7.59308 8.51703C7.72649 8.54886 7.85896 8.60663 7.98906 8.65132C8.15303 8.70766 8.32788 8.75583 8.48619 8.82569C8.53647 8.84786 8.58598 8.8765 8.62846 8.91149C8.77121 9.02917 8.85629 9.21496 8.87281 9.39726C8.88761 9.56063 8.84289 9.73453 8.73669 9.86163C8.65773 9.95613 8.54081 10.0252 8.41724 10.0361C8.41395 10.0372 8.40971 10.0387 8.40619 10.0394C8.35573 10.0492 8.29203 10.0388 8.24278 10.0267C8.10964 9.99416 7.977 9.93412 7.8481 9.88724C7.68048 9.82629 7.38809 9.74703 7.24788 9.64887C7.10305 9.54748 7.0072 9.37382 6.97883 9.20146C6.9505 9.02929 6.98294 8.84109 7.08689 8.69844C7.17049 8.5837 7.28611 8.52413 7.42444 8.50266Z" fill="#D87500"/>
<path d="M4.56427 7.54431C4.62224 7.53976 4.67939 7.54518 4.73591 7.55832C4.87019 7.58957 5.0024 7.64567 5.13318 7.68997C5.31656 7.75207 5.66348 7.84407 5.81702 7.94912C5.96123 8.0478 6.06234 8.21426 6.09428 8.38506C6.1248 8.5482 6.0953 8.71963 5.99978 8.85698C5.90953 8.98675 5.78007 9.05985 5.62638 9.08766C5.55815 9.09779 5.48364 9.09074 5.41689 9.07452C5.28185 9.0417 5.14993 8.97978 5.01933 8.93163C4.83707 8.8644 4.51489 8.77219 4.36384 8.66877C4.21982 8.57015 4.12431 8.41103 4.09277 8.24038C4.06275 8.07803 4.09413 7.90121 4.1885 7.7644C4.28132 7.6298 4.40764 7.57253 4.56427 7.54431Z" fill="#D87500"/>
<path d="M9.56568 9.24472C9.62962 9.24166 9.68929 9.24872 9.75129 9.26379C9.91335 9.30312 10.0739 9.37143 10.2319 9.42619C10.3862 9.47968 10.5498 9.52468 10.6992 9.5902C10.7234 9.60054 10.7468 9.61235 10.7695 9.62561C10.7923 9.63885 10.8141 9.65345 10.835 9.66939C10.982 9.78246 11.0779 9.95951 11.1009 10.1428C11.1222 10.3127 11.0828 10.4924 10.9766 10.6288C10.882 10.7504 10.7556 10.8153 10.6043 10.8343C10.5466 10.8443 10.4816 10.8357 10.425 10.8217C10.3037 10.7917 10.1859 10.7376 10.0682 10.695C9.87927 10.6267 9.52237 10.5218 9.37276 10.4217C9.22367 10.322 9.12452 10.1574 9.09002 9.98281C9.05526 9.807 9.08545 9.62118 9.18616 9.47155C9.27885 9.33386 9.40667 9.2752 9.56568 9.24472Z" fill="#D87500"/>
<path d="M11.8287 10.0362C11.9007 10.0308 11.969 10.037 12.0392 10.0537C12.1918 10.0899 12.3442 10.157 12.4929 10.208C12.686 10.2742 12.8932 10.3304 13.0788 10.4141C13.1312 10.4377 13.1777 10.4675 13.2215 10.5048C13.2307 10.5126 13.2398 10.5207 13.2486 10.529C13.2575 10.5372 13.2661 10.5457 13.2745 10.5544C13.283 10.5631 13.2912 10.572 13.2992 10.5811C13.3072 10.5902 13.315 10.5995 13.3225 10.609C13.3301 10.6184 13.3374 10.6281 13.3445 10.6379C13.3515 10.6478 13.3584 10.6578 13.365 10.6679C13.3715 10.6781 13.3779 10.6884 13.384 10.6989C13.39 10.7094 13.3959 10.72 13.4014 10.7308C13.407 10.7416 13.4123 10.7525 13.4173 10.7635C13.4223 10.7745 13.4271 10.7857 13.4316 10.7969C13.436 10.8082 13.4402 10.8195 13.4441 10.831C13.4481 10.8425 13.4517 10.854 13.4551 10.8657C13.4584 10.8773 13.4615 10.889 13.4643 10.9008C13.467 10.9126 13.4695 10.9245 13.4717 10.9364C13.4739 10.9483 13.4759 10.9603 13.4775 10.9723C13.4791 10.9843 13.4804 10.9963 13.4814 11.0084C13.4949 11.1814 13.4445 11.3563 13.3303 11.4883C13.3242 11.4953 13.318 11.5022 13.3115 11.5089C13.3051 11.5156 13.2985 11.5221 13.2917 11.5285C13.2849 11.5349 13.278 11.5411 13.271 11.5471C13.2639 11.5531 13.2567 11.559 13.2493 11.5647C13.242 11.5703 13.2345 11.5758 13.2268 11.5811C13.2192 11.5864 13.2114 11.5915 13.2035 11.5964C13.1957 11.6014 13.1877 11.6061 13.1795 11.6106C13.1714 11.6151 13.1632 11.6194 13.1549 11.6235C13.1465 11.6277 13.1381 11.6316 13.1296 11.6353C13.121 11.639 13.1124 11.6425 13.1037 11.6457C13.095 11.649 13.0862 11.652 13.0774 11.6549C13.0686 11.6577 13.0596 11.6603 13.0506 11.6627C13.0417 11.6651 13.0326 11.6673 13.0235 11.6692C13.0145 11.6712 13.0053 11.6729 12.9962 11.6744C12.987 11.6759 12.9778 11.6772 12.9686 11.6782C12.9593 11.6792 12.9501 11.6801 12.9408 11.6806C12.8789 11.6916 12.8075 11.6812 12.747 11.6662C12.618 11.6342 12.4897 11.5762 12.3646 11.531C12.171 11.4613 11.7811 11.3451 11.626 11.2413C11.4719 11.1382 11.3664 10.9697 11.3308 10.7887C11.2967 10.6154 11.3271 10.4268 11.4272 10.2797C11.5254 10.1354 11.6607 10.0681 11.8287 10.0362Z" fill="#D87500"/>
</g>
</svg>
