<svg width="16" height="16" viewBox="0 0 16 16" fill="none" xmlns="http://www.w3.org/2000/svg">
<path d="M14.1356 10.1586C9.04691 8.47528 3.82844 6.74687 1.2306 5.88062C1.2306 5.88062 0.697264 9.59193 1.40097 10.1586C2.10467 10.7252 9.04691 12.9197 14.1356 14.603V10.1586Z" fill="#FBB630"/>
<path d="M14.9557 9.73413C14.8359 9.93866 14.612 10.1024 14.1356 10.1586V14.603C14.4603 14.6695 14.8933 14.439 14.9557 14.1786V9.73413Z" fill="#FF9820"/>
<path d="M9.4643 1.5731C8.14245 0.632356 1.98615 3.25459 1.23059 5.88051C3.82843 6.74676 9.0469 8.47518 14.1356 10.1585C14.612 10.1023 14.8358 9.93859 14.9556 9.73405C14.9556 9.73405 10.7861 2.51384 9.4643 1.5731Z" fill="#FFE320"/>
<mask id="mask0_15_293" style="mask-type:alpha" maskUnits="userSpaceOnUse" x="1" y="7" width="13" height="7">
<path d="M2.06475 8.95256C2.17471 8.94154 2.2801 8.96544 2.37407 9.02395C2.50966 9.10838 2.60275 9.25764 2.63766 9.41178C2.67226 9.56467 2.65446 9.73056 2.56948 9.86441C2.49468 9.98224 2.39146 10.0446 2.25699 10.0752C2.14369 10.0884 2.03415 10.0609 1.93881 9.99867C1.80289 9.90992 1.7152 9.76616 1.68209 9.6088C1.64923 9.45258 1.67225 9.27991 1.76143 9.14542C1.83386 9.03621 1.93813 8.97776 2.06475 8.95256Z" fill="#FFCA64"/>
<path d="M7.93001 10.7904C8.07994 10.7881 8.20982 10.8296 8.32302 10.9303C8.45846 11.0507 8.54167 11.2326 8.55198 11.4128C8.56114 11.573 8.51554 11.7418 8.40702 11.8628C8.31577 11.9646 8.19734 12.0157 8.06229 12.0232C7.94917 12.0259 7.84217 11.9904 7.74939 11.9264C7.60295 11.8253 7.5077 11.6601 7.47696 11.4863C7.44709 11.3174 7.47795 11.1355 7.57792 10.9942C7.6662 10.8694 7.78287 10.8161 7.93001 10.7904Z" fill="#FFCA64"/>
<path d="M9.23709 11.2294C9.24871 11.2285 9.26034 11.2278 9.272 11.2274C9.42983 11.2217 9.57819 11.2828 9.69262 11.3903C9.70111 11.3984 9.70939 11.4066 9.71746 11.4151C9.72554 11.4235 9.7334 11.4322 9.74106 11.441C9.74872 11.4498 9.75615 11.4589 9.76336 11.4681C9.77057 11.4773 9.77755 11.4866 9.78431 11.4962C9.79106 11.5057 9.79758 11.5154 9.80385 11.5253C9.81013 11.5352 9.81616 11.5452 9.82195 11.5553C9.82773 11.5655 9.83326 11.5758 9.83854 11.5862C9.84383 11.5966 9.84886 11.6072 9.85361 11.6179C9.85837 11.6285 9.86287 11.6393 9.86711 11.6502C9.87135 11.6611 9.87532 11.6721 9.879 11.6832C9.88269 11.6943 9.88612 11.7055 9.88926 11.7167C9.89241 11.728 9.89527 11.7393 9.89786 11.7507C9.90046 11.7621 9.90277 11.7736 9.9048 11.7851C9.90683 11.7966 9.90856 11.8082 9.91003 11.8198C9.91149 11.8314 9.91266 11.843 9.91355 11.8546C9.91446 11.8663 9.91506 11.878 9.91537 11.8897C9.92025 12.0486 9.86708 12.2178 9.75662 12.3344C9.66812 12.4278 9.54114 12.4894 9.41192 12.4932C9.28874 12.5114 9.14226 12.458 9.04295 12.3877C8.89469 12.2827 8.79546 12.1097 8.76607 11.9317C8.73798 11.7616 8.77189 11.5805 8.87349 11.4396C8.96206 11.3167 9.09006 11.2528 9.23709 11.2294Z" fill="#FFCA64"/>
<path d="M10.6836 11.6928C10.6938 11.6926 10.7041 11.6926 10.7143 11.6928C10.7245 11.693 10.7347 11.6935 10.7449 11.6942C10.7551 11.6949 10.7653 11.6959 10.7754 11.6971C10.7856 11.6983 10.7957 11.6998 10.8058 11.7014C10.8158 11.7031 10.8259 11.705 10.8359 11.7072C10.8458 11.7094 10.8558 11.7118 10.8656 11.7144C10.8755 11.717 10.8853 11.7199 10.8951 11.723C10.9048 11.7261 10.9144 11.7295 10.924 11.733C10.9336 11.7366 10.9431 11.7404 10.9525 11.7444C10.9619 11.7484 10.9712 11.7526 10.9804 11.7571C10.9896 11.7616 10.9987 11.7662 11.0076 11.7711C11.0166 11.776 11.0255 11.7811 11.0342 11.7864C11.0429 11.7917 11.0515 11.7973 11.06 11.803C11.0684 11.8087 11.0768 11.8146 11.085 11.8208C11.0931 11.8269 11.1012 11.8332 11.1091 11.8397C11.117 11.8462 11.1247 11.8529 11.1322 11.8597C11.141 11.8677 11.1496 11.8759 11.1579 11.8842C11.1663 11.8926 11.1744 11.9012 11.1824 11.91C11.1903 11.9187 11.198 11.9277 11.2055 11.9369C11.213 11.946 11.2203 11.9553 11.2273 11.9649C11.2344 11.9744 11.2412 11.9841 11.2477 11.9939C11.2543 12.0038 11.2606 12.0138 11.2667 12.0239C11.2727 12.0341 11.2786 12.0444 11.2841 12.0548C11.2897 12.0653 11.295 12.0758 11.3 12.0865C11.3051 12.0972 11.3099 12.1081 11.3144 12.119C11.3189 12.13 11.3231 12.141 11.3271 12.1521C11.3311 12.1633 11.3348 12.1745 11.3382 12.1858C11.3416 12.1972 11.3447 12.2086 11.3476 12.2201C11.3505 12.2316 11.353 12.2431 11.3553 12.2547C11.3576 12.2663 11.3596 12.278 11.3613 12.2897C11.3631 12.3014 11.3645 12.3132 11.3656 12.3249C11.3668 12.3367 11.3676 12.3485 11.3682 12.3603C11.3754 12.5293 11.327 12.6927 11.211 12.8185C11.1026 12.9361 10.9602 12.9921 10.8024 12.998C10.6523 13.0054 10.4993 12.9425 10.3856 12.8472C10.3765 12.8396 10.3676 12.8318 10.359 12.8238C10.3503 12.8157 10.3418 12.8074 10.3335 12.799C10.3252 12.7905 10.3172 12.7819 10.3093 12.773C10.3015 12.7641 10.2938 12.7551 10.2864 12.7458C10.2791 12.7366 10.2719 12.7272 10.265 12.7176C10.258 12.708 10.2513 12.6982 10.2449 12.6882C10.2384 12.6783 10.2322 12.6682 10.2263 12.658C10.2204 12.6478 10.2147 12.6374 10.2092 12.6269C10.2038 12.6163 10.1986 12.6057 10.1937 12.5949C10.1888 12.5841 10.1842 12.5732 10.1798 12.5622C10.1755 12.5512 10.1714 12.5401 10.1675 12.5289C10.1637 12.5177 10.1602 12.5064 10.157 12.495C10.1537 12.4836 10.1507 12.4722 10.148 12.4606C10.1454 12.4491 10.143 12.4375 10.1408 12.4259C10.1387 12.4142 10.1369 12.4025 10.1354 12.3908C10.1338 12.379 10.1326 12.3673 10.1316 12.3555C10.118 12.1901 10.166 12.0155 10.2746 11.8883C10.3804 11.7641 10.5236 11.7058 10.6836 11.6928Z" fill="#FFCA64"/>
<path d="M12.6385 12.3434C12.8123 12.3367 12.9689 12.387 13.1008 12.5025C13.1103 12.5109 13.1196 12.5196 13.1286 12.5285C13.1377 12.5374 13.1465 12.5466 13.1551 12.5559C13.1637 12.5653 13.1721 12.5748 13.1802 12.5846C13.1884 12.5943 13.1963 12.6043 13.204 12.6144C13.2116 12.6246 13.219 12.6349 13.2262 12.6454C13.2333 12.6559 13.2402 12.6666 13.2469 12.6774C13.2535 12.6882 13.2599 12.6992 13.266 12.7104C13.2721 12.7215 13.2779 12.7328 13.2835 12.7443C13.289 12.7557 13.2943 12.7673 13.2993 12.779C13.3042 12.7906 13.3089 12.8024 13.3134 12.8144C13.3178 12.8263 13.3219 12.8383 13.3257 12.8504C13.3295 12.8626 13.3331 12.8748 13.3363 12.887C13.3395 12.8993 13.3424 12.9117 13.3451 12.9241C13.3477 12.9366 13.35 12.9491 13.352 12.9616C13.354 12.9742 13.3557 12.9868 13.3572 12.9994C13.3586 13.012 13.3596 13.0247 13.3604 13.0374C13.3716 13.208 13.3178 13.3938 13.204 13.5233C13.1008 13.6406 12.9615 13.7059 12.8065 13.7162C12.6708 13.7324 12.5173 13.6756 12.4091 13.596C12.2485 13.4777 12.1422 13.2905 12.1126 13.0943C12.085 12.9113 12.1246 12.717 12.2354 12.5671C12.336 12.431 12.4748 12.3682 12.6385 12.3434Z" fill="#FFCA64"/>
<path d="M2.19165 7.06559C2.21414 7.06466 2.23658 7.06533 2.25898 7.06761C2.28137 7.06989 2.30349 7.07374 2.32534 7.07919C2.4356 7.10576 2.54426 7.14998 2.6523 7.18505C2.81885 7.23912 3.12658 7.31152 3.26178 7.40553C3.40147 7.50267 3.49402 7.66216 3.52365 7.8283C3.55109 7.98217 3.52129 8.14761 3.43082 8.27645C3.34946 8.3923 3.23583 8.45145 3.09888 8.47525C3.04639 8.47962 2.99667 8.47617 2.94547 8.46428C2.81272 8.43339 2.68249 8.37411 2.55408 8.32807C2.41043 8.27657 2.25943 8.2329 2.11983 8.17176C2.07666 8.15285 2.03438 8.12993 1.99697 8.10112C1.86352 7.99833 1.78192 7.83638 1.76175 7.67087C1.74331 7.5194 1.77916 7.35422 1.87476 7.23307C1.9558 7.13038 2.06372 7.08121 2.19165 7.06559Z" fill="#FFCA64"/>
<path d="M3.25923 9.34925C3.31791 9.34491 3.37222 9.34949 3.42947 9.3624C3.55819 9.39143 3.68635 9.44538 3.81175 9.487C3.97967 9.54275 4.20908 9.59415 4.35892 9.68363C4.49847 9.76697 4.59714 9.91666 4.63607 10.0728C4.67472 10.2278 4.65597 10.3947 4.57287 10.5324C4.49788 10.6567 4.38984 10.7259 4.25107 10.7606C4.18175 10.7716 4.12009 10.7689 4.05152 10.7541C3.92784 10.7274 3.20115 10.4694 3.10489 10.4067C2.97376 10.3212 2.88192 10.1685 2.85067 10.0169C2.81861 9.86137 2.84096 9.68916 2.92975 9.55528C3.01041 9.43366 3.11954 9.37803 3.25923 9.34925Z" fill="#FFCA64"/>
<path d="M5.30743 10.0322C5.36856 10.0272 5.42702 10.0323 5.48671 10.0455C5.64199 10.0799 5.79716 10.1461 5.94836 10.1964C6.10122 10.2472 6.26391 10.2884 6.41189 10.3514C6.43702 10.3618 6.46136 10.3739 6.48491 10.3875C6.50848 10.4011 6.53106 10.4162 6.55266 10.4327C6.56111 10.4393 6.56939 10.4461 6.57749 10.4531C6.58561 10.46 6.59355 10.4672 6.6013 10.4746C6.60906 10.4819 6.61663 10.4895 6.62402 10.4972C6.63142 10.5049 6.6386 10.5128 6.64559 10.5209C6.6526 10.529 6.6594 10.5373 6.66599 10.5457C6.67259 10.5541 6.67896 10.5627 6.68514 10.5714C6.69131 10.5802 6.69727 10.5891 6.703 10.5981C6.70874 10.6071 6.71425 10.6163 6.71954 10.6256C6.72482 10.6349 6.72988 10.6443 6.73469 10.6539C6.73951 10.6634 6.7441 10.6731 6.74844 10.6828C6.75279 10.6926 6.7569 10.7025 6.76076 10.7125C6.76463 10.7224 6.76825 10.7325 6.77161 10.7427C6.77497 10.7528 6.7781 10.763 6.78096 10.7733C6.78382 10.7836 6.78642 10.794 6.78878 10.8044C6.79114 10.8149 6.79324 10.8254 6.79508 10.8359C6.79691 10.8464 6.7985 10.857 6.79982 10.8676C6.81968 11.0232 6.78399 11.1844 6.68666 11.3091C6.68136 11.3159 6.67589 11.3226 6.67026 11.3291C6.66463 11.3357 6.65884 11.3421 6.65288 11.3483C6.64693 11.3546 6.64082 11.3607 6.63456 11.3667C6.62831 11.3726 6.62191 11.3784 6.61536 11.384C6.60881 11.3897 6.60213 11.3951 6.5953 11.4004C6.58847 11.4058 6.58152 11.4109 6.57445 11.4158C6.56737 11.4208 6.56017 11.4256 6.55285 11.4302C6.54555 11.4347 6.53813 11.4392 6.53059 11.4434C6.52305 11.4476 6.5154 11.4516 6.50767 11.4555C6.49994 11.4593 6.49211 11.463 6.48419 11.4664C6.47626 11.4699 6.46826 11.4731 6.46017 11.4762C6.4521 11.4792 6.44394 11.4821 6.43571 11.4847C6.42749 11.4874 6.41921 11.4898 6.41087 11.492C6.40253 11.4943 6.39413 11.4963 6.38567 11.4981C6.37722 11.4999 6.36874 11.5015 6.36022 11.5029C6.35168 11.5043 6.34312 11.5054 6.33454 11.5064C6.27327 11.5131 6.21626 11.5106 6.15608 11.4969C6.02479 11.4672 5.89533 11.4088 5.76816 11.3641C5.59106 11.3017 5.27322 11.2162 5.12382 11.1156C4.98365 11.0212 4.89139 10.8711 4.85927 10.7063C4.82885 10.5502 4.85656 10.3824 4.94699 10.2502C5.03611 10.1199 5.15594 10.061 5.30743 10.0322Z" fill="#FFCA64"/>
<path d="M4.20781 7.73234C4.26253 7.72784 4.31645 7.73286 4.36993 7.74502C4.4923 7.77289 4.61349 7.82246 4.73291 7.86128C4.92801 7.9247 5.26537 8.00757 5.42648 8.10882C5.57256 8.20059 5.67703 8.35636 5.71521 8.52375C5.75039 8.67805 5.72697 8.84928 5.64184 8.98377C5.55273 9.12454 5.423 9.19729 5.26386 9.23301C5.18512 9.23907 5.1131 9.23539 5.03599 9.21731C4.90629 9.18688 4.77638 9.12751 4.65041 9.08264C4.47386 9.01975 4.28728 8.96446 4.11607 8.88898C4.06599 8.86691 4.01778 8.83984 3.97467 8.80602C3.83879 8.69938 3.75186 8.53596 3.73153 8.36529C3.71288 8.2088 3.75241 8.04418 3.85075 7.91957C3.94002 7.80645 4.06701 7.74902 4.20781 7.73234Z" fill="#FFCA64"/>
<path d="M7.08344 8.59429C7.13108 8.59131 7.1809 8.59707 7.2273 8.60786C7.38736 8.64506 7.54496 8.70989 7.70093 8.76175C7.85247 8.81215 8.0144 8.85362 8.1604 8.91803C8.18622 8.92916 8.21117 8.94198 8.23527 8.95648C8.25936 8.97098 8.28237 8.98703 8.30431 9.00461C8.44603 9.11981 8.53647 9.30152 8.55462 9.48214C8.57215 9.6566 8.53468 9.83781 8.42172 9.97553C8.41653 9.98195 8.4112 9.98824 8.4057 9.99439C8.40021 10.0005 8.39456 10.0066 8.38877 10.0124C8.38298 10.0183 8.37705 10.024 8.37098 10.0296C8.36489 10.0352 8.35868 10.0406 8.35234 10.0459C8.346 10.0512 8.33953 10.0563 8.33293 10.0612C8.32634 10.0662 8.31961 10.071 8.31279 10.0756C8.30596 10.0802 8.29901 10.0846 8.29196 10.0889C8.28489 10.0932 8.27773 10.0973 8.27047 10.1012C8.26323 10.1051 8.25588 10.1089 8.24843 10.1124C8.24098 10.116 8.23345 10.1194 8.22585 10.1226C8.21824 10.1257 8.21055 10.1287 8.2028 10.1315C8.19504 10.1343 8.18721 10.137 8.17933 10.1394C8.17144 10.1418 8.1635 10.144 8.15551 10.146C8.14751 10.148 8.13947 10.1499 8.13138 10.1515C8.12329 10.1531 8.11517 10.1545 8.10701 10.1558C8.09884 10.157 8.09067 10.158 8.08246 10.1588L8.07736 10.1596C8.01996 10.1676 7.95948 10.1594 7.9036 10.1459C7.77799 10.1155 7.65361 10.0592 7.53126 10.0166C7.35735 9.95617 7.17438 9.90464 7.00578 9.83183C6.95797 9.81119 6.91197 9.7862 6.8704 9.75469C6.7253 9.64467 6.6316 9.46452 6.60822 9.28552C6.58564 9.11249 6.62316 8.92429 6.73147 8.78464C6.82098 8.66923 6.94107 8.61286 7.08344 8.59429Z" fill="#FFCA64"/>
<path d="M9.24067 9.33526C9.31477 9.32949 9.38273 9.33348 9.45544 9.34977C9.61507 9.38557 9.77557 9.45298 9.93102 9.50492C10.0945 9.55954 10.2688 9.60579 10.4272 9.67222C10.4522 9.68257 10.4765 9.69443 10.5 9.70779C10.5235 9.72114 10.5462 9.73589 10.5679 9.75204C10.721 9.86597 10.8217 10.0439 10.8481 10.2323C10.8724 10.406 10.8352 10.5951 10.7275 10.7361C10.6356 10.8565 10.5066 10.9284 10.3575 10.9487C10.2865 10.958 10.2232 10.9525 10.1537 10.9363C10.0146 10.9037 9.87418 10.841 9.73904 10.7937C9.56058 10.7314 9.26938 10.6501 9.114 10.5626C8.95572 10.4735 8.84286 10.308 8.79566 10.1346C8.74755 9.95789 8.76684 9.76329 8.8588 9.60397C8.94744 9.45037 9.07321 9.37954 9.24067 9.33526Z" fill="#FFCA64"/>
<path d="M11.5624 10.1239C11.5837 10.1217 11.605 10.1198 11.6263 10.1183C11.6896 10.1137 11.7524 10.1212 11.814 10.1358C11.9799 10.175 12.1458 10.2438 12.3079 10.2975C12.4957 10.3596 12.7003 10.4116 12.8799 10.4927C12.9089 10.5057 12.9369 10.5207 12.9637 10.5379C12.9904 10.555 13.0158 10.5741 13.0397 10.595C13.0491 10.6032 13.0582 10.6115 13.0671 10.6201C13.0761 10.6287 13.0848 10.6375 13.0933 10.6465C13.1018 10.6556 13.1101 10.6648 13.1182 10.6742C13.1262 10.6836 13.134 10.6932 13.1416 10.703C13.1492 10.7128 13.1566 10.7228 13.1637 10.733C13.1708 10.7431 13.1776 10.7535 13.1842 10.764C13.1908 10.7745 13.1972 10.7851 13.2032 10.7959C13.2093 10.8067 13.2151 10.8177 13.2207 10.8288C13.2262 10.8399 13.2315 10.8511 13.2364 10.8624C13.2414 10.8738 13.2462 10.8852 13.2506 10.8968C13.255 10.9084 13.2592 10.9201 13.263 10.9318C13.2669 10.9436 13.2705 10.9555 13.2737 10.9675C13.277 10.9794 13.28 10.9914 13.2827 11.0035C13.2854 11.0156 13.2878 11.0278 13.2899 11.04C13.292 11.0522 13.2938 11.0645 13.2953 11.0768C13.2968 11.0891 13.298 11.1014 13.2989 11.1138C13.3105 11.2892 13.2582 11.4659 13.1411 11.5987C13.0543 11.6972 12.9145 11.7792 12.7818 11.7876C12.7779 11.79 12.7769 11.7909 12.7718 11.7922C12.7037 11.8094 12.6085 11.7913 12.5418 11.7752C12.3752 11.7351 12.2075 11.663 12.045 11.6059C11.8592 11.5405 11.5947 11.4679 11.4275 11.3728C11.2634 11.2795 11.1508 11.1197 11.1017 10.9382C11.0985 10.927 11.0957 10.9158 11.0931 10.9044C11.0905 10.8931 11.0882 10.8817 11.0862 10.8702C11.0841 10.8588 11.0824 10.8473 11.0809 10.8358C11.0795 10.8242 11.0783 10.8127 11.0775 10.8011C11.0766 10.7895 11.076 10.7779 11.0757 10.7662C11.0754 10.7546 11.0754 10.743 11.0756 10.7313C11.0759 10.7197 11.0765 10.7081 11.0773 10.6965C11.0782 10.6849 11.0793 10.6733 11.0807 10.6618C11.0822 10.6503 11.0839 10.6388 11.0859 10.6273C11.0879 10.6159 11.0901 10.6044 11.0927 10.5931C11.0953 10.5818 11.0981 10.5705 11.1012 10.5593C11.1043 10.5481 11.1077 10.537 11.1114 10.5259C11.1151 10.5149 11.119 10.504 11.1232 10.4931C11.1275 10.4823 11.1319 10.4716 11.1367 10.4609C11.1414 10.4503 11.1464 10.4398 11.1517 10.4295C11.157 10.4191 11.1625 10.4089 11.1683 10.3988C11.2578 10.2445 11.3939 10.1682 11.5624 10.1239Z" fill="#FFCA64"/>
</mask>
<g mask="url(#mask0_15_293)">
<path d="M2.06475 8.95256C2.17471 8.94154 2.2801 8.96544 2.37407 9.02395C2.50966 9.10838 2.60275 9.25764 2.63766 9.41178C2.67226 9.56467 2.65446 9.73056 2.56948 9.86441C2.49468 9.98224 2.39146 10.0446 2.25699 10.0752C2.14369 10.0884 2.03415 10.0609 1.93881 9.99867C1.80289 9.90992 1.7152 9.76616 1.68209 9.6088C1.64923 9.45258 1.67225 9.27991 1.76143 9.14542C1.83386 9.03621 1.93813 8.97776 2.06475 8.95256Z" fill="#FFCA64"/>
<path d="M7.93001 10.7904C8.07994 10.7881 8.20982 10.8296 8.32302 10.9303C8.45846 11.0507 8.54167 11.2326 8.55198 11.4128C8.56114 11.573 8.51554 11.7418 8.40702 11.8628C8.31577 11.9646 8.19734 12.0157 8.06229 12.0232C7.94917 12.0259 7.84217 11.9904 7.74939 11.9264C7.60295 11.8253 7.5077 11.6601 7.47696 11.4863C7.44709 11.3174 7.47795 11.1355 7.57792 10.9942C7.6662 10.8694 7.78287 10.8161 7.93001 10.7904Z" fill="#FFCA64"/>
<path d="M9.23709 11.2294C9.24871 11.2285 9.26034 11.2278 9.272 11.2274C9.42983 11.2217 9.57819 11.2828 9.69262 11.3903C9.70111 11.3984 9.70939 11.4066 9.71746 11.4151C9.72554 11.4235 9.7334 11.4322 9.74106 11.441C9.74872 11.4498 9.75615 11.4589 9.76336 11.4681C9.77057 11.4773 9.77755 11.4866 9.78431 11.4962C9.79106 11.5057 9.79758 11.5154 9.80385 11.5253C9.81013 11.5352 9.81616 11.5452 9.82195 11.5553C9.82773 11.5655 9.83326 11.5758 9.83854 11.5862C9.84383 11.5966 9.84886 11.6072 9.85361 11.6179C9.85837 11.6285 9.86287 11.6393 9.86711 11.6502C9.87135 11.6611 9.87532 11.6721 9.879 11.6832C9.88269 11.6943 9.88612 11.7055 9.88926 11.7167C9.89241 11.728 9.89527 11.7393 9.89786 11.7507C9.90046 11.7621 9.90277 11.7736 9.9048 11.7851C9.90683 11.7966 9.90856 11.8082 9.91003 11.8198C9.91149 11.8314 9.91266 11.843 9.91355 11.8546C9.91446 11.8663 9.91506 11.878 9.91537 11.8897C9.92025 12.0486 9.86708 12.2178 9.75662 12.3344C9.66812 12.4278 9.54114 12.4894 9.41192 12.4932C9.28874 12.5114 9.14226 12.458 9.04295 12.3877C8.89469 12.2827 8.79546 12.1097 8.76607 11.9317C8.73798 11.7616 8.77189 11.5805 8.87349 11.4396C8.96206 11.3167 9.09006 11.2528 9.23709 11.2294Z" fill="#FFCA64"/>
<path d="M10.6836 11.6928C10.6938 11.6926 10.7041 11.6926 10.7143 11.6928C10.7245 11.693 10.7347 11.6935 10.7449 11.6942C10.7551 11.6949 10.7653 11.6959 10.7754 11.6971C10.7856 11.6983 10.7957 11.6998 10.8058 11.7014C10.8158 11.7031 10.8259 11.705 10.8359 11.7072C10.8458 11.7094 10.8558 11.7118 10.8656 11.7144C10.8755 11.717 10.8853 11.7199 10.8951 11.723C10.9048 11.7261 10.9144 11.7295 10.924 11.733C10.9336 11.7366 10.9431 11.7404 10.9525 11.7444C10.9619 11.7484 10.9712 11.7526 10.9804 11.7571C10.9896 11.7616 10.9987 11.7662 11.0076 11.7711C11.0166 11.776 11.0255 11.7811 11.0342 11.7864C11.0429 11.7917 11.0515 11.7973 11.06 11.803C11.0684 11.8087 11.0768 11.8146 11.085 11.8208C11.0931 11.8269 11.1012 11.8332 11.1091 11.8397C11.117 11.8462 11.1247 11.8529 11.1322 11.8597C11.141 11.8677 11.1496 11.8759 11.1579 11.8842C11.1663 11.8926 11.1744 11.9012 11.1824 11.91C11.1903 11.9187 11.198 11.9277 11.2055 11.9369C11.213 11.946 11.2203 11.9553 11.2273 11.9649C11.2344 11.9744 11.2412 11.9841 11.2477 11.9939C11.2543 12.0038 11.2606 12.0138 11.2667 12.0239C11.2727 12.0341 11.2786 12.0444 11.2841 12.0548C11.2897 12.0653 11.295 12.0758 11.3 12.0865C11.3051 12.0972 11.3099 12.1081 11.3144 12.119C11.3189 12.13 11.3231 12.141 11.3271 12.1521C11.3311 12.1633 11.3348 12.1745 11.3382 12.1858C11.3416 12.1972 11.3447 12.2086 11.3476 12.2201C11.3505 12.2316 11.353 12.2431 11.3553 12.2547C11.3576 12.2663 11.3596 12.278 11.3613 12.2897C11.3631 12.3014 11.3645 12.3132 11.3656 12.3249C11.3668 12.3367 11.3676 12.3485 11.3682 12.3603C11.3754 12.5293 11.327 12.6927 11.211 12.8185C11.1026 12.9361 10.9602 12.9921 10.8024 12.998C10.6523 13.0054 10.4993 12.9425 10.3856 12.8472C10.3765 12.8396 10.3676 12.8318 10.359 12.8238C10.3503 12.8157 10.3418 12.8074 10.3335 12.799C10.3252 12.7905 10.3172 12.7819 10.3093 12.773C10.3015 12.7641 10.2938 12.7551 10.2864 12.7458C10.2791 12.7366 10.2719 12.7272 10.265 12.7176C10.258 12.708 10.2513 12.6982 10.2449 12.6882C10.2384 12.6783 10.2322 12.6682 10.2263 12.658C10.2204 12.6478 10.2147 12.6374 10.2092 12.6269C10.2038 12.6163 10.1986 12.6057 10.1937 12.5949C10.1888 12.5841 10.1842 12.5732 10.1798 12.5622C10.1755 12.5512 10.1714 12.5401 10.1675 12.5289C10.1637 12.5177 10.1602 12.5064 10.157 12.495C10.1537 12.4836 10.1507 12.4722 10.148 12.4606C10.1454 12.4491 10.143 12.4375 10.1408 12.4259C10.1387 12.4142 10.1369 12.4025 10.1354 12.3908C10.1338 12.379 10.1326 12.3673 10.1316 12.3555C10.118 12.1901 10.166 12.0155 10.2746 11.8883C10.3804 11.7641 10.5236 11.7058 10.6836 11.6928Z" fill="#FFCA64"/>
<path d="M12.6385 12.3434C12.8123 12.3367 12.9689 12.387 13.1008 12.5025C13.1103 12.5109 13.1196 12.5196 13.1286 12.5285C13.1377 12.5374 13.1465 12.5466 13.1551 12.5559C13.1637 12.5653 13.1721 12.5748 13.1802 12.5846C13.1884 12.5943 13.1963 12.6043 13.204 12.6144C13.2116 12.6246 13.219 12.6349 13.2262 12.6454C13.2333 12.6559 13.2402 12.6666 13.2469 12.6774C13.2535 12.6882 13.2599 12.6992 13.266 12.7104C13.2721 12.7215 13.2779 12.7328 13.2835 12.7443C13.289 12.7557 13.2943 12.7673 13.2993 12.779C13.3042 12.7906 13.3089 12.8024 13.3134 12.8144C13.3178 12.8263 13.3219 12.8383 13.3257 12.8504C13.3295 12.8626 13.3331 12.8748 13.3363 12.887C13.3395 12.8993 13.3424 12.9117 13.3451 12.9241C13.3477 12.9366 13.35 12.9491 13.352 12.9616C13.354 12.9742 13.3557 12.9868 13.3572 12.9994C13.3586 13.012 13.3596 13.0247 13.3604 13.0374C13.3716 13.208 13.3178 13.3938 13.204 13.5233C13.1008 13.6406 12.9615 13.7059 12.8065 13.7162C12.6708 13.7324 12.5173 13.6756 12.4091 13.596C12.2485 13.4777 12.1422 13.2905 12.1126 13.0943C12.085 12.9113 12.1246 12.717 12.2354 12.5671C12.336 12.431 12.4748 12.3682 12.6385 12.3434Z" fill="#FFCA64"/>
<path d="M2.19165 7.06559C2.21414 7.06466 2.23658 7.06533 2.25898 7.06761C2.28137 7.06989 2.30349 7.07374 2.32534 7.07919C2.4356 7.10576 2.54426 7.14998 2.6523 7.18505C2.81885 7.23912 3.12658 7.31152 3.26178 7.40553C3.40147 7.50267 3.49402 7.66216 3.52365 7.8283C3.55109 7.98217 3.52129 8.14761 3.43082 8.27645C3.34946 8.3923 3.23583 8.45145 3.09888 8.47525C3.04639 8.47962 2.99667 8.47617 2.94547 8.46428C2.81272 8.43339 2.68249 8.37411 2.55408 8.32807C2.41043 8.27657 2.25943 8.2329 2.11983 8.17176C2.07666 8.15285 2.03438 8.12993 1.99697 8.10112C1.86352 7.99833 1.78192 7.83638 1.76175 7.67087C1.74331 7.5194 1.77916 7.35422 1.87476 7.23307C1.9558 7.13038 2.06372 7.08121 2.19165 7.06559Z" fill="#FFCA64"/>
<path d="M3.25923 9.34901C3.31791 9.34466 3.37222 9.34924 3.42947 9.36216C3.55819 9.39118 3.68635 9.44514 3.81175 9.48675C3.97967 9.5425 4.20908 9.59391 4.35892 9.68339C4.49847 9.76672 4.59714 9.91641 4.63607 10.0725C4.67472 10.2275 4.65597 10.3945 4.57287 10.5321C4.49788 10.6564 4.38984 10.7256 4.25107 10.7604C4.18175 10.7713 4.12009 10.7686 4.05152 10.7538C3.92784 10.7272 3.20115 10.4692 3.10489 10.4064C2.97376 10.321 2.88192 10.1683 2.85067 10.0167C2.81861 9.86112 2.84096 9.68892 2.92975 9.55503C3.01041 9.43342 3.11954 9.37779 3.25923 9.34901Z" fill="#FFCA64"/>
<path d="M5.30743 10.0322C5.36856 10.0272 5.42702 10.0323 5.48671 10.0455C5.64199 10.0799 5.79716 10.1461 5.94836 10.1964C6.10122 10.2472 6.26391 10.2884 6.41189 10.3514C6.43702 10.3618 6.46136 10.3739 6.48491 10.3875C6.50848 10.4011 6.53106 10.4162 6.55266 10.4327C6.56111 10.4393 6.56939 10.4461 6.57749 10.4531C6.58561 10.46 6.59355 10.4672 6.6013 10.4746C6.60906 10.4819 6.61663 10.4895 6.62402 10.4972C6.63142 10.5049 6.6386 10.5128 6.64559 10.5209C6.6526 10.529 6.6594 10.5373 6.66599 10.5457C6.67259 10.5541 6.67896 10.5627 6.68514 10.5714C6.69131 10.5802 6.69727 10.5891 6.703 10.5981C6.70874 10.6071 6.71425 10.6163 6.71954 10.6256C6.72482 10.6349 6.72988 10.6443 6.73469 10.6539C6.73951 10.6634 6.7441 10.6731 6.74844 10.6828C6.75279 10.6926 6.7569 10.7025 6.76076 10.7125C6.76463 10.7224 6.76825 10.7325 6.77161 10.7427C6.77497 10.7528 6.7781 10.763 6.78096 10.7733C6.78382 10.7836 6.78642 10.794 6.78878 10.8044C6.79114 10.8149 6.79324 10.8254 6.79508 10.8359C6.79691 10.8464 6.7985 10.857 6.79982 10.8676C6.81968 11.0232 6.78399 11.1844 6.68666 11.3091C6.68136 11.3159 6.67589 11.3226 6.67026 11.3291C6.66463 11.3357 6.65884 11.3421 6.65288 11.3483C6.64693 11.3546 6.64082 11.3607 6.63456 11.3667C6.62831 11.3726 6.62191 11.3784 6.61536 11.384C6.60881 11.3897 6.60213 11.3951 6.5953 11.4004C6.58847 11.4058 6.58152 11.4109 6.57445 11.4158C6.56737 11.4208 6.56017 11.4256 6.55285 11.4302C6.54555 11.4347 6.53813 11.4392 6.53059 11.4434C6.52305 11.4476 6.5154 11.4516 6.50767 11.4555C6.49994 11.4593 6.49211 11.463 6.48419 11.4664C6.47626 11.4699 6.46826 11.4731 6.46017 11.4762C6.4521 11.4792 6.44394 11.4821 6.43571 11.4847C6.42749 11.4874 6.41921 11.4898 6.41087 11.492C6.40253 11.4943 6.39413 11.4963 6.38567 11.4981C6.37722 11.4999 6.36874 11.5015 6.36022 11.5029C6.35168 11.5043 6.34312 11.5054 6.33454 11.5064C6.27327 11.5131 6.21626 11.5106 6.15608 11.4969C6.02479 11.4672 5.89533 11.4088 5.76816 11.3641C5.59106 11.3017 5.27322 11.2162 5.12382 11.1156C4.98365 11.0212 4.89139 10.8711 4.85927 10.7063C4.82885 10.5502 4.85656 10.3824 4.94699 10.2502C5.03611 10.1199 5.15594 10.061 5.30743 10.0322Z" fill="#FFCA64"/>
<path d="M4.20781 7.73234C4.26253 7.72784 4.31645 7.73286 4.36993 7.74502C4.4923 7.77289 4.61349 7.82246 4.73291 7.86128C4.92801 7.9247 5.26537 8.00757 5.42648 8.10882C5.57256 8.20059 5.67703 8.35636 5.71521 8.52375C5.75039 8.67805 5.72697 8.84928 5.64184 8.98377C5.55273 9.12454 5.423 9.19729 5.26386 9.23301C5.18512 9.23907 5.1131 9.23539 5.03599 9.21731C4.90629 9.18688 4.77638 9.12751 4.65041 9.08264C4.47386 9.01975 4.28728 8.96446 4.11607 8.88898C4.06599 8.86691 4.01778 8.83984 3.97467 8.80602C3.83879 8.69938 3.75186 8.53596 3.73153 8.36529C3.71288 8.2088 3.75241 8.04418 3.85075 7.91957C3.94002 7.80645 4.06701 7.74902 4.20781 7.73234Z" fill="#FFCA64"/>
<path d="M7.08344 8.59404C7.13108 8.59106 7.1809 8.59683 7.2273 8.60761C7.38736 8.64481 7.54496 8.70964 7.70093 8.76151C7.85247 8.81191 8.0144 8.85338 8.1604 8.91779C8.18622 8.92892 8.21117 8.94173 8.23527 8.95623C8.25936 8.97074 8.28237 8.98678 8.30431 9.00437C8.44603 9.11957 8.53647 9.30127 8.55462 9.48189C8.57215 9.65635 8.53468 9.83757 8.42172 9.97529C8.41653 9.9817 8.4112 9.988 8.4057 9.99415C8.40021 10.0003 8.39456 10.0063 8.38877 10.0122C8.38298 10.0181 8.37705 10.0238 8.37098 10.0294C8.36489 10.0349 8.35868 10.0404 8.35234 10.0456C8.346 10.0509 8.33953 10.056 8.33293 10.061C8.32634 10.0659 8.31961 10.0707 8.31279 10.0753C8.30596 10.08 8.29901 10.0844 8.29196 10.0887C8.28489 10.093 8.27773 10.097 8.27047 10.101C8.26323 10.1049 8.25588 10.1086 8.24843 10.1122C8.24098 10.1157 8.23345 10.1191 8.22585 10.1223C8.21824 10.1255 8.21055 10.1285 8.2028 10.1313C8.19504 10.1341 8.18721 10.1367 8.17933 10.1391C8.17144 10.1415 8.1635 10.1438 8.15551 10.1458C8.14751 10.1478 8.13947 10.1496 8.13138 10.1513C8.12329 10.1529 8.11517 10.1543 8.10701 10.1555C8.09884 10.1568 8.09067 10.1578 8.08246 10.1586L8.07736 10.1593C8.01996 10.1673 7.95948 10.1591 7.9036 10.1456C7.77799 10.1152 7.65361 10.0589 7.53126 10.0164C7.35735 9.95592 7.17438 9.9044 7.00578 9.83158C6.95797 9.81095 6.91197 9.78595 6.8704 9.75444C6.7253 9.64443 6.6316 9.46428 6.60822 9.28527C6.58564 9.11225 6.62316 8.92404 6.73147 8.7844C6.82098 8.66899 6.94107 8.61262 7.08344 8.59404Z" fill="#FFCA64"/>
<path d="M9.24067 9.33501C9.31477 9.32925 9.38273 9.33323 9.45544 9.34953C9.61507 9.38532 9.77557 9.45273 9.93102 9.50467C10.0945 9.55929 10.2688 9.60555 10.4272 9.67198C10.4522 9.68233 10.4765 9.69418 10.5 9.70755C10.5235 9.72089 10.5462 9.73565 10.5679 9.7518C10.721 9.86572 10.8217 10.0436 10.8481 10.232C10.8724 10.4058 10.8352 10.5949 10.7275 10.7359C10.6356 10.8562 10.5066 10.9282 10.3575 10.9485C10.2865 10.9577 10.2232 10.9523 10.1537 10.936C10.0146 10.9035 9.87418 10.8407 9.73904 10.7935C9.56058 10.7311 9.26938 10.6499 9.114 10.5624C8.95572 10.4733 8.84286 10.3077 8.79566 10.1343C8.74755 9.95765 8.76684 9.76304 8.8588 9.60372C8.94744 9.45012 9.07321 9.37929 9.24067 9.33501Z" fill="#FFCA64"/>
<path d="M11.5624 10.1237C11.5837 10.1215 11.605 10.1196 11.6263 10.118C11.6896 10.1135 11.7524 10.121 11.814 10.1356C11.9799 10.1748 12.1458 10.2436 12.3079 10.2972C12.4957 10.3594 12.7003 10.4113 12.8799 10.4925C12.9089 10.5054 12.9369 10.5205 12.9637 10.5376C12.9904 10.5548 13.0158 10.5738 13.0397 10.5948C13.0491 10.6029 13.0582 10.6113 13.0671 10.6199C13.0761 10.6285 13.0848 10.6373 13.0933 10.6463C13.1018 10.6553 13.1101 10.6645 13.1182 10.6739C13.1262 10.6834 13.134 10.693 13.1416 10.7028C13.1492 10.7126 13.1566 10.7226 13.1637 10.7327C13.1708 10.7429 13.1776 10.7532 13.1842 10.7637C13.1908 10.7742 13.1972 10.7849 13.2032 10.7957C13.2093 10.8065 13.2151 10.8174 13.2207 10.8285C13.2262 10.8396 13.2315 10.8508 13.2364 10.8622C13.2414 10.8735 13.2462 10.885 13.2506 10.8966C13.255 10.9081 13.2592 10.9198 13.263 10.9316C13.2669 10.9434 13.2705 10.9553 13.2737 10.9672C13.277 10.9792 13.28 10.9912 13.2827 11.0033C13.2854 11.0154 13.2878 11.0275 13.2899 11.0398C13.292 11.052 13.2938 11.0642 13.2953 11.0766C13.2968 11.0889 13.298 11.1012 13.2989 11.1136C13.3105 11.2889 13.2582 11.4657 13.1411 11.5985C13.0543 11.6969 12.9145 11.779 12.7818 11.7874C12.7779 11.7898 12.7769 11.7907 12.7718 11.792C12.7037 11.8091 12.6085 11.7911 12.5418 11.775C12.3752 11.7348 12.2075 11.6628 12.045 11.6056C11.8592 11.5402 11.5947 11.4677 11.4275 11.3726C11.2634 11.2792 11.1508 11.1194 11.1017 10.938C11.0985 10.9268 11.0957 10.9155 11.0931 10.9042C11.0905 10.8929 11.0882 10.8814 11.0862 10.87C11.0841 10.8585 11.0824 10.8471 11.0809 10.8355C11.0795 10.824 11.0783 10.8124 11.0775 10.8008C11.0766 10.7892 11.076 10.7776 11.0757 10.766C11.0754 10.7543 11.0754 10.7427 11.0756 10.7311C11.0759 10.7195 11.0765 10.7079 11.0773 10.6963C11.0782 10.6847 11.0793 10.6731 11.0807 10.6616C11.0822 10.65 11.0839 10.6385 11.0859 10.6271C11.0879 10.6156 11.0901 10.6042 11.0927 10.5929C11.0953 10.5815 11.0981 10.5702 11.1012 10.559C11.1043 10.5478 11.1077 10.5367 11.1114 10.5257C11.1151 10.5146 11.119 10.5037 11.1232 10.4929C11.1275 10.482 11.1319 10.4713 11.1367 10.4607C11.1414 10.4501 11.1464 10.4396 11.1517 10.4292C11.157 10.4189 11.1625 10.4086 11.1683 10.3985C11.2578 10.2443 11.3939 10.168 11.5624 10.1237Z" fill="#FFCA64"/>
<path d="M2.21295 8.80583C2.3229 8.79481 2.4283 8.81871 2.52227 8.87723C2.65785 8.96166 2.75095 9.11091 2.78585 9.26505C2.82046 9.41794 2.80265 9.58383 2.71767 9.71769C2.64287 9.83551 2.53966 9.89786 2.40518 9.92843C2.29188 9.94163 2.18234 9.91419 2.08701 9.85194C1.95108 9.7632 1.86339 9.61943 1.83028 9.46207C1.79742 9.30585 1.82044 9.13318 1.90963 8.99869C1.98206 8.88948 2.08632 8.83103 2.21295 8.80583Z" fill="#D87500"/>
<path d="M8.0782 10.6436C8.22813 10.6413 8.35801 10.6829 8.47121 10.7836C8.60665 10.904 8.68986 11.0859 8.70017 11.2661C8.70933 11.4262 8.66373 11.5951 8.55521 11.7161C8.46397 11.8179 8.34554 11.869 8.21049 11.8765C8.09736 11.8792 7.99037 11.8437 7.89758 11.7797C7.75114 11.6786 7.65589 11.5134 7.62515 11.3396C7.59529 11.1707 7.62615 10.9888 7.72612 10.8475C7.8144 10.7227 7.93106 10.6693 8.0782 10.6436Z" fill="#D87500"/>
<path d="M9.38529 11.0827C9.3969 11.0817 9.40853 11.0811 9.42019 11.0807C9.57803 11.075 9.72638 11.136 9.84081 11.2436C9.8493 11.2516 9.85758 11.2599 9.86566 11.2683C9.87373 11.2768 9.8816 11.2854 9.88926 11.2943C9.89692 11.3031 9.90434 11.3121 9.91155 11.3213C9.91877 11.3305 9.92575 11.3399 9.9325 11.3494C9.93926 11.359 9.94578 11.3687 9.95204 11.3786C9.95832 11.3884 9.96435 11.3984 9.97015 11.4086C9.97592 11.4188 9.98145 11.429 9.98674 11.4395C9.99203 11.4499 9.99705 11.4605 10.0018 11.4711C10.0066 11.4818 10.0111 11.4926 10.0153 11.5035C10.0195 11.5144 10.0235 11.5254 10.0272 11.5365C10.0309 11.5476 10.0343 11.5588 10.0374 11.57C10.0406 11.5813 10.0435 11.5926 10.0461 11.604C10.0486 11.6154 10.051 11.6269 10.053 11.6384C10.055 11.6499 10.0568 11.6614 10.0582 11.673C10.0597 11.6846 10.0609 11.6963 10.0617 11.7079C10.0626 11.7196 10.0633 11.7313 10.0636 11.7429C10.0684 11.9019 10.0153 12.0711 9.90481 12.1877C9.81631 12.2811 9.68933 12.3426 9.56012 12.3465C9.43693 12.3647 9.29046 12.3113 9.19114 12.2409C9.04289 12.136 8.94366 11.963 8.91426 11.7849C8.88618 11.6149 8.92009 11.4338 9.02169 11.2929C9.11025 11.17 9.23825 11.1061 9.38529 11.0827Z" fill="#D87500"/>
<path d="M10.8317 11.5463C10.8419 11.5461 10.8521 11.5461 10.8624 11.5463C10.8726 11.5466 10.8828 11.547 10.893 11.5477C10.9032 11.5485 10.9133 11.5494 10.9235 11.5506C10.9336 11.5518 10.9438 11.5533 10.9538 11.555C10.9639 11.5566 10.9739 11.5586 10.9839 11.5607C10.9939 11.5629 11.0038 11.5653 11.0137 11.5679C11.0236 11.5706 11.0334 11.5734 11.0431 11.5766C11.0529 11.5797 11.0625 11.583 11.0721 11.5866C11.0817 11.5901 11.0912 11.5939 11.1006 11.5979C11.11 11.6019 11.1193 11.6062 11.1285 11.6106C11.1377 11.6151 11.1467 11.6198 11.1557 11.6246C11.1647 11.6295 11.1735 11.6346 11.1823 11.6399C11.191 11.6453 11.1996 11.6508 11.2081 11.6565C11.2165 11.6622 11.2248 11.6681 11.233 11.6743C11.2412 11.6804 11.2492 11.6867 11.2571 11.6932C11.265 11.6997 11.2727 11.7064 11.2803 11.7133C11.2891 11.7212 11.2976 11.7294 11.306 11.7378C11.3144 11.7461 11.3225 11.7547 11.3304 11.7635C11.3384 11.7722 11.3461 11.7812 11.3536 11.7904C11.3611 11.7995 11.3684 11.8089 11.3754 11.8184C11.3824 11.8279 11.3892 11.8376 11.3958 11.8474C11.4024 11.8573 11.4087 11.8673 11.4147 11.8774C11.4208 11.8876 11.4266 11.8979 11.4322 11.9083C11.4378 11.9188 11.4431 11.9294 11.4481 11.9401C11.4532 11.9508 11.4579 11.9616 11.4624 11.9725C11.467 11.9835 11.4712 11.9945 11.4752 12.0057C11.4791 12.0168 11.4828 12.028 11.4863 12.0394C11.4897 12.0507 11.4928 12.0621 11.4957 12.0736C11.4985 12.0851 11.5011 12.0966 11.5034 12.1082C11.5057 12.1198 11.5077 12.1315 11.5094 12.1432C11.5111 12.1549 11.5126 12.1667 11.5137 12.1785C11.5148 12.1902 11.5157 12.202 11.5162 12.2138C11.5235 12.3829 11.475 12.5462 11.3591 12.672C11.2506 12.7896 11.1083 12.8456 10.9504 12.8515C10.8004 12.859 10.6473 12.7961 10.5337 12.7008C10.5246 12.6931 10.5157 12.6853 10.507 12.6773C10.4983 12.6692 10.4899 12.661 10.4816 12.6525C10.4733 12.644 10.4652 12.6354 10.4574 12.6265C10.4495 12.6176 10.4419 12.6086 10.4345 12.5993C10.4271 12.5901 10.42 12.5807 10.413 12.5711C10.4061 12.5615 10.3994 12.5517 10.393 12.5418C10.3865 12.5318 10.3803 12.5218 10.3744 12.5115C10.3684 12.5013 10.3627 12.4909 10.3573 12.4804C10.3519 12.4699 10.3467 12.4592 10.3418 12.4484C10.3369 12.4377 10.3323 12.4268 10.3279 12.4158C10.3235 12.4047 10.3194 12.3936 10.3156 12.3824C10.3118 12.3712 10.3083 12.3599 10.305 12.3485C10.3018 12.3372 10.2988 12.3257 10.2961 12.3142C10.2934 12.3026 10.291 12.291 10.2889 12.2794C10.2868 12.2678 10.285 12.256 10.2834 12.2443C10.2819 12.2326 10.2807 12.2208 10.2797 12.209C10.2661 12.0437 10.3141 11.869 10.4226 11.7418C10.5285 11.6177 10.6717 11.5593 10.8317 11.5463Z" fill="#D87500"/>
<path d="M12.7867 12.1966C12.9605 12.19 13.1171 12.2403 13.249 12.3557C13.2585 12.3642 13.2677 12.3729 13.2768 12.3818C13.2859 12.3907 13.2947 12.3998 13.3033 12.4092C13.3119 12.4185 13.3203 12.4281 13.3284 12.4378C13.3366 12.4476 13.3445 12.4575 13.3522 12.4677C13.3598 12.4778 13.3672 12.4882 13.3744 12.4987C13.3815 12.5092 13.3884 12.5198 13.3951 12.5307C13.4017 12.5415 13.4081 12.5525 13.4142 12.5636C13.4203 12.5748 13.4261 12.5861 13.4317 12.5975C13.4372 12.609 13.4425 12.6205 13.4475 12.6322C13.4524 12.6439 13.4571 12.6557 13.4616 12.6676C13.466 12.6795 13.4701 12.6916 13.4739 12.7037C13.4777 12.7158 13.4813 12.728 13.4845 12.7403C13.4877 12.7526 13.4906 12.765 13.4933 12.7774C13.4959 12.7898 13.4982 12.8023 13.5002 12.8149C13.5022 12.8274 13.5039 12.84 13.5053 12.8527C13.5068 12.8653 13.5078 12.878 13.5086 12.8906C13.5198 13.0612 13.466 13.2471 13.3521 13.3766C13.249 13.4939 13.1097 13.5591 12.9547 13.5695C12.8189 13.5857 12.6655 13.5289 12.5573 13.4492C12.3967 13.3309 12.2904 13.1438 12.2608 12.9476C12.2332 12.7646 12.2728 12.5703 12.3836 12.4203C12.4842 12.2843 12.623 12.2215 12.7867 12.1966Z" fill="#D87500"/>
<path d="M2.33984 6.91886C2.36233 6.91793 2.38478 6.91861 2.40718 6.92089C2.42956 6.92316 2.45168 6.92702 2.47353 6.93246C2.5838 6.95902 2.69245 7.00325 2.80049 7.03833C2.96704 7.09239 3.27478 7.16479 3.40998 7.25882C3.54966 7.35596 3.64221 7.51542 3.67184 7.68159C3.69928 7.83545 3.66949 8.00089 3.57901 8.12974C3.49765 8.24559 3.38402 8.30473 3.24707 8.32854C3.19458 8.33291 3.14486 8.32945 3.09366 8.31756C2.96091 8.28667 2.83069 8.2274 2.70227 8.18135C2.55863 8.12985 2.40762 8.08618 2.26802 8.02504C2.22485 8.00614 2.18257 7.98322 2.14516 7.9544C2.01171 7.85162 1.93011 7.68966 1.90995 7.52415C1.8915 7.37267 1.92735 7.2075 2.02295 7.08636C2.10399 6.98366 2.21192 6.93448 2.33984 6.91886Z" fill="#D87500"/>
<path d="M3.40742 9.20252C3.4661 9.19818 3.52041 9.20276 3.57766 9.21568C3.70638 9.2447 3.83455 9.29865 3.95994 9.34027C4.12787 9.39602 4.35727 9.44742 4.50711 9.53691C4.64667 9.62024 4.74533 9.76991 4.78427 9.92602C4.82292 10.081 4.80416 10.248 4.72107 10.3857C4.64607 10.5099 4.53803 10.5791 4.39926 10.6139C4.32994 10.6248 4.26828 10.6221 4.19972 10.6073C4.07603 10.5807 3.34935 10.3227 3.25308 10.2599C3.12195 10.1745 3.03012 10.0218 2.99886 9.87018C2.9668 9.71464 2.98915 9.54243 3.07794 9.40855C3.15861 9.28694 3.26773 9.23131 3.40742 9.20252Z" fill="#D87500"/>
<path d="M5.45562 9.88542C5.51675 9.88043 5.57521 9.88558 5.6349 9.8988C5.79019 9.93315 5.94536 9.99935 6.09656 10.0497C6.24942 10.1005 6.4121 10.1417 6.56008 10.2047C6.58521 10.2151 6.60955 10.2272 6.63311 10.2408C6.65668 10.2544 6.67925 10.2695 6.70085 10.286C6.7093 10.2926 6.71758 10.2994 6.72568 10.3063C6.7338 10.3133 6.74174 10.3205 6.74949 10.3278C6.75725 10.3352 6.76482 10.3428 6.77222 10.3505C6.77961 10.3582 6.7868 10.3661 6.79379 10.3742C6.8008 10.3823 6.8076 10.3906 6.81419 10.399C6.82078 10.4074 6.82715 10.416 6.83333 10.4247C6.83951 10.4334 6.84546 10.4423 6.8512 10.4514C6.85693 10.4604 6.86244 10.4696 6.86773 10.4789C6.87302 10.4882 6.87807 10.4976 6.88288 10.5071C6.8877 10.5167 6.89229 10.5263 6.89663 10.5361C6.90099 10.5459 6.90509 10.5558 6.90896 10.5657C6.91282 10.5757 6.91644 10.5858 6.9198 10.5959C6.92317 10.6061 6.92629 10.6163 6.92915 10.6266C6.93201 10.6369 6.93462 10.6473 6.93697 10.6577C6.93933 10.6682 6.94143 10.6786 6.94327 10.6892C6.94511 10.6997 6.94669 10.7103 6.94801 10.7209C6.96788 10.8765 6.93219 11.0377 6.83485 11.1624C6.82955 11.1692 6.82408 11.1759 6.81845 11.1824C6.81282 11.189 6.80703 11.1954 6.80108 11.2016C6.79512 11.2079 6.78902 11.214 6.78275 11.2199C6.7765 11.2259 6.7701 11.2317 6.76355 11.2373C6.757 11.243 6.75032 11.2484 6.74349 11.2537C6.73666 11.259 6.72971 11.2642 6.72265 11.2691C6.71557 11.2741 6.70837 11.2788 6.70105 11.2834C6.69374 11.288 6.68632 11.2924 6.67878 11.2967C6.67124 11.3009 6.6636 11.3049 6.65586 11.3088C6.64813 11.3126 6.64031 11.3162 6.63238 11.3197C6.62445 11.3232 6.61645 11.3264 6.60837 11.3294C6.60029 11.3325 6.59213 11.3353 6.58391 11.338C6.57568 11.3406 6.5674 11.3431 6.55906 11.3453C6.55072 11.3475 6.54232 11.3496 6.53386 11.3514C6.52542 11.3532 6.51693 11.3548 6.50841 11.3562C6.49988 11.3576 6.49131 11.3587 6.48274 11.3597C6.42146 11.3664 6.36445 11.3639 6.30428 11.3502C6.17299 11.3204 6.04352 11.2621 5.91635 11.2174C5.73925 11.155 5.42142 11.0695 5.27201 10.9689C5.13185 10.8745 5.03958 10.7244 5.00746 10.5596C4.97705 10.4035 5.00475 10.2357 5.09518 10.1035C5.18431 9.97317 5.30413 9.91428 5.45562 9.88542Z" fill="#D87500"/>
<path d="M4.35601 7.58562C4.41072 7.5811 4.46465 7.58613 4.51813 7.5983C4.6405 7.62616 4.76168 7.67573 4.8811 7.71456C5.0762 7.77796 5.41356 7.86085 5.57467 7.9621C5.72075 8.05387 5.82522 8.20964 5.8634 8.37703C5.89859 8.53133 5.87516 8.70256 5.79004 8.83704C5.70093 8.97782 5.57119 9.05057 5.41205 9.08629C5.33331 9.09235 5.2613 9.08867 5.18419 9.07059C5.05448 9.04016 4.92457 8.98079 4.7986 8.93592C4.62205 8.87303 4.43547 8.81774 4.26426 8.74226C4.21419 8.72019 4.16598 8.69312 4.12287 8.6593C3.98699 8.55266 3.90005 8.38924 3.87973 8.21857C3.86107 8.06208 3.9006 7.89744 3.99894 7.77285C4.08822 7.65973 4.21521 7.60229 4.35601 7.58562Z" fill="#D87500"/>
<path d="M7.23163 8.44756C7.27927 8.44458 7.3291 8.45034 7.3755 8.46113C7.53556 8.49833 7.69316 8.56316 7.84913 8.61502C8.00067 8.66542 8.16259 8.70689 8.30859 8.77131C8.33442 8.78243 8.35936 8.79525 8.38347 8.80975C8.40756 8.82424 8.43056 8.84028 8.4525 8.85788C8.59422 8.97308 8.68467 9.15479 8.70282 9.33541C8.72034 9.50987 8.68287 9.69108 8.56991 9.8288C8.56473 9.83522 8.55939 9.8415 8.5539 9.84766C8.5484 9.85381 8.54276 9.85982 8.53696 9.86571C8.53117 9.87157 8.52524 9.87729 8.51917 9.88288C8.51308 9.88845 8.50687 9.89388 8.50053 9.89916C8.49419 9.90443 8.48772 9.90954 8.48113 9.91449C8.47453 9.91944 8.46781 9.92422 8.46098 9.92885C8.45415 9.93347 8.4472 9.93791 8.44015 9.94219C8.43308 9.94646 8.42593 9.95057 8.41867 9.95449C8.41142 9.9584 8.40407 9.96215 8.39662 9.96571C8.38917 9.96926 8.38164 9.97262 8.37404 9.97582C8.36643 9.97899 8.35874 9.98199 8.35099 9.9848C8.34323 9.9876 8.33541 9.99021 8.32753 9.99264C8.31963 9.99505 8.31169 9.99728 8.3037 9.99929C8.2957 10.0013 8.28766 10.0031 8.27957 10.0048C8.27148 10.0064 8.26336 10.0078 8.2552 10.009C8.24704 10.0103 8.23886 10.0113 8.23065 10.0121L8.22556 10.0129C8.16815 10.0209 8.10767 10.0127 8.05179 9.99914C7.92618 9.96876 7.80181 9.91245 7.67945 9.86991C7.50554 9.80944 7.32258 9.75791 7.15397 9.6851C7.10616 9.66446 7.06016 9.63947 7.01859 9.60796C6.8735 9.49794 6.77979 9.31778 6.75642 9.13877C6.73384 8.96575 6.77135 8.77756 6.87966 8.63791C6.96917 8.52251 7.08926 8.46614 7.23163 8.44756Z" fill="#D87500"/>
<path d="M9.38886 9.18853C9.46296 9.18276 9.53092 9.18675 9.60363 9.20305C9.76326 9.23884 9.92376 9.30625 10.0792 9.35819C10.2427 9.41281 10.417 9.45906 10.5754 9.52549C10.6004 9.53583 10.6247 9.5477 10.6482 9.56106C10.6717 9.57441 10.6944 9.58916 10.7161 9.60531C10.8692 9.71924 10.9699 9.89714 10.9963 10.0856C11.0205 10.2593 10.9834 10.4484 10.8757 10.5894C10.7838 10.7097 10.6548 10.7817 10.5057 10.802C10.4347 10.8112 10.3714 10.8058 10.3019 10.7895C10.1628 10.757 10.0224 10.6942 9.88723 10.647C9.70877 10.5846 9.41757 10.5034 9.26219 10.4159C9.10391 10.3268 8.99105 10.1612 8.94385 9.98786C8.89575 9.81117 8.91504 9.61656 9.00699 9.45724C9.09563 9.30364 9.22141 9.23281 9.38886 9.18853Z" fill="#D87500"/>
<path d="M11.7106 9.97715C11.7319 9.97496 11.7532 9.97309 11.7744 9.97152C11.8377 9.967 11.9005 9.97452 11.9622 9.98909C12.128 10.0283 12.294 10.0971 12.456 10.1507C12.6439 10.2129 12.8485 10.2649 13.0281 10.346C13.0571 10.3589 13.0851 10.374 13.1119 10.3911C13.1386 10.4083 13.164 10.4273 13.1879 10.4483C13.1972 10.4564 13.2064 10.4648 13.2153 10.4734C13.2243 10.482 13.233 10.4908 13.2415 10.4998C13.25 10.5088 13.2583 10.518 13.2664 10.5274C13.2744 10.5369 13.2822 10.5465 13.2898 10.5563C13.2974 10.5661 13.3048 10.5761 13.3119 10.5862C13.319 10.5964 13.3258 10.6067 13.3324 10.6172C13.339 10.6277 13.3453 10.6384 13.3514 10.6492C13.3575 10.66 13.3633 10.6709 13.3688 10.682C13.3744 10.6931 13.3796 10.7043 13.3846 10.7157C13.3896 10.727 13.3944 10.7385 13.3988 10.7501C13.4032 10.7617 13.4073 10.7733 13.4112 10.7851C13.4151 10.7969 13.4187 10.8088 13.4219 10.8207C13.4252 10.8327 13.4282 10.8447 13.4309 10.8568C13.4336 10.8689 13.436 10.8811 13.4381 10.8933C13.4402 10.9055 13.442 10.9178 13.4435 10.9301C13.445 10.9424 13.4462 10.9547 13.4471 10.9671C13.4587 11.1425 13.4064 11.3192 13.2893 11.452C13.2025 11.5504 13.0627 11.6325 12.93 11.6409C12.9261 11.6433 12.9251 11.6442 12.92 11.6455C12.8519 11.6626 12.7567 11.6446 12.69 11.6285C12.5234 11.5884 12.3557 11.5163 12.1932 11.4591C12.0074 11.3937 11.7429 11.3212 11.5757 11.2261C11.4116 11.1327 11.299 10.9729 11.2499 10.7915C11.2467 10.7803 11.2439 10.769 11.2413 10.7577C11.2387 10.7464 11.2364 10.735 11.2344 10.7235C11.2323 10.7121 11.2306 10.7006 11.2291 10.689C11.2277 10.6775 11.2265 10.6659 11.2256 10.6543C11.2248 10.6427 11.2242 10.6311 11.2239 10.6195C11.2236 10.6079 11.2236 10.5962 11.2238 10.5846C11.2241 10.573 11.2247 10.5614 11.2255 10.5498C11.2264 10.5382 11.2275 10.5266 11.2289 10.5151C11.2304 10.5035 11.2321 10.492 11.2341 10.4806C11.2361 10.4691 11.2383 10.4577 11.2409 10.4464C11.2435 10.435 11.2463 10.4238 11.2494 10.4126C11.2525 10.4013 11.2559 10.3902 11.2596 10.3792C11.2633 10.3682 11.2672 10.3572 11.2714 10.3464C11.2756 10.3356 11.2801 10.3248 11.2849 10.3142C11.2896 10.3036 11.2946 10.2931 11.2999 10.2827C11.3052 10.2724 11.3107 10.2621 11.3165 10.252C11.406 10.0978 11.5421 10.0215 11.7106 9.97715Z" fill="#D87500"/>
</g>
</svg>
