<svg width="1080" height="1080" viewBox="0 0 1080 1080" fill="none" xmlns="http://www.w3.org/2000/svg">
<path d="M954.154 685.704C610.67 572.081 258.423 455.413 83.0688 396.941C83.0688 396.941 47.0688 647.455 94.5688 685.704C142.069 723.953 610.67 872.081 954.154 985.704V685.704Z" fill="#FBB630"/>
<path d="M1009.51 657.055C1001.42 670.861 986.313 681.911 954.154 685.704V985.704C976.069 990.191 1005.3 974.633 1009.51 957.055V657.055Z" fill="#FF9820"/>
<path d="M638.844 106.191C549.619 42.6905 134.069 219.691 83.0688 396.941C258.423 455.413 610.67 572.081 954.154 685.704C986.313 681.911 1001.42 670.861 1009.51 657.055C1009.51 657.055 728.069 169.691 638.844 106.191Z" fill="#FFE320"/>
<mask id="mask0_10_4" style="mask-type:alpha" maskUnits="userSpaceOnUse" x="112" y="476" width="790" height="451">
<path d="M139.374 604.298C146.796 603.554 153.91 605.167 160.253 609.117C169.405 614.816 175.689 624.891 178.045 635.295C180.381 645.615 179.179 656.813 173.443 665.848C168.394 673.801 161.427 678.01 152.35 680.073C144.702 680.964 137.308 679.112 130.873 674.91C121.698 668.92 115.779 659.216 113.544 648.594C111.326 638.049 112.88 626.394 118.9 617.316C123.789 609.944 130.827 605.999 139.374 604.298Z" fill="#FFCA64"/>
<path d="M535.278 728.353C545.398 728.198 554.165 731.004 561.806 737.798C570.948 745.925 576.565 758.205 577.261 770.369C577.879 781.177 574.801 792.572 567.476 800.743C561.317 807.613 553.323 811.065 544.207 811.568C536.571 811.753 529.349 809.355 523.086 805.033C513.201 798.212 506.772 787.06 504.697 775.327C502.681 763.929 504.764 751.649 511.512 742.112C517.471 733.689 525.346 730.088 535.278 728.353Z" fill="#FFCA64"/>
<path d="M623.51 757.988C624.294 757.922 625.079 757.876 625.866 757.851C636.52 757.465 646.534 761.586 654.258 768.847C654.831 769.39 655.39 769.947 655.935 770.517C656.48 771.088 657.011 771.671 657.528 772.268C658.045 772.864 658.546 773.473 659.033 774.094C659.52 774.715 659.991 775.348 660.447 775.992C660.903 776.636 661.343 777.291 661.766 777.957C662.19 778.623 662.597 779.299 662.988 779.984C663.378 780.67 663.751 781.365 664.108 782.069C664.465 782.773 664.804 783.485 665.125 784.206C665.446 784.927 665.75 785.655 666.036 786.391C666.322 787.126 666.59 787.868 666.839 788.617C667.088 789.366 667.319 790.12 667.531 790.88C667.744 791.64 667.937 792.405 668.112 793.175C668.287 793.944 668.443 794.718 668.58 795.495C668.717 796.272 668.834 797.052 668.933 797.835C669.032 798.618 669.111 799.402 669.171 800.189C669.232 800.976 669.273 801.764 669.294 802.553C669.623 813.28 666.034 824.702 658.578 832.573C652.604 838.879 644.033 843.033 635.311 843.292C626.996 844.52 617.109 840.914 610.405 836.167C600.398 829.081 593.7 817.404 591.716 805.388C589.82 793.91 592.109 781.687 598.967 772.172C604.945 763.877 613.585 759.566 623.51 757.988Z" fill="#FFCA64"/>
<path d="M721.147 789.27C721.836 789.253 722.526 789.252 723.216 789.268C723.905 789.284 724.594 789.316 725.282 789.364C725.971 789.413 726.657 789.478 727.342 789.559C728.027 789.64 728.71 789.738 729.39 789.852C730.071 789.965 730.748 790.095 731.422 790.241C732.096 790.387 732.766 790.549 733.433 790.727C734.099 790.905 734.761 791.099 735.418 791.309C736.075 791.518 736.727 791.743 737.374 791.984C738.021 792.224 738.661 792.48 739.295 792.751C739.93 793.022 740.557 793.308 741.178 793.609C741.799 793.91 742.412 794.225 743.017 794.555C743.623 794.886 744.221 795.23 744.81 795.588C745.399 795.947 745.979 796.319 746.551 796.706C747.122 797.092 747.684 797.492 748.237 797.905C748.789 798.318 749.331 798.743 749.864 799.182C750.396 799.621 750.917 800.073 751.428 800.536C752.019 801.073 752.597 801.625 753.161 802.19C753.726 802.755 754.276 803.334 754.811 803.926C755.347 804.519 755.868 805.124 756.374 805.742C756.88 806.36 757.371 806.99 757.846 807.632C758.321 808.275 758.78 808.928 759.223 809.593C759.666 810.258 760.093 810.933 760.502 811.618C760.912 812.304 761.305 812.999 761.68 813.704C762.056 814.409 762.414 815.123 762.755 815.846C763.096 816.568 763.418 817.298 763.722 818.037C764.027 818.776 764.313 819.521 764.581 820.273C764.849 821.026 765.098 821.784 765.329 822.549C765.56 823.314 765.772 824.084 765.965 824.859C766.158 825.634 766.331 826.414 766.486 827.197C766.641 827.981 766.776 828.768 766.892 829.558C767.008 830.349 767.104 831.142 767.181 831.937C767.258 832.732 767.315 833.528 767.353 834.326C767.841 845.735 764.571 856.76 756.743 865.252C749.424 873.192 739.818 876.971 729.162 877.37C719.035 877.871 708.703 873.626 701.029 867.193C700.416 866.68 699.817 866.151 699.231 865.608C698.644 865.065 698.072 864.507 697.513 863.936C696.954 863.365 696.41 862.78 695.881 862.181C695.351 861.582 694.836 860.971 694.337 860.347C693.838 859.723 693.354 859.087 692.886 858.439C692.419 857.791 691.967 857.132 691.532 856.461C691.097 855.791 690.678 855.11 690.277 854.419C689.876 853.728 689.492 853.028 689.125 852.317C688.758 851.607 688.409 850.888 688.078 850.161C687.747 849.434 687.434 848.698 687.139 847.955C686.845 847.212 686.569 846.463 686.311 845.706C686.054 844.949 685.815 844.187 685.596 843.418C685.376 842.65 685.175 841.877 684.994 841.098C684.813 840.32 684.651 839.538 684.508 838.751C684.365 837.965 684.242 837.176 684.139 836.383C684.036 835.59 683.952 834.796 683.888 833.999C682.97 822.838 686.208 811.048 693.534 802.462C700.682 794.084 710.345 790.144 721.147 789.27Z" fill="#FFCA64"/>
<path d="M853.103 833.174C864.832 832.725 875.406 836.121 884.307 843.913C884.947 844.484 885.573 845.071 886.184 845.673C886.795 846.275 887.392 846.891 887.973 847.522C888.554 848.153 889.12 848.797 889.67 849.456C890.22 850.115 890.754 850.786 891.271 851.471C891.788 852.156 892.288 852.852 892.771 853.561C893.254 854.27 893.72 854.991 894.168 855.722C894.616 856.454 895.046 857.196 895.457 857.948C895.869 858.701 896.262 859.463 896.637 860.235C897.012 861.007 897.367 861.788 897.704 862.577C898.04 863.366 898.357 864.162 898.655 864.967C898.952 865.772 899.23 866.583 899.488 867.401C899.747 868.22 899.985 869.044 900.203 869.873C900.42 870.703 900.618 871.538 900.795 872.377C900.972 873.216 901.129 874.06 901.265 874.907C901.401 875.754 901.516 876.604 901.611 877.457C901.706 878.31 901.779 879.164 901.832 880.02C902.584 891.535 898.955 904.081 891.27 912.823C884.309 920.741 874.904 925.144 864.445 925.844C855.279 926.934 844.921 923.102 837.62 917.726C826.774 909.74 819.6 897.108 817.603 883.862C815.741 871.512 818.411 858.396 825.893 848.275C832.683 839.089 842.053 834.854 853.103 833.174Z" fill="#FFCA64"/>
<path d="M147.94 476.924C149.458 476.861 150.973 476.906 152.485 477.06C153.996 477.214 155.489 477.474 156.964 477.842C164.407 479.635 171.741 482.62 179.034 484.987C190.276 488.637 211.048 493.524 220.174 499.87C229.603 506.427 235.85 517.192 237.85 528.407C239.702 538.793 237.691 549.96 231.584 558.657C226.092 566.477 218.422 570.469 209.178 572.076C205.635 572.371 202.279 572.138 198.823 571.335C189.862 569.25 181.072 565.249 172.404 562.141C162.708 558.665 152.515 555.717 143.092 551.59C140.178 550.314 137.324 548.767 134.799 546.822C125.791 539.884 120.283 528.952 118.922 517.78C117.677 507.556 120.097 496.406 126.55 488.229C132.02 481.297 139.305 477.978 147.94 476.924Z" fill="#FFCA64"/>
<path d="M220.005 631.065C223.966 630.772 227.632 631.081 231.496 631.953C240.185 633.912 248.836 637.554 257.3 640.363C268.635 644.126 284.12 647.596 294.234 653.636C303.654 659.261 310.314 669.365 312.942 679.902C315.551 690.366 314.285 701.634 308.676 710.927C303.614 719.316 296.321 723.987 286.954 726.331C282.275 727.072 278.113 726.889 273.485 725.891C265.136 724.093 216.085 706.678 209.587 702.442C200.736 696.673 194.537 686.366 192.427 676.132C190.263 665.633 191.772 654.009 197.765 644.972C203.21 636.763 210.576 633.008 220.005 631.065Z" fill="#FFCA64"/>
<path d="M358.258 677.174C362.384 676.837 366.33 677.184 370.359 678.076C380.841 680.395 391.315 684.864 401.521 688.26C411.839 691.693 422.82 694.47 432.809 698.722C434.505 699.428 436.148 700.241 437.738 701.16C439.329 702.079 440.853 703.097 442.311 704.214C442.881 704.657 443.44 705.114 443.987 705.585C444.535 706.056 445.071 706.539 445.594 707.036C446.118 707.533 446.629 708.043 447.128 708.565C447.627 709.087 448.112 709.621 448.584 710.167C449.057 710.713 449.516 711.27 449.961 711.839C450.406 712.408 450.836 712.987 451.253 713.576C451.67 714.166 452.072 714.766 452.459 715.375C452.846 715.984 453.218 716.603 453.575 717.231C453.932 717.858 454.273 718.494 454.598 719.139C454.923 719.784 455.233 720.436 455.526 721.095C455.82 721.755 456.097 722.422 456.358 723.095C456.619 723.768 456.863 724.448 457.09 725.133C457.317 725.818 457.528 726.509 457.721 727.204C457.914 727.9 458.09 728.6 458.249 729.304C458.408 730.009 458.55 730.716 458.674 731.427C458.798 732.138 458.905 732.852 458.994 733.569C460.335 744.069 457.926 754.949 451.356 763.366C450.998 763.827 450.629 764.278 450.249 764.72C449.869 765.162 449.478 765.594 449.076 766.017C448.674 766.44 448.262 766.852 447.839 767.253C447.417 767.655 446.985 768.046 446.543 768.427C446.101 768.807 445.65 769.176 445.189 769.534C444.728 769.892 444.259 770.238 443.782 770.573C443.304 770.907 442.818 771.229 442.324 771.539C441.831 771.849 441.33 772.147 440.821 772.432C440.312 772.717 439.796 772.99 439.274 773.249C438.752 773.508 438.224 773.754 437.689 773.987C437.154 774.22 436.614 774.44 436.068 774.645C435.523 774.851 434.972 775.043 434.417 775.222C433.862 775.401 433.303 775.565 432.74 775.716C432.177 775.866 431.61 776.002 431.039 776.125C430.469 776.247 429.896 776.355 429.321 776.448C428.745 776.542 428.167 776.621 427.588 776.686C423.452 777.136 419.604 776.969 415.542 776.047C406.68 774.037 397.941 770.101 389.357 767.079C377.403 762.87 355.949 757.099 345.864 750.306C336.403 743.934 330.175 733.801 328.007 722.678C325.954 712.145 327.824 700.819 333.928 691.894C339.944 683.097 348.032 679.122 358.258 677.174Z" fill="#FFCA64"/>
<path d="M284.031 521.93C287.724 521.626 291.364 521.965 294.974 522.786C303.234 524.667 311.414 528.013 319.475 530.633C332.644 534.914 355.416 540.508 366.291 547.342C376.151 553.537 383.203 564.051 385.78 575.35C388.155 585.765 386.574 597.323 380.828 606.401C374.813 615.903 366.056 620.814 355.314 623.225C349.999 623.634 345.138 623.386 339.933 622.165C331.178 620.111 322.409 616.104 313.906 613.075C301.989 608.83 289.395 605.098 277.838 600.003C274.458 598.513 271.204 596.686 268.294 594.403C259.122 587.205 253.254 576.174 251.882 564.654C250.623 554.091 253.291 542.979 259.929 534.568C265.955 526.932 274.527 523.056 284.031 521.93Z" fill="#FFCA64"/>
<path d="M478.138 580.107C481.354 579.906 484.717 580.295 487.849 581.023C498.653 583.534 509.291 587.91 519.819 591.411C530.048 594.813 540.978 597.612 550.833 601.96C552.576 602.711 554.26 603.576 555.887 604.555C557.513 605.534 559.066 606.617 560.547 607.804C570.113 615.58 576.218 627.845 577.443 640.037C578.626 651.813 576.097 664.045 568.472 673.341C568.122 673.774 567.762 674.199 567.391 674.614C567.02 675.029 566.639 675.435 566.248 675.832C565.857 676.228 565.457 676.614 565.047 676.991C564.636 677.368 564.217 677.734 563.789 678.09C563.361 678.446 562.924 678.791 562.479 679.125C562.034 679.46 561.58 679.783 561.119 680.094C560.658 680.406 560.189 680.706 559.713 680.995C559.236 681.284 558.753 681.56 558.263 681.825C557.774 682.09 557.278 682.342 556.775 682.582C556.272 682.822 555.764 683.05 555.251 683.265C554.737 683.48 554.218 683.682 553.695 683.871C553.171 684.06 552.643 684.237 552.111 684.4C551.578 684.563 551.042 684.713 550.503 684.849C549.963 684.986 549.42 685.109 548.874 685.219C548.328 685.328 547.78 685.424 547.229 685.507C546.678 685.59 546.126 685.659 545.572 685.714L545.228 685.765C541.353 686.305 537.271 685.751 533.499 684.839C525.02 682.788 516.625 678.987 508.366 676.116C496.627 672.034 484.277 668.556 472.896 663.641C469.669 662.248 466.564 660.561 463.758 658.434C453.964 651.008 447.639 638.848 446.061 626.765C444.537 615.086 447.069 602.382 454.38 592.956C460.422 585.166 468.528 581.361 478.138 580.107Z" fill="#FFCA64"/>
<path d="M623.747 630.12C628.749 629.731 633.336 630 638.244 631.1C649.019 633.516 659.853 638.066 670.346 641.572C681.38 645.259 693.145 648.381 703.837 652.865C705.525 653.564 707.163 654.364 708.752 655.266C710.341 656.167 711.869 657.163 713.335 658.253C723.672 665.943 730.469 677.951 732.246 690.67C733.886 702.398 731.376 715.162 724.11 724.678C717.905 732.802 709.197 737.659 699.133 739.03C694.339 739.652 690.066 739.286 685.376 738.188C675.985 735.99 666.509 731.756 657.387 728.567C645.341 724.357 625.685 718.874 615.197 712.969C604.513 706.952 596.895 695.778 593.709 684.075C590.462 672.148 591.764 659.012 597.971 648.258C603.954 637.89 612.444 633.109 623.747 630.12Z" fill="#FFCA64"/>
<path d="M780.471 683.353C781.905 683.205 783.341 683.078 784.778 682.972C789.051 682.667 793.29 683.174 797.452 684.158C808.646 686.803 819.845 691.447 830.786 695.069C843.465 699.265 857.278 702.772 869.399 708.25C871.36 709.123 873.245 710.139 875.053 711.296C876.861 712.453 878.572 713.739 880.186 715.154C880.817 715.703 881.435 716.268 882.038 716.848C882.641 717.428 883.23 718.022 883.805 718.631C884.379 719.24 884.938 719.862 885.482 720.497C886.026 721.133 886.554 721.782 887.066 722.444C887.579 723.105 888.075 723.779 888.554 724.465C889.033 725.151 889.496 725.848 889.941 726.557C890.386 727.266 890.814 727.985 891.224 728.714C891.634 729.443 892.026 730.182 892.4 730.931C892.774 731.68 893.129 732.437 893.466 733.203C893.803 733.969 894.122 734.743 894.421 735.524C894.72 736.306 894.999 737.094 895.26 737.889C895.521 738.684 895.762 739.486 895.983 740.293C896.204 741.1 896.406 741.912 896.588 742.729C896.77 743.546 896.932 744.366 897.073 745.191C897.215 746.016 897.336 746.843 897.437 747.674C897.538 748.505 897.619 749.337 897.68 750.172C898.466 762.01 894.934 773.94 887.029 782.905C881.172 789.549 871.734 795.086 862.779 795.653C862.514 795.815 862.444 795.879 862.102 795.965C857.508 797.122 851.083 795.904 846.58 794.819C835.333 792.108 824.011 787.243 813.042 783.385C800.5 778.972 782.648 774.076 771.361 767.655C760.285 761.354 752.685 750.567 749.37 738.32C749.157 737.565 748.964 736.804 748.789 736.039C748.614 735.274 748.459 734.504 748.322 733.731C748.185 732.958 748.068 732.183 747.97 731.404C747.872 730.625 747.793 729.844 747.734 729.061C747.675 728.278 747.635 727.495 747.614 726.71C747.594 725.925 747.593 725.141 747.611 724.356C747.63 723.571 747.668 722.788 747.725 722.005C747.782 721.222 747.859 720.441 747.956 719.662C748.052 718.883 748.167 718.106 748.302 717.333C748.437 716.56 748.59 715.79 748.763 715.025C748.936 714.259 749.127 713.498 749.338 712.742C749.549 711.985 749.778 711.235 750.026 710.49C750.274 709.745 750.54 709.007 750.824 708.276C751.109 707.544 751.411 706.82 751.732 706.103C752.053 705.386 752.391 704.678 752.746 703.979C753.101 703.279 753.474 702.588 753.864 701.907C759.91 691.494 769.097 686.345 780.471 683.353Z" fill="#FFCA64"/>
</mask>
<g mask="url(#mask0_10_4)">
<path d="M139.374 604.298C146.796 603.554 153.91 605.167 160.253 609.117C169.405 614.816 175.689 624.891 178.045 635.295C180.381 645.615 179.179 656.813 173.443 665.848C168.394 673.801 161.427 678.01 152.35 680.073C144.702 680.964 137.308 679.112 130.873 674.91C121.698 668.92 115.779 659.216 113.544 648.594C111.326 638.049 112.88 626.394 118.9 617.316C123.789 609.944 130.827 605.999 139.374 604.298Z" fill="#FFCA64"/>
<path d="M535.278 728.353C545.398 728.198 554.165 731.004 561.806 737.798C570.948 745.925 576.565 758.205 577.261 770.369C577.879 781.177 574.801 792.572 567.476 800.743C561.317 807.613 553.323 811.065 544.207 811.568C536.571 811.753 529.349 809.355 523.086 805.033C513.201 798.212 506.772 787.06 504.697 775.327C502.681 763.929 504.764 751.649 511.512 742.112C517.471 733.689 525.346 730.088 535.278 728.353Z" fill="#FFCA64"/>
<path d="M623.51 757.988C624.294 757.922 625.079 757.876 625.866 757.851C636.52 757.465 646.534 761.586 654.258 768.847C654.831 769.39 655.39 769.947 655.935 770.517C656.48 771.088 657.011 771.671 657.528 772.268C658.045 772.864 658.546 773.473 659.033 774.094C659.52 774.715 659.991 775.348 660.447 775.992C660.903 776.636 661.343 777.291 661.766 777.957C662.19 778.623 662.597 779.299 662.988 779.984C663.378 780.67 663.751 781.365 664.108 782.069C664.465 782.773 664.804 783.485 665.125 784.206C665.446 784.927 665.75 785.655 666.036 786.391C666.322 787.126 666.59 787.868 666.839 788.617C667.088 789.366 667.319 790.12 667.531 790.88C667.744 791.64 667.937 792.405 668.112 793.175C668.287 793.944 668.443 794.718 668.58 795.495C668.717 796.272 668.834 797.052 668.933 797.835C669.032 798.618 669.111 799.402 669.171 800.189C669.232 800.976 669.273 801.764 669.294 802.553C669.623 813.28 666.034 824.702 658.578 832.573C652.604 838.879 644.033 843.033 635.311 843.292C626.996 844.52 617.109 840.914 610.405 836.167C600.398 829.081 593.7 817.404 591.716 805.388C589.82 793.91 592.109 781.687 598.967 772.172C604.945 763.877 613.585 759.566 623.51 757.988Z" fill="#FFCA64"/>
<path d="M721.147 789.27C721.836 789.253 722.526 789.252 723.216 789.268C723.905 789.284 724.594 789.316 725.282 789.364C725.971 789.413 726.657 789.478 727.342 789.559C728.027 789.64 728.71 789.738 729.39 789.852C730.071 789.965 730.748 790.095 731.422 790.241C732.096 790.387 732.766 790.549 733.433 790.727C734.099 790.905 734.761 791.099 735.418 791.309C736.075 791.518 736.727 791.743 737.374 791.984C738.021 792.224 738.661 792.48 739.295 792.751C739.93 793.022 740.557 793.308 741.178 793.609C741.799 793.91 742.412 794.225 743.017 794.555C743.623 794.886 744.221 795.23 744.81 795.588C745.399 795.947 745.979 796.319 746.551 796.706C747.122 797.092 747.684 797.492 748.237 797.905C748.789 798.318 749.331 798.743 749.864 799.182C750.396 799.621 750.917 800.073 751.428 800.536C752.019 801.073 752.597 801.625 753.161 802.19C753.726 802.755 754.276 803.334 754.811 803.926C755.347 804.519 755.868 805.124 756.374 805.742C756.88 806.36 757.371 806.99 757.846 807.632C758.321 808.275 758.78 808.928 759.223 809.593C759.666 810.258 760.093 810.933 760.502 811.618C760.912 812.304 761.305 812.999 761.68 813.704C762.056 814.409 762.414 815.123 762.755 815.846C763.096 816.568 763.418 817.298 763.722 818.037C764.027 818.776 764.313 819.521 764.581 820.273C764.849 821.026 765.098 821.784 765.329 822.549C765.56 823.314 765.772 824.084 765.965 824.859C766.158 825.634 766.331 826.414 766.486 827.197C766.641 827.981 766.776 828.768 766.892 829.558C767.008 830.349 767.104 831.142 767.181 831.937C767.258 832.732 767.315 833.528 767.353 834.326C767.841 845.735 764.571 856.76 756.743 865.252C749.424 873.192 739.818 876.971 729.162 877.37C719.035 877.871 708.703 873.626 701.029 867.193C700.416 866.68 699.817 866.151 699.231 865.608C698.644 865.065 698.072 864.507 697.513 863.936C696.954 863.365 696.41 862.78 695.881 862.181C695.351 861.582 694.836 860.971 694.337 860.347C693.838 859.723 693.354 859.087 692.886 858.439C692.419 857.791 691.967 857.132 691.532 856.461C691.097 855.791 690.678 855.11 690.277 854.419C689.876 853.728 689.492 853.028 689.125 852.317C688.758 851.607 688.409 850.888 688.078 850.161C687.747 849.434 687.434 848.698 687.139 847.955C686.845 847.212 686.569 846.463 686.311 845.706C686.054 844.949 685.815 844.187 685.596 843.418C685.376 842.65 685.175 841.877 684.994 841.098C684.813 840.32 684.651 839.538 684.508 838.751C684.365 837.965 684.242 837.176 684.139 836.383C684.036 835.59 683.952 834.796 683.888 833.999C682.97 822.838 686.208 811.048 693.534 802.462C700.682 794.084 710.345 790.144 721.147 789.27Z" fill="#FFCA64"/>
<path d="M853.103 833.174C864.832 832.725 875.406 836.121 884.307 843.913C884.947 844.484 885.573 845.071 886.184 845.673C886.795 846.275 887.392 846.891 887.973 847.522C888.554 848.153 889.12 848.797 889.67 849.456C890.22 850.115 890.754 850.786 891.271 851.471C891.788 852.156 892.288 852.852 892.771 853.561C893.254 854.27 893.72 854.991 894.168 855.722C894.616 856.454 895.046 857.196 895.457 857.948C895.869 858.701 896.262 859.463 896.637 860.235C897.012 861.007 897.367 861.788 897.704 862.577C898.04 863.366 898.357 864.162 898.655 864.967C898.952 865.772 899.23 866.583 899.488 867.401C899.747 868.22 899.985 869.044 900.203 869.873C900.42 870.703 900.618 871.538 900.795 872.377C900.972 873.216 901.129 874.06 901.265 874.907C901.401 875.754 901.516 876.604 901.611 877.457C901.706 878.31 901.779 879.164 901.832 880.02C902.584 891.535 898.955 904.081 891.27 912.823C884.309 920.741 874.904 925.144 864.445 925.844C855.279 926.934 844.921 923.102 837.62 917.726C826.774 909.74 819.6 897.108 817.603 883.862C815.741 871.512 818.411 858.396 825.893 848.275C832.683 839.089 842.053 834.854 853.103 833.174Z" fill="#FFCA64"/>
<path d="M147.94 476.924C149.458 476.861 150.973 476.906 152.485 477.06C153.996 477.214 155.489 477.474 156.964 477.842C164.407 479.635 171.741 482.62 179.034 484.987C190.276 488.637 211.048 493.524 220.174 499.87C229.603 506.427 235.85 517.192 237.85 528.407C239.702 538.793 237.691 549.96 231.584 558.657C226.092 566.477 218.422 570.469 209.178 572.076C205.635 572.371 202.279 572.138 198.823 571.335C189.862 569.25 181.072 565.249 172.404 562.141C162.708 558.665 152.515 555.717 143.092 551.59C140.178 550.314 137.324 548.767 134.799 546.822C125.791 539.884 120.283 528.952 118.922 517.78C117.677 507.556 120.097 496.406 126.55 488.229C132.02 481.297 139.305 477.978 147.94 476.924Z" fill="#FFCA64"/>
<path d="M220.005 631.065C223.966 630.772 227.632 631.081 231.496 631.953C240.185 633.912 248.836 637.554 257.3 640.363C268.635 644.126 284.12 647.596 294.234 653.636C303.654 659.261 310.314 669.365 312.942 679.902C315.551 690.366 314.285 701.634 308.676 710.927C303.614 719.316 296.321 723.987 286.954 726.331C282.275 727.072 278.113 726.889 273.485 725.891C265.136 724.093 216.085 706.678 209.587 702.442C200.736 696.673 194.537 686.366 192.427 676.132C190.263 665.633 191.772 654.009 197.765 644.972C203.21 636.763 210.576 633.008 220.005 631.065Z" fill="#FFCA64"/>
<path d="M358.258 677.174C362.384 676.837 366.33 677.184 370.359 678.076C380.841 680.395 391.315 684.864 401.521 688.26C411.839 691.693 422.82 694.47 432.809 698.722C434.505 699.428 436.148 700.241 437.738 701.16C439.329 702.079 440.853 703.097 442.311 704.214C442.881 704.657 443.44 705.114 443.987 705.585C444.535 706.056 445.071 706.539 445.594 707.036C446.118 707.533 446.629 708.043 447.128 708.565C447.627 709.087 448.112 709.621 448.584 710.167C449.057 710.713 449.516 711.27 449.961 711.839C450.406 712.408 450.836 712.987 451.253 713.576C451.67 714.166 452.072 714.766 452.459 715.375C452.846 715.984 453.218 716.603 453.575 717.231C453.932 717.858 454.273 718.494 454.598 719.139C454.923 719.784 455.233 720.436 455.526 721.095C455.82 721.755 456.097 722.422 456.358 723.095C456.619 723.768 456.863 724.448 457.09 725.133C457.317 725.818 457.528 726.509 457.721 727.204C457.914 727.9 458.09 728.6 458.249 729.304C458.408 730.009 458.55 730.716 458.674 731.427C458.798 732.138 458.905 732.852 458.994 733.569C460.335 744.069 457.926 754.949 451.356 763.366C450.998 763.827 450.629 764.278 450.249 764.72C449.869 765.162 449.478 765.594 449.076 766.017C448.674 766.44 448.262 766.852 447.839 767.253C447.417 767.655 446.985 768.046 446.543 768.427C446.101 768.807 445.65 769.176 445.189 769.534C444.728 769.892 444.259 770.238 443.782 770.573C443.304 770.907 442.818 771.229 442.324 771.539C441.831 771.849 441.33 772.147 440.821 772.432C440.312 772.717 439.796 772.99 439.274 773.249C438.752 773.508 438.224 773.754 437.689 773.987C437.154 774.22 436.614 774.44 436.068 774.645C435.523 774.851 434.972 775.043 434.417 775.222C433.862 775.401 433.303 775.565 432.74 775.716C432.177 775.866 431.61 776.002 431.039 776.125C430.469 776.247 429.896 776.355 429.321 776.448C428.745 776.542 428.167 776.621 427.588 776.686C423.452 777.136 419.604 776.969 415.542 776.047C406.68 774.037 397.941 770.101 389.357 767.079C377.403 762.87 355.949 757.099 345.864 750.306C336.403 743.934 330.175 733.801 328.007 722.678C325.954 712.145 327.824 700.819 333.928 691.894C339.944 683.097 348.032 679.122 358.258 677.174Z" fill="#FFCA64"/>
<path d="M284.031 521.93C287.724 521.626 291.364 521.965 294.974 522.786C303.234 524.667 311.414 528.013 319.475 530.633C332.644 534.914 355.416 540.508 366.291 547.342C376.151 553.537 383.203 564.051 385.78 575.35C388.155 585.765 386.574 597.323 380.828 606.401C374.813 615.903 366.056 620.814 355.314 623.225C349.999 623.634 345.138 623.386 339.933 622.165C331.178 620.111 322.409 616.104 313.906 613.075C301.989 608.83 289.395 605.098 277.838 600.003C274.458 598.513 271.204 596.686 268.294 594.403C259.122 587.205 253.254 576.174 251.882 564.654C250.623 554.091 253.291 542.979 259.929 534.568C265.955 526.932 274.527 523.056 284.031 521.93Z" fill="#FFCA64"/>
<path d="M478.138 580.107C481.354 579.906 484.717 580.295 487.849 581.023C498.653 583.534 509.291 587.91 519.819 591.411C530.048 594.813 540.978 597.612 550.833 601.96C552.576 602.711 554.26 603.576 555.887 604.555C557.513 605.534 559.066 606.617 560.547 607.804C570.113 615.58 576.218 627.845 577.443 640.037C578.626 651.813 576.097 664.045 568.472 673.341C568.122 673.774 567.762 674.199 567.391 674.614C567.02 675.029 566.639 675.435 566.248 675.832C565.857 676.228 565.457 676.614 565.047 676.991C564.636 677.368 564.217 677.734 563.789 678.09C563.361 678.446 562.924 678.791 562.479 679.125C562.034 679.46 561.58 679.783 561.119 680.094C560.658 680.406 560.189 680.706 559.713 680.995C559.236 681.284 558.753 681.56 558.263 681.825C557.774 682.09 557.278 682.342 556.775 682.582C556.272 682.822 555.764 683.05 555.251 683.265C554.737 683.48 554.218 683.682 553.695 683.871C553.171 684.06 552.643 684.237 552.111 684.4C551.578 684.563 551.042 684.713 550.503 684.849C549.963 684.986 549.42 685.109 548.874 685.219C548.328 685.328 547.78 685.424 547.229 685.507C546.678 685.59 546.126 685.659 545.572 685.714L545.228 685.765C541.353 686.305 537.271 685.751 533.499 684.839C525.02 682.788 516.625 678.987 508.366 676.116C496.627 672.034 484.277 668.556 472.896 663.641C469.669 662.248 466.564 660.561 463.758 658.434C453.964 651.008 447.639 638.848 446.061 626.765C444.537 615.086 447.069 602.382 454.38 592.956C460.422 585.166 468.528 581.361 478.138 580.107Z" fill="#FFCA64"/>
<path d="M623.747 630.12C628.749 629.731 633.336 630 638.244 631.1C649.019 633.516 659.853 638.066 670.346 641.572C681.38 645.259 693.145 648.381 703.837 652.865C705.525 653.564 707.163 654.364 708.752 655.266C710.341 656.167 711.869 657.163 713.335 658.253C723.672 665.943 730.469 677.951 732.246 690.67C733.886 702.398 731.376 715.162 724.11 724.678C717.905 732.802 709.197 737.659 699.133 739.03C694.339 739.652 690.066 739.286 685.376 738.188C675.985 735.99 666.509 731.756 657.387 728.567C645.341 724.357 625.685 718.874 615.197 712.969C604.513 706.952 596.895 695.778 593.709 684.075C590.462 672.148 591.764 659.012 597.971 648.258C603.954 637.89 612.444 633.109 623.747 630.12Z" fill="#FFCA64"/>
<path d="M780.471 683.353C781.905 683.205 783.341 683.078 784.778 682.972C789.051 682.667 793.29 683.174 797.452 684.158C808.646 686.803 819.845 691.447 830.786 695.069C843.465 699.265 857.278 702.772 869.399 708.25C871.36 709.123 873.245 710.139 875.053 711.296C876.861 712.453 878.572 713.739 880.186 715.154C880.817 715.703 881.435 716.268 882.038 716.848C882.641 717.428 883.23 718.022 883.805 718.631C884.379 719.24 884.938 719.862 885.482 720.497C886.026 721.133 886.554 721.782 887.066 722.444C887.579 723.105 888.075 723.779 888.554 724.465C889.033 725.151 889.496 725.848 889.941 726.557C890.386 727.266 890.814 727.985 891.224 728.714C891.634 729.443 892.026 730.182 892.4 730.931C892.774 731.68 893.129 732.437 893.466 733.203C893.803 733.969 894.122 734.743 894.421 735.524C894.72 736.306 894.999 737.094 895.26 737.889C895.521 738.684 895.762 739.486 895.983 740.293C896.204 741.1 896.406 741.912 896.588 742.729C896.77 743.546 896.932 744.366 897.073 745.191C897.215 746.016 897.336 746.843 897.437 747.674C897.538 748.505 897.619 749.337 897.68 750.172C898.466 762.01 894.934 773.94 887.029 782.905C881.172 789.549 871.734 795.086 862.779 795.653C862.514 795.815 862.444 795.879 862.102 795.965C857.508 797.122 851.083 795.904 846.58 794.819C835.333 792.108 824.011 787.243 813.042 783.385C800.5 778.972 782.648 774.076 771.361 767.655C760.285 761.354 752.685 750.567 749.37 738.32C749.157 737.565 748.964 736.804 748.789 736.039C748.614 735.274 748.459 734.504 748.322 733.731C748.185 732.958 748.068 732.183 747.97 731.404C747.872 730.625 747.793 729.844 747.734 729.061C747.675 728.278 747.635 727.495 747.614 726.71C747.594 725.925 747.593 725.141 747.611 724.356C747.63 723.571 747.668 722.788 747.725 722.005C747.782 721.222 747.859 720.441 747.956 719.662C748.052 718.883 748.167 718.106 748.302 717.333C748.437 716.56 748.59 715.79 748.763 715.025C748.936 714.259 749.127 713.498 749.338 712.742C749.549 711.985 749.778 711.235 750.026 710.49C750.274 709.745 750.54 709.007 750.824 708.276C751.109 707.544 751.411 706.82 751.732 706.103C752.053 705.386 752.391 704.678 752.746 703.979C753.101 703.279 753.474 702.588 753.864 701.907C759.91 691.494 769.097 686.345 780.471 683.353Z" fill="#FFCA64"/>
<path d="M149.374 594.402C156.796 593.658 163.91 595.271 170.253 599.221C179.405 604.92 185.689 614.995 188.045 625.399C190.381 635.719 189.179 646.917 183.443 655.952C178.394 663.905 171.427 668.114 162.35 670.177C154.702 671.068 147.308 669.216 140.873 665.014C131.698 659.024 125.779 649.32 123.544 638.698C121.326 628.153 122.88 616.498 128.9 607.42C133.789 600.048 140.827 596.103 149.374 594.402Z" fill="#D87500"/>
<path d="M545.278 718.456C555.398 718.301 564.165 721.108 571.806 727.902C580.948 736.029 586.565 748.309 587.261 760.473C587.879 771.281 584.801 782.676 577.476 790.847C571.317 797.717 563.323 801.169 554.207 801.672C546.571 801.857 539.349 799.459 533.086 795.137C523.201 788.316 516.772 777.164 514.697 765.431C512.681 754.033 514.764 741.753 521.512 732.216C527.471 723.793 535.346 720.191 545.278 718.456Z" fill="#D87500"/>
<path d="M633.51 748.092C634.294 748.026 635.079 747.98 635.866 747.955C646.52 747.569 656.534 751.69 664.258 758.951C664.831 759.494 665.39 760.051 665.935 760.621C666.48 761.191 667.011 761.775 667.528 762.372C668.045 762.968 668.546 763.576 669.033 764.198C669.52 764.819 669.991 765.452 670.447 766.096C670.903 766.74 671.343 767.395 671.766 768.061C672.19 768.727 672.597 769.402 672.988 770.088C673.378 770.774 673.751 771.469 674.108 772.173C674.465 772.877 674.804 773.589 675.125 774.31C675.446 775.03 675.75 775.759 676.036 776.495C676.322 777.23 676.59 777.972 676.839 778.721C677.088 779.469 677.319 780.224 677.531 780.984C677.744 781.744 677.937 782.509 678.112 783.279C678.287 784.048 678.443 784.821 678.58 785.599C678.717 786.375 678.834 787.155 678.933 787.939C679.032 788.721 679.111 789.506 679.171 790.293C679.232 791.08 679.273 791.868 679.294 792.657C679.623 803.384 676.034 814.806 668.578 822.677C662.604 828.983 654.033 833.137 645.311 833.396C636.996 834.624 627.109 831.018 620.405 826.271C610.398 819.185 603.7 807.508 601.716 795.492C599.82 784.014 602.109 771.791 608.967 762.276C614.945 753.981 623.585 749.67 633.51 748.092Z" fill="#D87500"/>
<path d="M731.147 779.374C731.836 779.356 732.526 779.356 733.216 779.372C733.905 779.388 734.594 779.42 735.282 779.468C735.971 779.516 736.657 779.581 737.342 779.663C738.027 779.744 738.71 779.842 739.39 779.956C740.071 780.069 740.748 780.199 741.422 780.345C742.096 780.491 742.766 780.653 743.433 780.831C744.099 781.009 744.761 781.203 745.418 781.413C746.075 781.622 746.727 781.847 747.374 782.088C748.021 782.328 748.661 782.583 749.295 782.855C749.93 783.125 750.557 783.411 751.178 783.713C751.799 784.013 752.412 784.329 753.017 784.659C753.623 784.989 754.221 785.334 754.81 785.692C755.399 786.05 755.979 786.423 756.551 786.81C757.122 787.196 757.684 787.595 758.237 788.009C758.789 788.421 759.331 788.847 759.864 789.286C760.396 789.725 760.917 790.176 761.428 790.64C762.019 791.177 762.597 791.728 763.161 792.294C763.726 792.859 764.276 793.438 764.811 794.03C765.347 794.622 765.868 795.228 766.374 795.846C766.88 796.464 767.371 797.094 767.846 797.736C768.321 798.378 768.78 799.032 769.223 799.697C769.666 800.361 770.093 801.036 770.502 801.722C770.912 802.408 771.305 803.103 771.68 803.808C772.056 804.513 772.414 805.227 772.755 805.95C773.096 806.672 773.418 807.402 773.722 808.141C774.027 808.879 774.313 809.625 774.581 810.377C774.849 811.129 775.098 811.888 775.329 812.653C775.56 813.417 775.772 814.187 775.965 814.963C776.158 815.738 776.331 816.517 776.486 817.301C776.641 818.085 776.776 818.872 776.892 819.662C777.008 820.452 777.104 821.245 777.181 822.041C777.258 822.835 777.315 823.632 777.353 824.43C777.841 835.839 774.571 846.864 766.743 855.356C759.424 863.296 749.818 867.075 739.162 867.474C729.035 867.975 718.703 863.73 711.029 857.297C710.416 856.783 709.817 856.255 709.231 855.712C708.644 855.168 708.072 854.611 707.513 854.04C706.954 853.468 706.41 852.883 705.881 852.285C705.351 851.686 704.836 851.075 704.337 850.451C703.838 849.827 703.354 849.191 702.886 848.543C702.419 847.895 701.967 847.235 701.532 846.565C701.097 845.895 700.678 845.214 700.277 844.523C699.876 843.832 699.492 843.131 699.125 842.421C698.758 841.711 698.409 840.992 698.078 840.265C697.747 839.537 697.434 838.802 697.139 838.059C696.845 837.316 696.569 836.566 696.311 835.81C696.054 835.053 695.815 834.29 695.596 833.522C695.376 832.754 695.175 831.98 694.994 831.202C694.813 830.424 694.651 829.641 694.508 828.855C694.365 828.069 694.242 827.279 694.139 826.487C694.036 825.694 693.952 824.899 693.888 824.103C692.97 812.942 696.208 801.152 703.534 792.566C710.682 784.188 720.345 780.248 731.147 779.374Z" fill="#D87500"/>
<path d="M863.103 823.278C874.832 822.829 885.406 826.225 894.307 834.017C894.947 834.588 895.573 835.175 896.184 835.777C896.795 836.379 897.392 836.995 897.973 837.626C898.554 838.256 899.12 838.901 899.67 839.56C900.22 840.218 900.754 840.89 901.271 841.575C901.788 842.259 902.288 842.956 902.771 843.665C903.254 844.374 903.72 845.094 904.168 845.826C904.616 846.558 905.046 847.3 905.457 848.052C905.869 848.804 906.262 849.567 906.637 850.339C907.012 851.111 907.367 851.891 907.704 852.681C908.04 853.469 908.357 854.266 908.655 855.071C908.952 855.875 909.23 856.687 909.488 857.505C909.747 858.323 909.985 859.147 910.203 859.977C910.42 860.807 910.618 861.641 910.795 862.481C910.972 863.32 911.129 864.163 911.265 865.011C911.401 865.857 911.516 866.707 911.611 867.561C911.706 868.413 911.779 869.268 911.832 870.124C912.584 881.639 908.955 894.185 901.27 902.927C894.309 910.845 884.904 915.248 874.445 915.948C865.279 917.038 854.921 913.206 847.62 907.83C836.774 899.844 829.6 887.212 827.603 873.966C825.741 861.616 828.411 848.5 835.893 838.379C842.683 829.193 852.053 824.958 863.103 823.278Z" fill="#D87500"/>
<path d="M157.94 467.027C159.458 466.964 160.973 467.01 162.485 467.164C163.996 467.317 165.489 467.578 166.964 467.945C174.407 469.738 181.741 472.723 189.034 475.091C200.276 478.74 221.048 483.627 230.174 489.974C239.603 496.531 245.85 507.295 247.85 518.511C249.702 528.897 247.691 540.064 241.584 548.761C236.092 556.581 228.422 560.573 219.178 562.18C215.635 562.475 212.279 562.242 208.823 561.439C199.862 559.354 191.072 555.353 182.404 552.245C172.708 548.769 162.515 545.821 153.092 541.694C150.178 540.418 147.324 538.871 144.799 536.926C135.791 529.988 130.283 519.056 128.922 507.884C127.677 497.659 130.097 486.51 136.55 478.333C142.02 471.401 149.305 468.081 157.94 467.027Z" fill="#D87500"/>
<path d="M230.005 621.169C233.966 620.876 237.632 621.185 241.496 622.057C250.185 624.016 258.836 627.658 267.3 630.467C278.635 634.23 294.12 637.7 304.234 643.74C313.654 649.365 320.314 659.468 322.942 670.005C325.551 680.469 324.285 691.738 318.676 701.031C313.614 709.42 306.321 714.09 296.954 716.434C292.275 717.175 288.113 716.992 283.485 715.994C275.136 714.196 226.085 696.781 219.587 692.545C210.736 686.776 204.537 676.47 202.427 666.236C200.263 655.737 201.772 644.113 207.765 635.076C213.21 626.867 220.576 623.112 230.005 621.169Z" fill="#D87500"/>
<path d="M368.258 667.277C372.384 666.94 376.33 667.288 380.359 668.18C390.841 670.499 401.315 674.967 411.521 678.363C421.839 681.796 432.82 684.574 442.809 688.826C444.505 689.532 446.148 690.344 447.738 691.264C449.329 692.183 450.853 693.201 452.311 694.317C452.881 694.761 453.44 695.218 453.987 695.688C454.535 696.159 455.071 696.643 455.594 697.14C456.118 697.637 456.629 698.147 457.128 698.669C457.627 699.191 458.112 699.724 458.584 700.27C459.057 700.816 459.516 701.374 459.961 701.942C460.406 702.511 460.836 703.09 461.253 703.679C461.67 704.269 462.072 704.869 462.459 705.479C462.846 706.088 463.218 706.706 463.575 707.334C463.932 707.962 464.273 708.598 464.598 709.243C464.923 709.887 465.233 710.539 465.526 711.199C465.82 711.859 466.097 712.525 466.358 713.199C466.619 713.872 466.863 714.551 467.09 715.236C467.317 715.922 467.528 716.612 467.721 717.308C467.914 718.004 468.09 718.703 468.249 719.407C468.408 720.112 468.55 720.82 468.674 721.531C468.798 722.242 468.905 722.956 468.994 723.673C470.335 734.173 467.926 745.053 461.356 753.47C460.998 753.93 460.629 754.382 460.249 754.824C459.869 755.266 459.478 755.698 459.076 756.121C458.674 756.543 458.262 756.955 457.839 757.357C457.417 757.759 456.985 758.15 456.543 758.531C456.101 758.911 455.65 759.28 455.189 759.638C454.728 759.996 454.259 760.342 453.782 760.677C453.304 761.011 452.818 761.333 452.324 761.643C451.831 761.953 451.33 762.25 450.821 762.536C450.312 762.821 449.796 763.093 449.274 763.353C448.752 763.612 448.224 763.858 447.689 764.091C447.154 764.324 446.614 764.543 446.068 764.749C445.523 764.955 444.972 765.147 444.417 765.326C443.862 765.504 443.303 765.669 442.74 765.82C442.177 765.97 441.61 766.106 441.039 766.229C440.469 766.351 439.896 766.458 439.321 766.552C438.745 766.646 438.167 766.725 437.588 766.79C433.452 767.24 429.604 767.073 425.542 766.151C416.68 764.141 407.941 760.205 399.357 757.183C387.403 752.974 365.949 747.203 355.864 740.41C346.403 734.038 340.175 723.905 338.007 712.782C335.954 702.249 337.824 690.922 343.928 681.997C349.944 673.2 358.032 669.225 368.258 667.277Z" fill="#D87500"/>
<path d="M294.031 512.034C297.724 511.729 301.364 512.068 304.974 512.89C313.234 514.77 321.414 518.116 329.475 520.737C342.644 525.017 365.416 530.612 376.291 537.446C386.151 543.641 393.203 554.155 395.78 565.454C398.155 575.869 396.574 587.427 390.828 596.505C384.813 606.007 376.056 610.918 365.314 613.329C359.999 613.738 355.138 613.49 349.933 612.269C341.178 610.215 332.409 606.208 323.906 603.179C311.989 598.934 299.395 595.202 287.838 590.107C284.458 588.617 281.204 586.79 278.294 584.507C269.122 577.309 263.254 566.278 261.882 554.758C260.623 544.195 263.291 533.082 269.929 524.672C275.955 517.036 284.527 513.159 294.031 512.034Z" fill="#D87500"/>
<path d="M488.138 570.211C491.354 570.01 494.717 570.399 497.849 571.127C508.653 573.638 519.291 578.014 529.819 581.515C540.048 584.917 550.978 587.716 560.833 592.064C562.576 592.815 564.26 593.68 565.887 594.659C567.513 595.637 569.066 596.72 570.547 597.908C580.113 605.684 586.218 617.949 587.443 630.141C588.626 641.917 586.097 654.149 578.472 663.445C578.122 663.878 577.762 664.302 577.391 664.718C577.02 665.133 576.639 665.539 576.248 665.936C575.857 666.332 575.457 666.718 575.047 667.095C574.636 667.471 574.217 667.838 573.789 668.194C573.361 668.55 572.924 668.895 572.479 669.229C572.034 669.563 571.58 669.886 571.119 670.198C570.658 670.51 570.189 670.81 569.713 671.099C569.236 671.387 568.753 671.664 568.263 671.929C567.774 672.193 567.278 672.446 566.775 672.686C566.272 672.926 565.764 673.153 565.251 673.369C564.737 673.583 564.218 673.785 563.695 673.975C563.171 674.164 562.643 674.34 562.111 674.504C561.578 674.667 561.042 674.817 560.503 674.953C559.963 675.089 559.42 675.213 558.874 675.323C558.328 675.432 557.78 675.528 557.229 675.611C556.678 675.693 556.126 675.762 555.572 675.818L555.228 675.869C551.353 676.409 547.271 675.855 543.499 674.943C535.02 672.892 526.625 669.091 518.366 666.22C506.627 662.138 494.277 658.66 482.896 653.745C479.669 652.352 476.564 650.665 473.758 648.538C463.964 641.112 457.639 628.951 456.061 616.868C454.537 605.189 457.069 592.486 464.38 583.06C470.422 575.27 478.528 571.465 488.138 570.211Z" fill="#D87500"/>
<path d="M633.747 620.224C638.749 619.835 643.336 620.104 648.244 621.204C659.019 623.62 669.853 628.17 680.346 631.676C691.38 635.363 703.145 638.485 713.837 642.969C715.525 643.667 717.163 644.468 718.752 645.37C720.341 646.271 721.869 647.267 723.335 648.357C733.672 656.047 740.469 668.055 742.246 680.774C743.886 692.502 741.376 705.266 734.11 714.782C727.905 722.906 719.197 727.763 709.133 729.134C704.339 729.756 700.066 729.39 695.376 728.292C685.985 726.094 676.509 721.86 667.387 718.671C655.341 714.461 635.685 708.978 625.197 703.073C614.513 697.056 606.895 685.882 603.709 674.179C600.462 662.252 601.764 649.116 607.971 638.362C613.954 627.994 622.444 623.213 633.747 620.224Z" fill="#D87500"/>
<path d="M790.471 673.456C791.905 673.308 793.341 673.182 794.778 673.076C799.051 672.771 803.29 673.278 807.452 674.262C818.646 676.907 829.845 681.551 840.786 685.173C853.465 689.369 867.278 692.876 879.399 698.354C881.36 699.227 883.245 700.242 885.053 701.399C886.861 702.556 888.572 703.842 890.186 705.257C890.817 705.807 891.435 706.371 892.038 706.951C892.641 707.531 893.23 708.126 893.805 708.735C894.379 709.343 894.938 709.965 895.482 710.601C896.026 711.237 896.554 711.886 897.066 712.548C897.579 713.209 898.075 713.882 898.554 714.568C899.033 715.254 899.496 715.952 899.941 716.661C900.386 717.369 900.814 718.088 901.224 718.817C901.634 719.547 902.026 720.286 902.4 721.035C902.774 721.783 903.129 722.541 903.466 723.307C903.803 724.073 904.122 724.846 904.421 725.628C904.72 726.41 904.999 727.198 905.26 727.993C905.521 728.788 905.762 729.589 905.983 730.397C906.204 731.203 906.406 732.015 906.588 732.833C906.77 733.649 906.932 734.47 907.073 735.295C907.215 736.119 907.336 736.947 907.437 737.778C907.538 738.608 907.619 739.441 907.68 740.276C908.466 752.114 904.934 764.044 897.029 773.009C891.172 779.653 881.734 785.19 872.779 785.757C872.514 785.919 872.444 785.983 872.102 786.069C867.508 787.226 861.083 786.008 856.58 784.923C845.333 782.212 834.011 777.347 823.042 773.489C810.5 769.076 792.648 764.18 781.361 757.759C770.285 751.458 762.685 740.671 759.37 728.424C759.157 727.668 758.964 726.908 758.789 726.143C758.614 725.377 758.459 724.608 758.322 723.835C758.185 723.062 758.068 722.286 757.97 721.507C757.872 720.728 757.793 719.947 757.734 719.165C757.675 718.382 757.635 717.598 757.614 716.813C757.594 716.029 757.593 715.244 757.611 714.459C757.63 713.675 757.668 712.891 757.725 712.109C757.782 711.325 757.859 710.544 757.956 709.765C758.052 708.986 758.167 708.21 758.302 707.437C758.437 706.663 758.59 705.894 758.763 705.128C758.936 704.362 759.127 703.602 759.338 702.846C759.549 702.089 759.778 701.338 760.026 700.593C760.274 699.849 760.54 699.111 760.824 698.38C761.109 697.648 761.411 696.923 761.732 696.206C762.053 695.49 762.391 694.782 762.746 694.083C763.101 693.383 763.474 692.692 763.864 692.01C769.91 681.597 779.097 676.448 790.471 673.456Z" fill="#D87500"/>
</g>
</svg>
